SplineFontDB: 3.2
FontName: UrbitSansMonoBar-SemiBold
FullName: Urbit Sans Mono Bar SemiBold
FamilyName: Urbit Sans Mono Bar SemiBold
Weight: Bold
Copyright: (c) 2022, Copyright by Kia Tasbihgou. All rights reserved.\nModified for Ax with Xi by N. E. Davis.\nModified for DM with bar-drawing characters by N. E. Davis.
Version: 2.000; build 0007
ItalicAngle: 0
UnderlinePosition: -125
UnderlineWidth: 50
Ascent: 800
Descent: 200
InvalidEm: 0
sfntRevision: 0x00020000
LayerCount: 2
Layer: 0 0 "Back" 1
Layer: 1 0 "Fore" 0
XUID: [1021 418 -575969260 3727120]
StyleMap: 0x0000
FSType: 4
OS2Version: 4
OS2_WeightWidthSlopeOnly: 1
OS2_UseTypoMetrics: 1
CreationTime: 1671128246
ModificationTime: 1763344512
PfmFamily: 49
TTFWeight: 600
TTFWidth: 5
LineGap: 0
VLineGap: 0
Panose: 2 11 7 4 1 1 1 1 1 4
OS2TypoAscent: 950
OS2TypoAOffset: 0
OS2TypoDescent: -250
OS2TypoDOffset: 0
OS2TypoLinegap: 0
OS2WinAscent: 983
OS2WinAOffset: 0
OS2WinDescent: 283
OS2WinDOffset: 0
HheadAscent: 950
HheadAOffset: 0
HheadDescent: -250
HheadDOffset: 0
OS2SubXSize: 650
OS2SubYSize: 600
OS2SubXOff: 0
OS2SubYOff: 75
OS2SupXSize: 650
OS2SupYSize: 600
OS2SupXOff: 0
OS2SupYOff: 350
OS2StrikeYSize: 50
OS2StrikeYPos: 300
OS2CapHeight: 700
OS2XHeight: 500
OS2Vendor: 'Op. '
OS2CodePages: 00000093.00000000
OS2UnicodeRanges: a00000ff.500021fb.00000008.00000000
Lookup: 1 0 0 "'aalt' Access All Alternates in Latin lookup 0" { "'aalt' Access All Alternates in Latin lookup 0 subtable"  } ['aalt' ('DFLT' <'dflt' > 'latn' <'AZE ' 'CAT ' 'CRT ' 'KAZ ' 'MOL ' 'NLD ' 'ROM ' 'TAT ' 'TRK ' 'dflt' > ) ]
Lookup: 3 0 0 "'aalt' Access All Alternates in Latin lookup 1" { "'aalt' Access All Alternates in Latin lookup 1 subtable"  } ['aalt' ('DFLT' <'dflt' > 'latn' <'AZE ' 'CAT ' 'CRT ' 'KAZ ' 'MOL ' 'NLD ' 'ROM ' 'TAT ' 'TRK ' 'dflt' > ) ]
Lookup: 1 0 0 "Single Substitution lookup 2" { "Single Substitution lookup 2 subtable"  } []

StartChar: .notdef
Encoding: 65536 -1 0
Width: 560
GlyphClass: 1
Flags: W
HStem: 0 80<130 430> 620 80<130 430>
VStem: 50 80<80 620> 430 80<80 620>
LayerCount: 2
Fore
SplineSet
50 0 m 1
 50 700 l 1
 510 700 l 1
 510 0 l 1
 50 0 l 1
130 80 m 1
 430 80 l 1
 430 620 l 1
 130 620 l 1
 130 80 l 1
EndSplineSet
Validated: 1
EndChar

StartChar: exclam
Encoding: 33 33 4
Width: 560
GlyphClass: 1
Flags: W
HStem: 0 98<249.377 311.139> 680 20G<275 285>
VStem: 237 86<12.3767 86.1385> 245 70<203.314 689.686>
LayerCount: 2
Fore
SplineSet
280 193 m 0xd0
 270 193 261.666992188 196.333007812 255 203 c 0
 248.333007812 209.666992188 245 218 245 228 c 2
 245 665 l 2
 245 675 248.333007812 683.333007812 255 690 c 0
 261.666992188 696.666992188 270 700 280 700 c 0
 290 700 298.333007812 696.666992188 305 690 c 0
 311.666992188 683.333007812 315 675 315 665 c 2
 315 228 l 2
 315 218 311.666992188 209.666992188 305 203 c 0
 298.333007812 196.333007812 290 193 280 193 c 0xd0
280 0 m 0
 267.333007812 0 257 4 249 12 c 0
 241 20 237 30.3330078125 237 43 c 2
 237 55 l 2
 237 68.3330078125 241 78.8330078125 249 86.5 c 0
 257 94.1669921875 267.333007812 98 280 98 c 0
 293.333007812 98 303.833007812 94.1669921875 311.5 86.5 c 0
 319.166992188 78.8330078125 323 68.3330078125 323 55 c 2
 323 43 l 2xe0
 323 30.3330078125 319.166992188 20 311.5 12 c 0
 303.833007812 4 293.333007812 0 280 0 c 0
EndSplineSet
Validated: 524289
EndChar

StartChar: quotedbl
Encoding: 34 34 5
Width: 560
GlyphClass: 1
Flags: W
HStem: 468 232<175.314 224.686 335.314 384.686>
VStem: 165 70<478.314 689.686> 325 70<478.314 689.686>
LayerCount: 2
Fore
SplineSet
360 468 m 0
 350 468 341.666992188 471.333007812 335 478 c 0
 328.333007812 484.666992188 325 493 325 503 c 2
 325 665 l 2
 325 675 328.333007812 683.333007812 335 690 c 0
 341.666992188 696.666992188 350 700 360 700 c 0
 370 700 378.333007812 696.666992188 385 690 c 0
 391.666992188 683.333007812 395 675 395 665 c 2
 395 503 l 2
 395 493 391.666992188 484.666992188 385 478 c 0
 378.333007812 471.333007812 370 468 360 468 c 0
200 468 m 0
 190 468 181.666992188 471.333007812 175 478 c 0
 168.333007812 484.666992188 165 493 165 503 c 2
 165 665 l 2
 165 675 168.333007812 683.333007812 175 690 c 0
 181.666992188 696.666992188 190 700 200 700 c 0
 210 700 218.333007812 696.666992188 225 690 c 0
 231.666992188 683.333007812 235 675 235 665 c 2
 235 503 l 2
 235 493 231.666992188 484.666992188 225 478 c 0
 218.333007812 471.333007812 210 468 200 468 c 0
EndSplineSet
Validated: 524289
EndChar

StartChar: numbersign
Encoding: 35 35 6
Width: 560
GlyphClass: 1
Flags: W
HStem: 0 21G<141 151 342 352> 200 70<40.8312 128.002 206.001 330 407 499.171> 430 70<60.8312 153.002 231.001 354.001 432 519.171> 680 20G<208.002 218.002 409.001 419.001>
VStem: 111.001 69.999<9.28223 96.7222> 178.002 70<603.278 691.233> 379.001 70<603.278 691.233>
LayerCount: 2
Fore
SplineSet
146 0 m 0xfa
 136 0 127.66796875 2.6669921875 121.000976562 8 c 0
 114.333984375 13.3330078125 111.000976562 20.3330078125 111.000976562 29 c 0xfa
 111.000976562 30.3330078125 110.833984375 31.5 110.500976562 32.5 c 0
 110.16796875 33.5 110.334960938 36 111.001953125 40 c 2
 128.001953125 200 l 1
 66.001953125 200 l 2
 56.001953125 200 47.501953125 203.333007812 40.501953125 210 c 0
 33.501953125 216.666992188 30.001953125 225 30.001953125 235 c 0
 30.001953125 245 33.501953125 253.333007812 40.501953125 260 c 0
 47.501953125 266.666992188 56.001953125 270 66.001953125 270 c 2
 135.001953125 270 l 1
 153.001953125 430 l 1
 86.001953125 430 l 2
 76.001953125 430 67.501953125 433.333007812 60.501953125 440 c 0
 53.501953125 446.666992188 50.001953125 455 50.001953125 465 c 0
 50.001953125 475 53.501953125 483.333007812 60.501953125 490 c 0
 67.501953125 496.666992188 76.001953125 500 86.001953125 500 c 2
 160.001953125 500 l 1
 178.001953125 669 l 2
 179.334960938 678.333007812 183.001953125 685.833007812 189.001953125 691.5 c 0
 195.001953125 697.166992188 203.001953125 700 213.001953125 700 c 0
 223.001953125 700 231.334960938 697.5 238.001953125 692.5 c 0
 244.668945312 687.5 248.001953125 680.333007812 248.001953125 671 c 0xf6
 248.001953125 670.333007812 248.168945312 669.333007812 248.501953125 668 c 0
 248.834960938 666.666992188 248.66796875 664 248.000976562 660 c 2
 231.000976562 500 l 1
 361.000976562 500 l 1
 379.000976562 669 l 2
 380.333984375 678.333007812 384.000976562 685.833007812 390.000976562 691.5 c 0
 396.000976562 697.166992188 404.000976562 700 414.000976562 700 c 0
 424.000976562 700 432.333984375 697.5 439.000976562 692.5 c 0
 445.66796875 687.5 449.000976562 680.333007812 449.000976562 671 c 0
 449.000976562 670.333007812 449.16796875 669.333007812 449.500976562 668 c 0
 449.833984375 666.666992188 449.666992188 664 449 660 c 2
 432 500 l 1
 494 500 l 2
 504 500 512.5 496.666992188 519.5 490 c 0
 526.5 483.333007812 530 475 530 465 c 0
 530 455 526.5 446.666992188 519.5 440 c 0
 512.5 433.333007812 504 430 494 430 c 2
 425 430 l 1
 407 270 l 1
 474 270 l 2
 484 270 492.5 266.666992188 499.5 260 c 0
 506.5 253.333007812 510 245 510 235 c 0
 510 225 506.5 216.666992188 499.5 210 c 0
 492.5 203.333007812 484 200 474 200 c 2
 400 200 l 1
 382 31 l 2
 381.333007812 22.3330078125 377.833007812 15 371.5 9 c 0
 365.166992188 3 357 0 347 0 c 0
 337 0 328.666992188 2.6669921875 322 8 c 0
 315.333007812 13.3330078125 312 20.3330078125 312 29 c 2
 312 32.5 l 2
 312 33.5 312.333007812 36 313 40 c 2
 330 200 l 1
 199 200 l 1
 181 31 l 2
 180.333007812 22.3330078125 176.833007812 15 170.5 9 c 0
 164.166992188 3 156 0 146 0 c 0xfa
206.000976562 270 m 1
 337.000976562 270 l 1
 354.000976562 430 l 1
 224.000976562 430 l 1
 206.000976562 270 l 1
EndSplineSet
Validated: 524289
EndChar

StartChar: dollar
Encoding: 36 36 7
Width: 560
GlyphClass: 1
Flags: W
HStem: -6.00098 70.001<189.073 256.002> 637 69.999<198.321 256.002>
VStem: 91.002 70<456.473 599.661> 256.002 70<-121.686 -3 69 301 407 630 704.451 822.685> 415.002 69.999<113.175 253.59>
LayerCount: 2
Fore
SplineSet
291 -132 m 0
 281 -132 272.668945312 -128.66796875 266.001953125 -122.000976562 c 0
 259.334960938 -115.333984375 256.001953125 -107.000976562 256.001953125 -97.0009765625 c 2
 256.001953125 -6.0009765625 l 1
 223.334960938 -2.66796875 192.001953125 6.4990234375 162.001953125 21.4990234375 c 0
 132.001953125 36.4990234375 106.668945312 57.33203125 86.001953125 83.9990234375 c 0
 78.6689453125 94.666015625 75.001953125 103.999023438 75.001953125 111.999023438 c 0
 75.001953125 121.33203125 78.501953125 129.33203125 85.501953125 135.999023438 c 0
 92.501953125 142.666015625 100.334960938 145.999023438 109.001953125 145.999023438 c 0
 121.001953125 145.999023438 132.001953125 139.999023438 142.001953125 127.999023438 c 0
 155.334960938 109.33203125 171.834960938 94.83203125 191.501953125 84.4990234375 c 0
 211.168945312 74.166015625 232.668945312 67.3330078125 256.001953125 64 c 1
 256.001953125 331 l 1
 218.001953125 347 l 2
 170.668945312 366.333007812 137.668945312 392.666015625 119.001953125 425.999023438 c 0
 100.334960938 459.33203125 91.001953125 495.33203125 91.001953125 533.999023438 c 0
 91.001953125 579.33203125 105.501953125 618.499023438 134.501953125 651.499023438 c 0
 163.501953125 684.499023438 204.001953125 702.999023438 256.001953125 706.999023438 c 1
 256.001953125 797.999023438 l 2
 256.001953125 807.999023438 259.334960938 816.33203125 266.001953125 822.999023438 c 0
 272.668945312 829.666015625 281.001953125 832.999023438 291.001953125 832.999023438 c 0
 301.001953125 832.999023438 309.334960938 829.666015625 316.001953125 822.999023438 c 0
 322.668945312 816.33203125 326.001953125 807.999023438 326.001953125 797.999023438 c 2
 326.001953125 701.999023438 l 1
 376.001953125 689.999023438 419.001953125 661.999023438 455.001953125 617.999023438 c 0
 458.334960938 613.33203125 461.16796875 608.83203125 463.500976562 604.499023438 c 0
 465.833984375 600.166015625 467.000976562 595.333007812 467.000976562 590 c 0
 467.000976562 580.666992188 463.333984375 572.666992188 456.000976562 566 c 0
 448.66796875 559.333007812 440.66796875 556 432.000976562 556 c 0
 420.000976562 556 409.000976562 562 399.000976562 574 c 0
 377.000976562 602 352.66796875 620.666992188 326.000976562 630 c 1
 326.000976562 378 l 1
 344.000976562 370 l 1
 438.000976562 332.666992188 485.000976562 271.666992188 485.000976562 187 c 0
 485.000976562 132.333007812 469.66796875 89 439.000976562 57 c 0
 408.333984375 25 370.666992188 5 326 -3 c 1
 326 -97 l 2
 326 -107 322.666992188 -115.333007812 316 -122 c 0
 309.333007812 -128.666992188 301 -132 291 -132 c 0
247.001953125 410.999023438 m 2
 256.001953125 407 l 1
 256.001953125 637 l 1
 223.334960938 633.666992188 199.334960938 622 184.001953125 602 c 0
 168.668945312 582 161.001953125 559.333007812 161.001953125 534 c 0
 161.001953125 509.333007812 166.668945312 486.166015625 178.001953125 464.499023438 c 0
 189.334960938 442.83203125 212.334960938 424.999023438 247.001953125 410.999023438 c 2
415.001953125 187 m 0
 415.001953125 213 408.001953125 235.16796875 394.001953125 253.500976562 c 0
 380.001953125 271.833984375 357.334960938 287.666992188 326.001953125 301 c 1
 326.001953125 69 l 1
 353.334960938 76.3330078125 375.001953125 90 391.001953125 110 c 0
 407.001953125 130 415.001953125 155.666992188 415.001953125 187 c 0
EndSplineSet
Validated: 524289
EndChar

StartChar: percent
Encoding: 37 37 8
Width: 560
GlyphClass: 1
Flags: W
HStem: -7.99805 53<348.807 435.193> 0.000976562 21G<55.998 64.3315> 261.001 53.001<348.807 435.193> 386 53.001<124.806 211.192> 655 53<124.806 211.192> 680 20G<496.333 504.666>
VStem: 50 52.998<465.566 629.024> 232.998 53.002<465.566 629.024> 274 53<71.5679 235.025> 457 53<71.5679 235.025>
LayerCount: 2
Fore
SplineSet
168 386 m 0x3b40
 130.666992188 386 101.666992188 401.166992188 81 431.5 c 0
 60.3330078125 461.833007812 50 500.333007812 50 547 c 0
 50 594.333007812 60.3330078125 633 81 663 c 0
 101.666992188 693 130.666992188 708 168 708 c 0
 205.333007812 708 234.333007812 693 255 663 c 0
 275.666992188 633 286 594.333007812 286 547 c 0
 286 500.333007812 275.666992188 461.833007812 255 431.5 c 0
 234.333007812 401.166992188 205.333007812 386 168 386 c 0x3b40
319 381 m 0
 311.666992188 381 305.33203125 383.500976562 299.999023438 388.500976562 c 0
 294.666015625 393.500976562 291.999023438 399.66796875 291.999023438 407.000976562 c 0
 291.999023438 412.333984375 293.666015625 417.666992188 296.999023438 423 c 2
 477.999023438 688 l 2
 483.999023438 696 491.666015625 700 500.999023438 700 c 0x3640
 508.33203125 700 514.499023438 697.5 519.499023438 692.5 c 0
 524.499023438 687.5 526.999023438 681.333007812 526.999023438 674 c 0
 526.999023438 668 525.666015625 662.666992188 522.999023438 658 c 2
 340.999023438 392 l 2
 335.666015625 384.666992188 328.333007812 381 319 381 c 0
167.998046875 439.000976562 m 0
 189.998046875 439.000976562 206.331054688 449.16796875 216.998046875 469.500976562 c 0
 227.665039062 489.833984375 232.998046875 515.666992188 232.998046875 547 c 0
 232.998046875 579 227.665039062 605 216.998046875 625 c 0
 206.331054688 645 189.998046875 655 167.998046875 655 c 0x3b40
 145.998046875 655 129.665039062 645 118.998046875 625 c 0
 108.331054688 605 102.998046875 579 102.998046875 547 c 0
 102.998046875 515.666992188 108.331054688 489.833984375 118.998046875 469.500976562 c 0
 129.665039062 449.16796875 145.998046875 439.000976562 167.998046875 439.000976562 c 0
59.998046875 0.0009765625 m 0x7240
 51.998046875 0.0009765625 45.5 2.6689453125 40.5 8.001953125 c 0
 35.5 13.3349609375 33 19.66796875 33 27.0009765625 c 0
 33 29.66796875 33.5 32.16796875 34.5 34.5009765625 c 0
 35.5 36.833984375 36.3330078125 39.333984375 37 42.0009765625 c 2
 219 308.000976562 l 2
 224.333007812 315.333984375 231.666015625 319.000976562 240.999023438 319.000976562 c 0
 248.33203125 319.000976562 254.665039062 316.500976562 259.998046875 311.500976562 c 0
 265.331054688 306.500976562 267.998046875 300.333984375 267.998046875 293.000976562 c 0
 267.998046875 287.66796875 266.331054688 282.66796875 262.998046875 278.000976562 c 2
 81.998046875 12.0009765625 l 2
 75.998046875 4.0009765625 68.6650390625 0.0009765625 59.998046875 0.0009765625 c 0x7240
392 -7.998046875 m 0xb2c0
 354.666992188 -7.998046875 325.666992188 7.1689453125 305 37.501953125 c 0
 284.333007812 67.8349609375 274 106.334960938 274 153.001953125 c 0
 274 200.334960938 284.333007812 239.001953125 305 269.001953125 c 0
 325.666992188 299.001953125 354.666992188 314.001953125 392 314.001953125 c 0
 429.333007812 314.001953125 458.333007812 299.001953125 479 269.001953125 c 0
 499.666992188 239.001953125 510 200.334960938 510 153.001953125 c 0
 510 106.334960938 499.666992188 67.8349609375 479 37.501953125 c 0
 458.333007812 7.1689453125 429.333007812 -7.998046875 392 -7.998046875 c 0xb2c0
392 45.001953125 m 0
 414 45.001953125 430.333007812 55.1689453125 441 75.501953125 c 0
 451.666992188 95.8349609375 457 121.66796875 457 153.000976562 c 0
 457 185.000976562 451.666992188 211.000976562 441 231.000976562 c 0
 430.333007812 251.000976562 414 261.000976562 392 261.000976562 c 0
 370 261.000976562 353.666992188 251.000976562 343 231.000976562 c 0
 332.333007812 211.000976562 327 185.000976562 327 153.000976562 c 0
 327 121.66796875 332.333007812 95.8349609375 343 75.501953125 c 0
 353.666992188 55.1689453125 370 45.001953125 392 45.001953125 c 0
EndSplineSet
Validated: 524289
EndChar

StartChar: ampersand
Encoding: 38 38 9
Width: 560
GlyphClass: 1
Flags: W
HStem: -7 69.998<179.499 324.602> 637.998 70<224.453 338.841>
VStem: 55.9971 70<119.505 285.529> 125.997 70.001<442.711 608.042> 358.997 70.001<492.946 616.073> 419.999 70<187.379 305.686>
LayerCount: 2
Fore
SplineSet
249 -7 m 0xc4
 216.333007812 -7 185.1640625 1.3310546875 155.497070312 17.998046875 c 0
 125.830078125 34.6650390625 101.830078125 58.6650390625 83.4970703125 89.998046875 c 0
 65.1640625 121.331054688 55.9970703125 158.998046875 55.9970703125 202.998046875 c 0xe4
 55.9970703125 242.998046875 64.830078125 279.665039062 82.4970703125 312.998046875 c 0
 100.1640625 346.331054688 126.997070312 374.331054688 162.997070312 396.998046875 c 1
 148.997070312 424.331054688 139.330078125 449.498046875 133.997070312 472.498046875 c 0
 128.6640625 495.498046875 125.997070312 516.998046875 125.997070312 536.998046875 c 0
 125.997070312 568.331054688 132.330078125 596.998046875 144.997070312 622.998046875 c 0
 157.6640625 648.998046875 175.831054688 669.665039062 199.498046875 684.998046875 c 0
 223.165039062 700.331054688 250.998046875 707.998046875 282.998046875 707.998046875 c 0
 312.998046875 707.998046875 338.831054688 701.331054688 360.498046875 687.998046875 c 0
 382.165039062 674.665039062 398.998046875 656.83203125 410.998046875 634.499023438 c 0
 422.998046875 612.166015625 428.998046875 587.333007812 428.998046875 560 c 0xd8
 428.998046875 516 416.831054688 479.666992188 392.498046875 451 c 0
 368.165039062 422.333007812 338.33203125 400.333007812 302.999023438 385 c 2
 262.999023438 368 l 1
 265.666015625 364 268.999023438 359.333007812 272.999023438 354 c 2
 401.999023438 185 l 1
 413.999023438 215 419.999023438 247 419.999023438 281 c 0
 419.999023438 291 423.33203125 299.333007812 429.999023438 306 c 0
 436.666015625 312.666992188 444.999023438 316 454.999023438 316 c 0
 464.999023438 316 473.33203125 312.666992188 479.999023438 306 c 0
 486.666015625 299.333007812 489.999023438 291 489.999023438 281 c 0
 489.999023438 222.333007812 476.666015625 169.333007812 449.999023438 122 c 1
 507.999023438 47 l 2
 510.666015625 43.6669921875 512.333007812 40.5 513 37.5 c 0
 513.666992188 34.5 514 31.3330078125 514 28 c 0
 514 18.6669921875 510.333007812 10.6669921875 503 4 c 0
 495.666992188 -2.6669921875 487.333984375 -6 478.000976562 -6 c 0
 466.000976562 -6 455.000976562 0.3330078125 445.000976562 13 c 2
 407.000976562 63 l 1
 386.333984375 41.6669921875 362.666992188 24.6669921875 336 12 c 0
 309.333007812 -0.6669921875 280.333007812 -7 249 -7 c 0xc4
195.998046875 536.998046875 m 0xd8
 195.998046875 502.331054688 205.6640625 465.663085938 224.997070312 426.99609375 c 1
 284.997070312 451.99609375 l 2
 308.330078125 461.99609375 326.497070312 476.829101562 339.497070312 496.49609375 c 0
 352.497070312 516.163085938 358.997070312 537.330078125 358.997070312 559.997070312 c 0
 358.997070312 580.6640625 352.830078125 598.831054688 340.497070312 614.498046875 c 0
 328.1640625 630.165039062 308.997070312 637.998046875 282.997070312 637.998046875 c 0
 253.6640625 637.998046875 231.831054688 627.998046875 217.498046875 607.998046875 c 0
 203.165039062 587.998046875 195.998046875 564.331054688 195.998046875 536.998046875 c 0xd8
125.997070312 202.997070312 m 0xe0
 125.997070312 162.330078125 137.330078125 128.831054688 159.997070312 102.498046875 c 0
 182.6640625 76.1650390625 212.331054688 62.998046875 248.998046875 62.998046875 c 0
 272.998046875 62.998046875 294.665039062 68.1650390625 313.998046875 78.498046875 c 0
 333.331054688 88.8310546875 349.998046875 102.331054688 363.998046875 118.998046875 c 1
 222.998046875 303.998046875 l 2
 218.331054688 309.331054688 214.1640625 314.831054688 210.497070312 320.498046875 c 0
 206.830078125 326.165039062 202.997070312 331.665039062 198.997070312 336.998046875 c 1
 173.6640625 320.331054688 155.1640625 300.6640625 143.497070312 277.997070312 c 0
 131.830078125 255.330078125 125.997070312 230.330078125 125.997070312 202.997070312 c 0xe0
EndSplineSet
Validated: 524289
EndChar

StartChar: quotesingle
Encoding: 39 39 10
Width: 560
GlyphClass: 1
Flags: W
HStem: 468 232<255.314 304.686>
VStem: 245 70<478.314 689.686>
LayerCount: 2
Fore
SplineSet
280 468 m 0
 270 468 261.666992188 471.333007812 255 478 c 0
 248.333007812 484.666992188 245 493 245 503 c 2
 245 665 l 2
 245 675 248.333007812 683.333007812 255 690 c 0
 261.666992188 696.666992188 270 700 280 700 c 0
 290 700 298.333007812 696.666992188 305 690 c 0
 311.666992188 683.333007812 315 675 315 665 c 2
 315 503 l 2
 315 493 311.666992188 484.666992188 305 478 c 0
 298.333007812 471.333007812 290 468 280 468 c 0
EndSplineSet
Validated: 524289
EndChar

StartChar: parenleft
Encoding: 40 40 11
Width: 560
GlyphClass: 1
Flags: W
HStem: 688 20G<395.333 404.667>
VStem: 185 70<129.276 429.663>
LayerCount: 2
Fore
SplineSet
400 -150 m 0
 391.333007812 -150 383.666992188 -146.665039062 377 -139.998046875 c 0
 341.666992188 -107.331054688 309.5 -70.3310546875 280.5 -28.998046875 c 0
 251.5 12.3349609375 228.333007812 58.66796875 211 110.000976562 c 0
 193.666992188 161.333984375 185 217.666992188 185 279 c 0
 185 341 193.666992188 397.666992188 211 449 c 0
 228.333007812 500.333007812 251.5 546.833007812 280.5 588.5 c 0
 309.5 630.166992188 341.666992188 667 377 699 c 0
 383 705 390.666992188 708 400 708 c 0
 409.333007812 708 417.5 704.666992188 424.5 698 c 0
 431.5 691.333007812 435 683 435 673 c 0
 435 661.666992188 431.333007812 653 424 647 c 0
 375.333007812 603 335 551.333007812 303 492 c 0
 271 432.666992188 255 361.666992188 255 279 c 0
 255 197 271 126.333007812 303 67 c 0
 335 7.6669921875 375.333007812 -44.3330078125 424 -89 c 0
 431.333007812 -95 435 -103.666992188 435 -115 c 0
 435 -124.333007812 431.5 -132.5 424.5 -139.5 c 0
 417.5 -146.5 409.333007812 -150 400 -150 c 0
EndSplineSet
Validated: 524289
Substitution2: "'case' Case-Sensitive Forms in Latin lookup 47 subtable" parenleft.case
Substitution2: "'aalt' Access All Alternates in Latin lookup 0 subtable" parenleft.case
EndChar

StartChar: parenright
Encoding: 41 41 12
Width: 560
GlyphClass: 1
Flags: W
VStem: 305 70<129.276 429.663>
LayerCount: 2
Fore
SplineSet
160 -150 m 0
 168.666992188 -150 176.333007812 -146.665039062 183 -139.998046875 c 0
 218.333007812 -107.331054688 250.5 -70.3310546875 279.5 -28.998046875 c 0
 308.5 12.3349609375 331.666992188 58.66796875 349 110.000976562 c 0
 366.333007812 161.333984375 375 217.666992188 375 279 c 0
 375 341 366.333007812 397.666992188 349 449 c 0
 331.666992188 500.333007812 308.5 546.833007812 279.5 588.5 c 0
 250.5 630.166992188 218.333007812 667 183 699 c 0
 177 705 169.333007812 708 160 708 c 0
 150.666992188 708 142.5 704.666992188 135.5 698 c 0
 128.5 691.333007812 125 683 125 673 c 0
 125 661.666992188 128.666992188 653 136 647 c 0
 184.666992188 603 225 551.333007812 257 492 c 0
 289 432.666992188 305 361.666992188 305 279 c 0
 305 197 289 126.333007812 257 67 c 0
 225 7.6669921875 184.666992188 -44.3330078125 136 -89 c 0
 128.666992188 -95 125 -103.666992188 125 -115 c 0
 125 -124.333007812 128.5 -132.5 135.5 -139.5 c 0
 142.5 -146.5 150.666992188 -150 160 -150 c 0
EndSplineSet
Validated: 524297
Substitution2: "'case' Case-Sensitive Forms in Latin lookup 47 subtable" parenright.case
Substitution2: "'aalt' Access All Alternates in Latin lookup 0 subtable" parenright.case
EndChar

StartChar: asterisk
Encoding: 42 42 13
Width: 560
GlyphClass: 1
Flags: W
HStem: 548.001 69<132.836 176.273 383.727 427.164> 680.001 20G<275 285>
VStem: 245 70<592.001 689.687>
LayerCount: 2
Fore
SplineSet
210 411 m 0
 200.666992188 411 192.166992188 414.5 184.5 421.5 c 0
 176.833007812 428.5 173 437 173 447 c 0
 173 453.666992188 175.333007812 460.333984375 180 467.000976562 c 2
 224 526.000976562 l 1
 154 548.000976562 l 2
 138 554.000976562 130 565.333984375 130 582.000976562 c 0
 130 590.66796875 133.333007812 598.66796875 140 606.000976562 c 0
 146.666992188 613.333984375 154.666992188 617.000976562 164 617.000976562 c 2
 169 617.000976562 l 2
 171 617.000976562 173.333007812 616.333984375 176 615.000976562 c 2
 245 592.000976562 l 1
 245 665.000976562 l 2
 245 675.000976562 248.333007812 683.333984375 255 690.000976562 c 0
 261.666992188 696.66796875 270 700.000976562 280 700.000976562 c 0
 290 700.000976562 298.333007812 696.66796875 305 690.000976562 c 0
 311.666992188 683.333984375 315 675.000976562 315 665.000976562 c 2
 315 592.000976562 l 1
 384 615.000976562 l 2
 386.666992188 616.333984375 389.166992188 617.000976562 391.5 617.000976562 c 2
 396 617.000976562 l 2
 405.333007812 617.000976562 413.333007812 613.333984375 420 606.000976562 c 0
 426.666992188 598.66796875 430 590.66796875 430 582.000976562 c 0
 430 565.333984375 422 554.000976562 406 548.000976562 c 2
 336 526.000976562 l 1
 380 467.000976562 l 2
 384.666992188 460.333984375 387 453.666992188 387 447 c 0
 387 437 383.166992188 428.5 375.5 421.5 c 0
 367.833007812 414.5 359.333007812 411 350 411 c 0
 339.333007812 411 330.333007812 415.666992188 323 425 c 2
 280 485 l 1
 237 425 l 2
 229.666992188 415.666992188 220.666992188 411 210 411 c 0
EndSplineSet
Validated: 524289
EndChar

StartChar: plus
Encoding: 43 43 14
Width: 560
GlyphClass: 1
Flags: W
HStem: 215 70<120.829 245 315 439.171>
VStem: 245 70<90.8292 215 285 409.171>
LayerCount: 2
Fore
SplineSet
146 215 m 2
 136 215 127.5 218.333007812 120.5 225 c 0
 113.5 231.666992188 110 240 110 250 c 0
 110 260 113.5 268.333007812 120.5 275 c 0
 127.5 281.666992188 136 285 146 285 c 2
 245 285 l 1
 245 384 l 2
 245 394 248.333007812 402.5 255 409.5 c 0
 261.666992188 416.5 270 420 280 420 c 0
 290 420 298.333007812 416.5 305 409.5 c 0
 311.666992188 402.5 315 394 315 384 c 2
 315 285 l 1
 414 285 l 2
 424 285 432.5 281.666992188 439.5 275 c 0
 446.5 268.333007812 450 260 450 250 c 0
 450 240 446.5 231.666992188 439.5 225 c 0
 432.5 218.333007812 424 215 414 215 c 2
 315 215 l 1
 315 116 l 2
 315 106 311.666992188 97.5 305 90.5 c 0
 298.333007812 83.5 290 80 280 80 c 0
 270 80 261.666992188 83.5 255 90.5 c 0
 248.333007812 97.5 245 106 245 116 c 2
 245 215 l 1
 146 215 l 2
EndSplineSet
Validated: 524289
EndChar

StartChar: comma
Encoding: 44 44 15
Width: 560
GlyphClass: 1
Flags: W
HStem: -108 70<157.314 245>
VStem: 245 70<-38 87.6863>
LayerCount: 2
Fore
SplineSet
182 -108 m 2
 172 -108 163.666992188 -104.666992188 157 -98 c 0
 150.333007812 -91.3330078125 147 -83 147 -73 c 0
 147 -63 150.333007812 -54.6669921875 157 -48 c 0
 163.666992188 -41.3330078125 172 -38 182 -38 c 2
 245 -38 l 1
 245 63 l 2
 245 73 248.333007812 81.3330078125 255 88 c 0
 261.666992188 94.6669921875 270 98 280 98 c 0
 290 98 298.333007812 94.6669921875 305 88 c 0
 311.666992188 81.3330078125 315 73 315 63 c 2
 315 -73 l 2
 315 -83 311.666992188 -91.3330078125 305 -98 c 0
 298.333007812 -104.666992188 290 -108 280 -108 c 2
 182 -108 l 2
EndSplineSet
Validated: 524289
EndChar

StartChar: hyphen
Encoding: 45 45 16
Width: 560
GlyphClass: 1
Flags: W
HStem: 215 70<162.314 398.202>
VStem: 152 256<225.314 274.686>
LayerCount: 2
Fore
SplineSet
187 215 m 6
 177 215 168.666992188 218.333007812 162 225 c 4
 155.333007812 231.666992188 152 240 152 250 c 4
 152 260 155.333007812 268.333007812 162 275 c 4
 168.666992188 281.666992188 177 285 187 285 c 6
 373 285 l 2
 383.666992188 285 392.166992188 281.666992188 398.5 275 c 0
 404.833007812 268.333007812 408 260 408 250 c 0
 408 240 404.833007812 231.666992188 398.5 225 c 0
 392.166992188 218.333007812 383.666992188 215 373 215 c 2
 187 215 l 6
EndSplineSet
Validated: 524289
Substitution2: "Single Substitution lookup 55 subtable" hyphen.case
Substitution2: "Single Substitution lookup 54 subtable" hyphen.case
Substitution2: "'case' Case-Sensitive Forms in Latin lookup 47 subtable" hyphen.case
Substitution2: "'aalt' Access All Alternates in Latin lookup 0 subtable" hyphen.case
EndChar

StartChar: period
Encoding: 46 46 17
Width: 560
GlyphClass: 1
Flags: W
HStem: 0 98<249.377 311.139>
VStem: 237 86<12.3767 86.1385>
LayerCount: 2
Fore
SplineSet
280 0 m 0
 267.333007812 0 257 4 249 12 c 0
 241 20 237 30.3330078125 237 43 c 2
 237 55 l 2
 237 68.3330078125 241 78.8330078125 249 86.5 c 0
 257 94.1669921875 267.333007812 98 280 98 c 0
 293.333007812 98 303.833007812 94.1669921875 311.5 86.5 c 0
 319.166992188 78.8330078125 323 68.3330078125 323 55 c 2
 323 43 l 2
 323 30.3330078125 319.166992188 20 311.5 12 c 0
 303.833007812 4 293.333007812 0 280 0 c 0
EndSplineSet
Validated: 524289
EndChar

StartChar: slash
Encoding: 47 47 18
Width: 560
GlyphClass: 1
Flags: W
HStem: 679.999 20G<397 410.667>
VStem: 120 320
LayerCount: 2
Fore
SplineSet
156 -108 m 0
 145.333007812 -108 136.666992188 -104.500976562 130 -97.5009765625 c 0
 123.333007812 -90.5009765625 120 -82.333984375 120 -73.0009765625 c 0
 120 -68.333984375 121 -63.0009765625 123 -57.0009765625 c 2
 372 674.999023438 l 2
 378 691.666015625 389 699.999023438 405 699.999023438 c 0
 416.333007812 699.999023438 425 696.499023438 431 689.499023438 c 0
 437 682.499023438 440 674.33203125 440 664.999023438 c 0
 440 659.666015625 439 654.333007812 437 649 c 2
 188 -83 l 2
 182.666992188 -99.6669921875 172 -108 156 -108 c 0
EndSplineSet
Validated: 524289
Substitution2: "Single Substitution lookup 15 subtable" fraction
Substitution2: "'aalt' Access All Alternates in Latin lookup 0 subtable" fraction
EndChar

StartChar: zero
Encoding: 48 48 19
Width: 560
GlyphClass: 1
Flags: W
HStem: -8 70<214.501 345.499> 271 158<249.377 310.623> 637.999 70.002<214.501 345.499>
VStem: 61.999 70.001<182.357 517.91> 237 86<283.377 416.623> 428 70.001<182.357 517.91>
CounterMasks: 1 1c
LayerCount: 2
Fore
SplineSet
280 -8 m 0
 242 -8 209.166992188 1.6669921875 181.5 21 c 0
 153.833007812 40.3330078125 131.166015625 66.8330078125 113.499023438 100.5 c 0
 95.83203125 134.166992188 82.83203125 172.5 74.4990234375 215.5 c 0
 66.166015625 258.5 61.9990234375 303.333007812 61.9990234375 350 c 0
 61.9990234375 397.333007812 66.166015625 442.333007812 74.4990234375 485 c 0
 82.83203125 527.666992188 95.83203125 565.833984375 113.499023438 599.500976562 c 0
 131.166015625 633.16796875 153.833007812 659.66796875 181.5 679.000976562 c 0
 209.166992188 698.333984375 242 708.000976562 280 708.000976562 c 0
 318 708.000976562 350.833007812 698.333984375 378.5 679.000976562 c 0
 406.166992188 659.66796875 428.833984375 633.16796875 446.500976562 599.500976562 c 0
 464.16796875 565.833984375 477.16796875 527.666992188 485.500976562 485 c 0
 493.833984375 442.333007812 498.000976562 397.333007812 498.000976562 350 c 0
 498.000976562 303.333007812 493.833984375 258.5 485.500976562 215.5 c 0
 477.16796875 172.5 464.16796875 134.166992188 446.500976562 100.5 c 0
 428.833984375 66.8330078125 406.166992188 40.3330078125 378.5 21 c 0
 350.833007812 1.6669921875 318 -8 280 -8 c 0
280 62 m 0
 306.666992188 62 329.5 70 348.5 86 c 0
 367.5 102 382.833007812 123.5 394.5 150.5 c 0
 406.166992188 177.5 414.666992188 208.333007812 420 243 c 0
 425.333007812 277.666992188 428 313.333984375 428 350.000976562 c 0
 428 387.333984375 425.333007812 423.166992188 420 457.5 c 0
 414.666992188 491.833007812 406.166992188 522.666015625 394.5 549.999023438 c 0
 382.833007812 577.33203125 367.5 598.83203125 348.5 614.499023438 c 0
 329.5 630.166015625 306.666992188 637.999023438 280 637.999023438 c 0
 253.333007812 637.999023438 230.5 630.166015625 211.5 614.499023438 c 0
 192.5 598.83203125 177.166992188 577.33203125 165.5 549.999023438 c 0
 153.833007812 522.666015625 145.333007812 491.833007812 140 457.5 c 0
 134.666992188 423.166992188 132 387.333984375 132 350.000976562 c 0
 132 313.333984375 134.666992188 277.666992188 140 243 c 0
 145.333007812 208.333007812 153.833007812 177.5 165.5 150.5 c 0
 177.166992188 123.5 192.5 102 211.5 86 c 0
 230.5 70 253.333007812 62 280 62 c 0
280 271 m 0
 267.333007812 271 257 275 249 283 c 0
 241 291 237 301.333007812 237 314 c 2
 237 386 l 2
 237 398.666992188 241 409 249 417 c 0
 257 425 267.333007812 429 280 429 c 0
 292.666992188 429 303 425 311 417 c 0
 319 409 323 398.666992188 323 386 c 2
 323 314 l 2
 323 301.333007812 319 291 311 283 c 0
 303 275 292.666992188 271 280 271 c 0
EndSplineSet
Validated: 524289
Substitution2: "'tnum' Tabular Numbers in Latin lookup 45 subtable" zero.tf
Substitution2: "'onum' Oldstyle Figures in Latin lookup 44 subtable" zero.osf
Substitution2: "Single Substitution lookup 37 subtable" zero.dnom
Substitution2: "Single Substitution lookup 35 subtable" zero.numr
Substitution2: "Single Substitution lookup 33 subtable" zero.numr
Substitution2: "Single Substitution lookup 31 subtable" zero.numr
Substitution2: "Single Substitution lookup 29 subtable" zero.numr
Substitution2: "Single Substitution lookup 27 subtable" zero.numr
Substitution2: "Single Substitution lookup 25 subtable" zero.numr
Substitution2: "Single Substitution lookup 23 subtable" zero.numr
Substitution2: "Single Substitution lookup 21 subtable" zero.numr
Substitution2: "Single Substitution lookup 19 subtable" zero.numr
Substitution2: "Single Substitution lookup 17 subtable" zero.numr
Substitution2: "'dnom' Denominators in Latin lookup 13 subtable" zero.dnom
Substitution2: "'numr' Numerators in Latin lookup 12 subtable" zero.numr
Substitution2: "'sups' Superscript in Latin lookup 11 subtable" uni2070
Substitution2: "'subs' Subscript in Latin lookup 10 subtable" uni2080
AlternateSubs2: "'aalt' Access All Alternates in Latin lookup 1 subtable" uni2070 uni2080 zero.numr zero.dnom zero.osf zero.tf
EndChar

StartChar: one
Encoding: 49 49 20
Width: 560
GlyphClass: 1
Flags: W
HStem: 0 70<93.3137 263 333 482.686> 680 20G<291.333 302.333>
VStem: 263 70<70 583>
LayerCount: 2
Fore
SplineSet
118 0 m 2
 108 0 99.6669921875 3.3330078125 93 10 c 0
 86.3330078125 16.6669921875 83 25 83 35 c 0
 83 45 86.3330078125 53.3330078125 93 60 c 0
 99.6669921875 66.6669921875 108 70 118 70 c 2
 263 70 l 1
 263 583 l 1
 158 478 l 2
 150 470 141.666992188 466 133 466 c 0
 122.333007812 466 113.666015625 469.666992188 106.999023438 477 c 0
 100.33203125 484.333007812 96.9990234375 492.333007812 96.9990234375 501 c 0
 96.9990234375 505 97.83203125 509.5 99.4990234375 514.5 c 0
 101.166015625 519.5 103.999023438 524 107.999023438 528 c 2
 269.999023438 690 l 2
 276.666015625 696.666992188 285.666015625 700 296.999023438 700 c 0
 307.666015625 700 316.333007812 696.666992188 323 690 c 0
 329.666992188 683.333007812 333 674.333007812 333 663 c 2
 333 70 l 1
 458 70 l 2
 468 70 476.333007812 66.6669921875 483 60 c 0
 489.666992188 53.3330078125 493 45 493 35 c 0
 493 25 489.666992188 16.6669921875 483 10 c 0
 476.333007812 3.3330078125 468 0 458 0 c 2
 118 0 l 2
EndSplineSet
Validated: 524289
Substitution2: "'tnum' Tabular Numbers in Latin lookup 45 subtable" one.tf
Substitution2: "'onum' Oldstyle Figures in Latin lookup 44 subtable" one.osf
Substitution2: "Single Substitution lookup 37 subtable" one.dnom
Substitution2: "Single Substitution lookup 35 subtable" one.numr
Substitution2: "Single Substitution lookup 33 subtable" one.numr
Substitution2: "Single Substitution lookup 31 subtable" one.numr
Substitution2: "Single Substitution lookup 29 subtable" one.numr
Substitution2: "Single Substitution lookup 27 subtable" one.numr
Substitution2: "Single Substitution lookup 25 subtable" one.numr
Substitution2: "Single Substitution lookup 23 subtable" one.numr
Substitution2: "Single Substitution lookup 21 subtable" one.numr
Substitution2: "Single Substitution lookup 19 subtable" one.numr
Substitution2: "Single Substitution lookup 17 subtable" one.numr
Substitution2: "'dnom' Denominators in Latin lookup 13 subtable" one.dnom
Substitution2: "'numr' Numerators in Latin lookup 12 subtable" one.numr
Substitution2: "'sups' Superscript in Latin lookup 11 subtable" onesuperior
Substitution2: "'subs' Subscript in Latin lookup 10 subtable" uni2081
AlternateSubs2: "'aalt' Access All Alternates in Latin lookup 1 subtable" onesuperior uni2081 one.numr one.dnom one.osf one.tf
EndChar

StartChar: two
Encoding: 50 50 21
Width: 560
GlyphClass: 1
Flags: W
HStem: 0 70<169 457.686> 638 69.998<204.498 359.265>
VStem: 99 70<70 167.608> 394 69.999<463.978 603.417>
LayerCount: 2
Fore
SplineSet
134 0 m 2
 124 0 115.666992188 3.33203125 109 9.9990234375 c 0
 102.333007812 16.666015625 99 24.9990234375 99 34.9990234375 c 2
 99 101.999023438 l 2
 99 127.999023438 103.333007812 150.83203125 112 170.499023438 c 0
 120.666992188 190.166015625 132.5 208.333007812 147.5 225 c 0
 162.5 241.666992188 178.666992188 259 196 277 c 2
 311 391 l 2
 342.333007812 422.333007812 364 448.833007812 376 470.5 c 0
 388 492.166992188 394 515.666992188 394 541 c 0
 394 568.333007812 385 591.333007812 367 610 c 0
 349 628.666992188 321 638 283 638 c 0
 257 638 234.333007812 632.833007812 215 622.5 c 0
 195.666992188 612.166992188 177.333984375 596 160.000976562 574 c 0
 150.000976562 562 139.333984375 556 128.000976562 556 c 0
 119.333984375 556 111.333984375 559.333007812 104.000976562 566 c 0
 96.66796875 572.666992188 93.0009765625 580.666992188 93.0009765625 590 c 0
 93.0009765625 599.333007812 96.66796875 608.666015625 104.000976562 617.999023438 c 0
 127.333984375 647.33203125 154.166992188 669.665039062 184.5 684.998046875 c 0
 214.833007812 700.331054688 247.666015625 707.998046875 282.999023438 707.998046875 c 0
 339.666015625 707.998046875 383.999023438 692.165039062 415.999023438 660.498046875 c 0
 447.999023438 628.831054688 463.999023438 588.998046875 463.999023438 540.998046875 c 0
 463.999023438 501.665039062 455.33203125 467.165039062 437.999023438 437.498046875 c 0
 420.666015625 407.831054688 394.333007812 375.331054688 359 339.998046875 c 2
 244 226.998046875 l 2
 216 199.665039062 196.5 177.33203125 185.5 159.999023438 c 0
 174.5 142.666015625 169 123.333007812 169 102 c 2
 169 70 l 1
 433 70 l 2
 443 70 451.333007812 66.6669921875 458 60 c 0
 464.666992188 53.3330078125 468 45 468 35 c 0
 468 25 464.666992188 16.6669921875 458 10 c 0
 451.333007812 3.3330078125 443 0 433 0 c 2
 134 0 l 2
EndSplineSet
Validated: 524289
Substitution2: "'tnum' Tabular Numbers in Latin lookup 45 subtable" two.tf
Substitution2: "'onum' Oldstyle Figures in Latin lookup 44 subtable" two.osf
Substitution2: "Single Substitution lookup 37 subtable" two.dnom
Substitution2: "Single Substitution lookup 35 subtable" two.numr
Substitution2: "Single Substitution lookup 33 subtable" two.numr
Substitution2: "Single Substitution lookup 31 subtable" two.numr
Substitution2: "Single Substitution lookup 29 subtable" two.numr
Substitution2: "Single Substitution lookup 27 subtable" two.numr
Substitution2: "Single Substitution lookup 25 subtable" two.numr
Substitution2: "Single Substitution lookup 23 subtable" two.numr
Substitution2: "Single Substitution lookup 21 subtable" two.numr
Substitution2: "Single Substitution lookup 19 subtable" two.numr
Substitution2: "Single Substitution lookup 17 subtable" two.numr
Substitution2: "'dnom' Denominators in Latin lookup 13 subtable" two.dnom
Substitution2: "'numr' Numerators in Latin lookup 12 subtable" two.numr
Substitution2: "'sups' Superscript in Latin lookup 11 subtable" twosuperior
Substitution2: "'subs' Subscript in Latin lookup 10 subtable" uni2082
AlternateSubs2: "'aalt' Access All Alternates in Latin lookup 1 subtable" twosuperior uni2082 two.numr two.dnom two.osf two.tf
EndChar

StartChar: three
Encoding: 51 51 22
Width: 560
GlyphClass: 1
Flags: W
HStem: -8 70.0029<188.232 347.944> 326.003 70<179.314 317.066> 638.004 69.998<196.488 335.803>
VStem: 373.999 70.001<453.658 597.42> 398 70<114.488 268.571>
LayerCount: 2
Fore
SplineSet
273 -8 m 0xf0
 235.666992188 -8 201.666992188 -0.83203125 171 13.5009765625 c 0
 140.333007812 27.833984375 112 49.333984375 86 78.0009765625 c 0
 76.6669921875 88.66796875 72 98.3349609375 72 107.001953125 c 0
 72 117.668945312 75.5 126.3359375 82.5 133.002929688 c 0
 89.5 139.669921875 97.6669921875 143.002929688 107 143.002929688 c 0
 113.666992188 143.002929688 119.666992188 141.169921875 125 137.502929688 c 0
 130.333007812 133.8359375 135.333007812 129.3359375 140 124.002929688 c 0
 157.333007812 104.002929688 177 88.669921875 199 78.0029296875 c 0
 221 67.3359375 245.666992188 62.0029296875 273 62.0029296875 c 0
 313.666992188 62.0029296875 344.666992188 74.8359375 366 100.502929688 c 0
 387.333007812 126.169921875 398 157.002929688 398 193.002929688 c 0xe8
 398 233.002929688 384.666992188 265.169921875 358 289.502929688 c 0
 331.333007812 313.8359375 294.333007812 326.002929688 247 326.002929688 c 2
 204 326.002929688 l 2
 194 326.002929688 185.666992188 329.169921875 179 335.502929688 c 0
 172.333007812 341.8359375 168.666015625 350.3359375 167.999023438 361.002929688 c 0
 167.999023438 371.002929688 171.33203125 379.3359375 177.999023438 386.002929688 c 0
 184.666015625 392.669921875 192.999023438 396.002929688 202.999023438 396.002929688 c 2
 230.999023438 396.002929688 l 2
 277.666015625 396.002929688 313.166015625 408.8359375 337.499023438 434.502929688 c 0
 361.83203125 460.169921875 373.999023438 491.336914062 373.999023438 528.00390625 c 0
 373.999023438 557.336914062 364.999023438 583.00390625 346.999023438 605.00390625 c 0
 328.999023438 627.00390625 301.999023438 638.00390625 265.999023438 638.00390625 c 0
 241.999023438 638.00390625 221.83203125 632.836914062 205.499023438 622.50390625 c 0
 189.166015625 612.170898438 172.333007812 596.00390625 155 574.00390625 c 0
 145 562.00390625 134 556.00390625 122 556.00390625 c 0
 113.333007812 556.00390625 105.333007812 559.336914062 98 566.00390625 c 0
 90.6669921875 572.670898438 87 580.670898438 87 590.00390625 c 0
 87 595.336914062 88.1669921875 600.169921875 90.5 604.502929688 c 0
 92.8330078125 608.8359375 95.666015625 613.3359375 98.9990234375 618.002929688 c 0
 122.33203125 647.3359375 147.83203125 669.668945312 175.499023438 685.001953125 c 0
 203.166015625 700.334960938 233.333007812 708.001953125 266 708.001953125 c 0
 302.666992188 708.001953125 334.166992188 699.834960938 360.5 683.501953125 c 0
 386.833007812 667.168945312 407.333007812 645.668945312 422 619.001953125 c 0
 436.666992188 592.334960938 444 563.001953125 444 531.001953125 c 0xf0
 444 498.334960938 435.5 466.16796875 418.5 434.500976562 c 0
 401.5 402.833984375 374.666992188 379.666992188 338 365 c 1
 382 351.666992188 414.666992188 329.666992188 436 299 c 0
 457.333007812 268.333007812 468 232.333007812 468 191 c 0xe8
 468 155 460 121.833007812 444 91.5 c 0
 428 61.1669921875 405.5 37 376.5 19 c 0
 347.5 1 313 -8 273 -8 c 0xf0
EndSplineSet
Validated: 524289
Substitution2: "'tnum' Tabular Numbers in Latin lookup 45 subtable" three.tf
Substitution2: "'onum' Oldstyle Figures in Latin lookup 44 subtable" three.osf
Substitution2: "Single Substitution lookup 37 subtable" three.dnom
Substitution2: "Single Substitution lookup 35 subtable" three.numr
Substitution2: "Single Substitution lookup 33 subtable" three.numr
Substitution2: "Single Substitution lookup 31 subtable" three.numr
Substitution2: "Single Substitution lookup 29 subtable" three.numr
Substitution2: "Single Substitution lookup 27 subtable" three.numr
Substitution2: "Single Substitution lookup 25 subtable" three.numr
Substitution2: "Single Substitution lookup 23 subtable" three.numr
Substitution2: "Single Substitution lookup 21 subtable" three.numr
Substitution2: "Single Substitution lookup 19 subtable" three.numr
Substitution2: "Single Substitution lookup 17 subtable" three.numr
Substitution2: "'dnom' Denominators in Latin lookup 13 subtable" three.dnom
Substitution2: "'numr' Numerators in Latin lookup 12 subtable" three.numr
Substitution2: "'sups' Superscript in Latin lookup 11 subtable" threesuperior
Substitution2: "'subs' Subscript in Latin lookup 10 subtable" uni2083
AlternateSubs2: "'aalt' Access All Alternates in Latin lookup 1 subtable" threesuperior uni2083 three.numr three.dnom three.osf three.tf
EndChar

StartChar: four
Encoding: 52 52 23
Width: 560
GlyphClass: 1
Flags: W
HStem: -2 21G<359.667 370.333> 197.999 70<155 330 400 505.202> 680 20G<358.667 370.333>
VStem: 330 70<7.79845 197.999 268 549.999>
LayerCount: 2
Fore
SplineSet
365 -2 m 0
 354.333007812 -2 345.833007812 1.166015625 339.5 7.4990234375 c 0
 333.166992188 13.83203125 330 22.33203125 330 32.9990234375 c 2
 330 197.999023438 l 1
 92 197.999023438 l 2
 81.3330078125 197.999023438 72.8330078125 201.166015625 66.5 207.499023438 c 0
 60.1669921875 213.83203125 57 222.33203125 57 232.999023438 c 0
 57 238.33203125 58 243.33203125 60 247.999023438 c 0
 62 252.666015625 64.6669921875 257.333007812 68 262 c 2
 334 683 l 2
 342 694.333007812 352.333007812 700 365 700 c 0
 375.666992188 700 384.166992188 696.833007812 390.5 690.5 c 0
 396.833007812 684.166992188 400 675.666992188 400 665 c 2
 400 268 l 1
 480 268 l 2
 490.666992188 268 499.166992188 264.833007812 505.5 258.5 c 0
 511.833007812 252.166992188 515 243.666992188 515 233 c 0
 515 222.333007812 511.833007812 213.833007812 505.5 207.5 c 0
 499.166992188 201.166992188 490.666992188 198 480 198 c 2
 400 198 l 1
 400 33 l 2
 400 22.3330078125 396.833007812 13.8330078125 390.5 7.5 c 0
 384.166992188 1.1669921875 375.666992188 -2 365 -2 c 0
155 267.999023438 m 1
 330 267.999023438 l 1
 330 549.999023438 l 1
 155 267.999023438 l 1
EndSplineSet
Validated: 524289
Substitution2: "'tnum' Tabular Numbers in Latin lookup 45 subtable" four.tf
Substitution2: "'onum' Oldstyle Figures in Latin lookup 44 subtable" four.osf
Substitution2: "Single Substitution lookup 37 subtable" four.dnom
Substitution2: "Single Substitution lookup 35 subtable" four.numr
Substitution2: "Single Substitution lookup 33 subtable" four.numr
Substitution2: "Single Substitution lookup 31 subtable" four.numr
Substitution2: "Single Substitution lookup 29 subtable" four.numr
Substitution2: "Single Substitution lookup 27 subtable" four.numr
Substitution2: "Single Substitution lookup 25 subtable" four.numr
Substitution2: "Single Substitution lookup 23 subtable" four.numr
Substitution2: "Single Substitution lookup 21 subtable" four.numr
Substitution2: "Single Substitution lookup 19 subtable" four.numr
Substitution2: "Single Substitution lookup 17 subtable" four.numr
Substitution2: "'dnom' Denominators in Latin lookup 13 subtable" four.dnom
Substitution2: "'numr' Numerators in Latin lookup 12 subtable" four.numr
Substitution2: "'sups' Superscript in Latin lookup 11 subtable" uni2074
Substitution2: "'subs' Subscript in Latin lookup 10 subtable" uni2084
AlternateSubs2: "'aalt' Access All Alternates in Latin lookup 1 subtable" uni2074 uni2084 four.numr four.dnom four.osf four.tf
EndChar

StartChar: five
Encoding: 53 53 24
Width: 560
GlyphClass: 1
Flags: W
HStem: -8 70.0029<203.828 352.972> 392.003 69.999<196.229 352.793> 630.002 70<170 461.686>
VStem: 100 70<428.002 630.002> 413 70<129.373 324.099>
LayerCount: 2
Fore
SplineSet
280 -8 m 0
 242.666992188 -8 208.33203125 0.5029296875 176.999023438 17.5029296875 c 0
 145.666015625 34.5029296875 117.333007812 59.0029296875 92 91.0029296875 c 0
 87.3330078125 97.0029296875 83.8330078125 102.169921875 81.5 106.502929688 c 0
 79.1669921875 110.8359375 78 116.002929688 78 122.002929688 c 0
 78 132.669921875 81.5 141.169921875 88.5 147.502929688 c 0
 95.5 153.8359375 103.666992188 157.002929688 113 157.002929688 c 0
 121 157.002929688 127.5 155.002929688 132.5 151.002929688 c 0
 137.5 147.002929688 141.666992188 142.669921875 145 138.002929688 c 0
 161.666992188 116.002929688 181.166992188 97.8359375 203.5 83.5029296875 c 0
 225.833007812 69.169921875 251.333007812 62.0029296875 280 62.0029296875 c 0
 310.666992188 62.0029296875 335.666992188 69.669921875 355 85.0029296875 c 0
 374.333007812 100.3359375 388.833007812 120.3359375 398.5 145.002929688 c 0
 408.166992188 169.669921875 413 195.669921875 413 223.002929688 c 0
 413 272.3359375 401.5 312.8359375 378.5 344.502929688 c 0
 355.5 376.169921875 323 392.002929688 281 392.002929688 c 0
 253 392.002929688 229.166992188 387.169921875 209.5 377.502929688 c 0
 189.833007812 367.8359375 175 356.668945312 165 344.001953125 c 0
 161.666992188 340.001953125 157.5 336.501953125 152.5 333.501953125 c 0
 147.5 330.501953125 141.666992188 329.001953125 135 329.001953125 c 0
 125 329.001953125 116.666992188 332.334960938 110 339.001953125 c 0
 103.333007812 345.668945312 100 354.001953125 100 364.001953125 c 2
 100 665.001953125 l 2
 100 675.001953125 103.333007812 683.334960938 110 690.001953125 c 0
 116.666992188 696.668945312 125 700.001953125 135 700.001953125 c 2
 437 700.001953125 l 2
 447 700.001953125 455.333007812 696.668945312 462 690.001953125 c 0
 468.666992188 683.334960938 472 675.001953125 472 665.001953125 c 0
 472 655.001953125 468.666992188 646.668945312 462 640.001953125 c 0
 455.333007812 633.334960938 447 630.001953125 437 630.001953125 c 2
 170 630.001953125 l 1
 170 428.001953125 l 1
 185.333007812 438.668945312 202.5 447.001953125 221.5 453.001953125 c 0
 240.5 459.001953125 260.333007812 462.001953125 281 462.001953125 c 0
 321.666992188 462.001953125 357.166992188 451.668945312 387.5 431.001953125 c 0
 417.833007812 410.334960938 441.333007812 382.16796875 458 346.500976562 c 0
 474.666992188 310.833984375 483 269.666992188 483 223 c 0
 483 181 475 142.5 459 107.5 c 0
 443 72.5 419.833007812 44.5 389.5 23.5 c 0
 359.166992188 2.5 322.666992188 -8 280 -8 c 0
EndSplineSet
Validated: 524289
Substitution2: "'tnum' Tabular Numbers in Latin lookup 45 subtable" five.tf
Substitution2: "'onum' Oldstyle Figures in Latin lookup 44 subtable" five.osf
Substitution2: "Single Substitution lookup 37 subtable" five.dnom
Substitution2: "Single Substitution lookup 35 subtable" five.numr
Substitution2: "Single Substitution lookup 33 subtable" five.numr
Substitution2: "Single Substitution lookup 31 subtable" five.numr
Substitution2: "Single Substitution lookup 29 subtable" five.numr
Substitution2: "Single Substitution lookup 27 subtable" five.numr
Substitution2: "Single Substitution lookup 25 subtable" five.numr
Substitution2: "Single Substitution lookup 23 subtable" five.numr
Substitution2: "Single Substitution lookup 21 subtable" five.numr
Substitution2: "Single Substitution lookup 19 subtable" five.numr
Substitution2: "Single Substitution lookup 17 subtable" five.numr
Substitution2: "'dnom' Denominators in Latin lookup 13 subtable" five.dnom
Substitution2: "'numr' Numerators in Latin lookup 12 subtable" five.numr
Substitution2: "'sups' Superscript in Latin lookup 11 subtable" uni2075
Substitution2: "'subs' Subscript in Latin lookup 10 subtable" uni2085
AlternateSubs2: "'aalt' Access All Alternates in Latin lookup 1 subtable" uni2075 uni2085 five.numr five.dnom five.osf five.tf
EndChar

StartChar: six
Encoding: 54 54 25
Width: 560
GlyphClass: 1
Flags: W
HStem: -8 69.999<223.185 360.578> 392.999 65.001<224.718 361.317> 638 70<232.144 375.473>
VStem: 71.999 71.001<372 514.971> 418 70<126.896 330.108>
LayerCount: 2
Fore
SplineSet
292 -8 m 0
 252.666992188 -8 216.166015625 3.33203125 182.499023438 25.9990234375 c 0
 148.83203125 48.666015625 121.999023438 84.8330078125 101.999023438 134.5 c 0
 81.9990234375 184.166992188 71.9990234375 249 71.9990234375 329 c 0
 71.9990234375 421.666992188 82.33203125 495.666992188 102.999023438 551 c 0
 123.666015625 606.333007812 151.499023438 646.333007812 186.499023438 671 c 0
 221.499023438 695.666992188 259.999023438 708 301.999023438 708 c 0
 335.999023438 708 364.999023438 701.833007812 388.999023438 689.5 c 0
 412.999023438 677.166992188 435.666015625 660 456.999023438 638 c 0
 464.33203125 632 467.999023438 624 467.999023438 614 c 0
 467.999023438 604 464.499023438 595.666992188 457.499023438 589 c 0
 450.499023438 582.333007812 442.33203125 579 432.999023438 579 c 0
 422.999023438 579 414.666015625 582.333007812 407.999023438 589 c 0
 391.999023438 605 376.166015625 617.166992188 360.499023438 625.5 c 0
 344.83203125 633.833007812 325.33203125 638 301.999023438 638 c 0
 273.999023438 638 248.33203125 629.166992188 224.999023438 611.5 c 0
 201.666015625 593.833007812 182.833007812 565.5 168.5 526.5 c 0
 154.166992188 487.5 145.666992188 436 143 372 c 1
 179.666992188 429.333007812 232 458 300 458 c 0
 332.666992188 458 363.166992188 449.666992188 391.5 433 c 0
 419.833007812 416.333007812 443 391 461 357 c 0
 479 323 488 280 488 228 c 0
 488 181.333007812 480 140.333007812 464 105 c 0
 448 69.6669921875 425.333007812 42 396 22 c 0
 366.666992188 2 332 -8 292 -8 c 0
291.999023438 61.9990234375 m 0
 330.666015625 61.9990234375 361.333007812 76.9990234375 384 106.999023438 c 0
 406.666992188 136.999023438 418 177.33203125 418 227.999023438 c 0
 418 279.999023438 406.5 320.499023438 383.5 349.499023438 c 0
 360.5 378.499023438 330.333007812 392.999023438 293 392.999023438 c 0
 256.333007812 392.999023438 225.666015625 378.499023438 200.999023438 349.499023438 c 0
 176.33203125 320.499023438 163.999023438 279.999023438 163.999023438 227.999023438 c 0
 163.999023438 178.666015625 175.666015625 138.666015625 198.999023438 107.999023438 c 0
 222.33203125 77.33203125 253.33203125 61.9990234375 291.999023438 61.9990234375 c 0
EndSplineSet
Validated: 524289
Substitution2: "'tnum' Tabular Numbers in Latin lookup 45 subtable" six.tf
Substitution2: "'onum' Oldstyle Figures in Latin lookup 44 subtable" six.osf
Substitution2: "Single Substitution lookup 37 subtable" six.dnom
Substitution2: "Single Substitution lookup 35 subtable" six.numr
Substitution2: "Single Substitution lookup 33 subtable" six.numr
Substitution2: "Single Substitution lookup 31 subtable" six.numr
Substitution2: "Single Substitution lookup 29 subtable" six.numr
Substitution2: "Single Substitution lookup 27 subtable" six.numr
Substitution2: "Single Substitution lookup 25 subtable" six.numr
Substitution2: "Single Substitution lookup 23 subtable" six.numr
Substitution2: "Single Substitution lookup 21 subtable" six.numr
Substitution2: "Single Substitution lookup 19 subtable" six.numr
Substitution2: "Single Substitution lookup 17 subtable" six.numr
Substitution2: "'dnom' Denominators in Latin lookup 13 subtable" six.dnom
Substitution2: "'numr' Numerators in Latin lookup 12 subtable" six.numr
Substitution2: "'sups' Superscript in Latin lookup 11 subtable" uni2076
Substitution2: "'subs' Subscript in Latin lookup 10 subtable" uni2086
AlternateSubs2: "'aalt' Access All Alternates in Latin lookup 1 subtable" uni2076 uni2086 six.numr six.dnom six.osf six.tf
EndChar

StartChar: seven
Encoding: 55 55 26
Width: 560
GlyphClass: 1
Flags: W
HStem: 0 21G<202 211.667> 629.998 70<62.627 393.002>
VStem: 172.002 69.998<10.8273 223.164>
LayerCount: 2
Fore
SplineSet
207 0 m 0
 197 0 188.668945312 3.498046875 182.001953125 10.498046875 c 0
 175.334960938 17.498046875 172.001953125 25.998046875 172.001953125 35.998046875 c 0
 172.001953125 117.998046875 182.501953125 195.998046875 203.501953125 269.998046875 c 0
 224.501953125 343.998046875 252.001953125 411.498046875 286.001953125 472.498046875 c 0
 320.001953125 533.498046875 355.668945312 585.998046875 393.001953125 629.998046875 c 1
 95.001953125 629.998046875 l 2
 85.6689453125 629.998046875 77.501953125 633.498046875 70.501953125 640.498046875 c 0
 63.501953125 647.498046875 60.001953125 655.665039062 60.001953125 664.998046875 c 0
 60.001953125 674.331054688 63.501953125 682.498046875 70.501953125 689.498046875 c 0
 77.501953125 696.498046875 85.6689453125 699.998046875 95.001953125 699.998046875 c 2
 460.001953125 699.998046875 l 2
 470.001953125 699.998046875 478.168945312 696.498046875 484.501953125 689.498046875 c 0
 490.834960938 682.498046875 494.001953125 674.331054688 494.001953125 664.998046875 c 0
 494.001953125 657.665039062 491.668945312 650.33203125 487.001953125 642.999023438 c 0
 434.334960938 575.666015625 389.66796875 509.833007812 353.000976562 445.5 c 0
 316.333984375 381.166992188 288.666992188 315.5 270 248.5 c 0
 251.333007812 181.5 242 110 242 34 c 0
 242 24 238.5 15.8330078125 231.5 9.5 c 0
 224.5 3.1669921875 216.333007812 0 207 0 c 0
EndSplineSet
Validated: 524289
Substitution2: "'tnum' Tabular Numbers in Latin lookup 45 subtable" seven.tf
Substitution2: "'onum' Oldstyle Figures in Latin lookup 44 subtable" seven.osf
Substitution2: "Single Substitution lookup 37 subtable" seven.dnom
Substitution2: "Single Substitution lookup 35 subtable" seven.numr
Substitution2: "Single Substitution lookup 33 subtable" seven.numr
Substitution2: "Single Substitution lookup 31 subtable" seven.numr
Substitution2: "Single Substitution lookup 29 subtable" seven.numr
Substitution2: "Single Substitution lookup 27 subtable" seven.numr
Substitution2: "Single Substitution lookup 25 subtable" seven.numr
Substitution2: "Single Substitution lookup 23 subtable" seven.numr
Substitution2: "Single Substitution lookup 21 subtable" seven.numr
Substitution2: "Single Substitution lookup 19 subtable" seven.numr
Substitution2: "Single Substitution lookup 17 subtable" seven.numr
Substitution2: "'dnom' Denominators in Latin lookup 13 subtable" seven.dnom
Substitution2: "'numr' Numerators in Latin lookup 12 subtable" seven.numr
Substitution2: "'sups' Superscript in Latin lookup 11 subtable" uni2077
Substitution2: "'subs' Subscript in Latin lookup 10 subtable" uni2087
AlternateSubs2: "'aalt' Access All Alternates in Latin lookup 1 subtable" uni2077 uni2087 seven.numr seven.dnom seven.osf seven.tf
EndChar

StartChar: eight
Encoding: 56 56 27
Width: 560
GlyphClass: 1
Flags: W
HStem: -8 70<188.582 371.422> 327 69<192.742 367.263> 638 70.0049<192.605 367.727>
VStem: 62.0029 70<117.689 272.897> 72.0029 70.001<444.724 588.639> 418.002 69.999<444.724 588.639> 428.003 69.9971<117.689 272.897>
LayerCount: 2
Fore
SplineSet
280 -8 m 0xe2
 233.333007812 -8 193.8359375 0.8330078125 161.502929688 18.5 c 0
 129.169921875 36.1669921875 104.502929688 60.333984375 87.5029296875 91.0009765625 c 0
 70.5029296875 121.66796875 62.0029296875 156.334960938 62.0029296875 195.001953125 c 0xf2
 62.0029296875 235.001953125 71.8359375 269.668945312 91.5029296875 299.001953125 c 0
 111.169921875 328.334960938 137.002929688 349.334960938 169.002929688 362.001953125 c 1
 141.002929688 375.334960938 117.8359375 395.334960938 99.5029296875 422.001953125 c 0
 81.169921875 448.668945312 72.0029296875 480.3359375 72.0029296875 517.002929688 c 0
 72.0029296875 553.669921875 80.169921875 586.336914062 96.5029296875 615.00390625 c 0
 112.8359375 643.670898438 136.668945312 666.337890625 168.001953125 683.004882812 c 0
 199.334960938 699.671875 236.66796875 708.004882812 280.000976562 708.004882812 c 0
 324.000976562 708.004882812 361.500976562 699.671875 392.500976562 683.004882812 c 0
 423.500976562 666.337890625 447.16796875 643.670898438 463.500976562 615.00390625 c 0
 479.833984375 586.336914062 488.000976562 553.669921875 488.000976562 517.002929688 c 0xec
 488.000976562 480.3359375 479.16796875 448.668945312 461.500976562 422.001953125 c 0
 443.833984375 395.334960938 420.666992188 375.334960938 392 362.001953125 c 1
 424 349.334960938 449.666992188 328.334960938 469 299.001953125 c 0
 488.333007812 269.668945312 498 235.001953125 498 195.001953125 c 0
 498 156.334960938 489.5 121.66796875 472.5 91.0009765625 c 0
 455.5 60.333984375 430.833007812 36.1669921875 398.5 18.5 c 0
 366.166992188 0.8330078125 326.666992188 -8 280 -8 c 0xe2
280.002929688 396 m 0
 325.3359375 396 359.668945312 407.166992188 383.001953125 429.5 c 0
 406.334960938 451.833007812 418.001953125 481 418.001953125 517 c 0
 418.001953125 553 406.334960938 582.166992188 383.001953125 604.5 c 0
 359.668945312 626.833007812 325.3359375 638 280.002929688 638 c 0
 234.669921875 638 200.336914062 626.833007812 177.00390625 604.5 c 0
 153.670898438 582.166992188 142.00390625 553 142.00390625 517 c 0xec
 142.00390625 481 153.670898438 451.833007812 177.00390625 429.5 c 0
 200.336914062 407.166992188 234.669921875 396 280.002929688 396 c 0
280.002929688 62 m 0
 329.3359375 62 366.3359375 74.3330078125 391.002929688 99 c 0
 415.669921875 123.666992188 428.002929688 155.666992188 428.002929688 195 c 0
 428.002929688 235 415.669921875 267 391.002929688 291 c 0
 366.3359375 315 329.3359375 327 280.002929688 327 c 0
 230.669921875 327 193.669921875 315 169.002929688 291 c 0
 144.3359375 267 132.002929688 235 132.002929688 195 c 0xf2
 132.002929688 155.666992188 144.3359375 123.666992188 169.002929688 99 c 0
 193.669921875 74.3330078125 230.669921875 62 280.002929688 62 c 0
EndSplineSet
Validated: 524289
Substitution2: "'tnum' Tabular Numbers in Latin lookup 45 subtable" eight.tf
Substitution2: "'onum' Oldstyle Figures in Latin lookup 44 subtable" eight.osf
Substitution2: "Single Substitution lookup 37 subtable" eight.dnom
Substitution2: "Single Substitution lookup 35 subtable" eight.numr
Substitution2: "Single Substitution lookup 33 subtable" eight.numr
Substitution2: "Single Substitution lookup 31 subtable" eight.numr
Substitution2: "Single Substitution lookup 29 subtable" eight.numr
Substitution2: "Single Substitution lookup 27 subtable" eight.numr
Substitution2: "Single Substitution lookup 25 subtable" eight.numr
Substitution2: "Single Substitution lookup 23 subtable" eight.numr
Substitution2: "Single Substitution lookup 21 subtable" eight.numr
Substitution2: "Single Substitution lookup 19 subtable" eight.numr
Substitution2: "Single Substitution lookup 17 subtable" eight.numr
Substitution2: "'dnom' Denominators in Latin lookup 13 subtable" eight.dnom
Substitution2: "'numr' Numerators in Latin lookup 12 subtable" eight.numr
Substitution2: "'sups' Superscript in Latin lookup 11 subtable" uni2078
Substitution2: "'subs' Subscript in Latin lookup 10 subtable" uni2088
AlternateSubs2: "'aalt' Access All Alternates in Latin lookup 1 subtable" uni2078 uni2088 eight.numr eight.dnom eight.osf eight.tf
EndChar

StartChar: nine
Encoding: 57 57 28
Width: 560
GlyphClass: 1
Flags: W
HStem: -8 70.002<199.783 335.959> 242.002 65.001<199.346 335.611> 638.003 69.998<198.327 337.476>
VStem: 71.998 69.998<371.015 574.306> 416.998 71<176.925 328.002>
LayerCount: 2
Fore
SplineSet
274 -8 m 0
 240 -8 210.829101562 -1.830078125 186.49609375 10.5029296875 c 0
 162.163085938 22.8359375 139.330078125 40.0029296875 117.997070312 62.0029296875 c 0
 110.6640625 69.3359375 106.997070312 77.6689453125 106.997070312 87.001953125 c 0
 106.997070312 96.3349609375 110.497070312 104.501953125 117.497070312 111.501953125 c 0
 124.497070312 118.501953125 132.6640625 122.001953125 141.997070312 122.001953125 c 0
 151.330078125 122.001953125 159.997070312 118.668945312 167.997070312 112.001953125 c 0
 183.330078125 95.3349609375 198.997070312 82.8349609375 214.997070312 74.501953125 c 0
 230.997070312 66.1689453125 250.6640625 62.001953125 273.997070312 62.001953125 c 0
 312.6640625 62.001953125 345.331054688 82.501953125 371.998046875 123.501953125 c 0
 398.665039062 164.501953125 413.665039062 232.668945312 416.998046875 328.001953125 c 1
 380.331054688 270.668945312 327.998046875 242.001953125 259.998046875 242.001953125 c 0
 227.998046875 242.001953125 197.665039062 250.334960938 168.998046875 267.001953125 c 0
 140.331054688 283.668945312 116.998046875 309.168945312 98.998046875 343.501953125 c 0
 80.998046875 377.834960938 71.998046875 420.66796875 71.998046875 472.000976562 c 0
 71.998046875 518.66796875 79.998046875 559.66796875 95.998046875 595.000976562 c 0
 111.998046875 630.333984375 134.831054688 658.000976562 164.498046875 678.000976562 c 0
 194.165039062 698.000976562 228.665039062 708.000976562 267.998046875 708.000976562 c 0
 307.998046875 708.000976562 344.665039062 696.66796875 377.998046875 674.000976562 c 0
 411.331054688 651.333984375 437.998046875 615.333984375 457.998046875 566.000976562 c 0
 477.998046875 516.66796875 487.998046875 451.66796875 487.998046875 371.000976562 c 0
 487.998046875 279.000976562 478.331054688 205.16796875 458.998046875 149.500976562 c 0
 439.665039062 93.833984375 413.83203125 53.6669921875 381.499023438 29 c 0
 349.166015625 4.3330078125 313.333007812 -8 274 -8 c 0
266.99609375 307.002929688 m 0
 304.329101562 307.002929688 335.1640625 321.502929688 359.497070312 350.502929688 c 0
 383.830078125 379.502929688 395.997070312 420.002929688 395.997070312 472.002929688 c 0
 395.997070312 522.002929688 384.497070312 562.169921875 361.497070312 592.502929688 c 0
 338.497070312 622.8359375 307.330078125 638.002929688 267.997070312 638.002929688 c 0
 229.330078125 638.002929688 198.663085938 623.169921875 175.99609375 593.502929688 c 0
 153.329101562 563.8359375 141.99609375 523.3359375 141.99609375 472.002929688 c 0
 141.99609375 420.002929688 153.663085938 379.502929688 176.99609375 350.502929688 c 0
 200.329101562 321.502929688 230.329101562 307.002929688 266.99609375 307.002929688 c 0
EndSplineSet
Validated: 524289
Substitution2: "'tnum' Tabular Numbers in Latin lookup 45 subtable" nine.tf
Substitution2: "'onum' Oldstyle Figures in Latin lookup 44 subtable" nine.osf
Substitution2: "Single Substitution lookup 37 subtable" nine.dnom
Substitution2: "Single Substitution lookup 35 subtable" nine.numr
Substitution2: "Single Substitution lookup 33 subtable" nine.numr
Substitution2: "Single Substitution lookup 31 subtable" nine.numr
Substitution2: "Single Substitution lookup 29 subtable" nine.numr
Substitution2: "Single Substitution lookup 27 subtable" nine.numr
Substitution2: "Single Substitution lookup 25 subtable" nine.numr
Substitution2: "Single Substitution lookup 23 subtable" nine.numr
Substitution2: "Single Substitution lookup 21 subtable" nine.numr
Substitution2: "Single Substitution lookup 19 subtable" nine.numr
Substitution2: "Single Substitution lookup 17 subtable" nine.numr
Substitution2: "'dnom' Denominators in Latin lookup 13 subtable" nine.dnom
Substitution2: "'numr' Numerators in Latin lookup 12 subtable" nine.numr
Substitution2: "'sups' Superscript in Latin lookup 11 subtable" uni2079
Substitution2: "'subs' Subscript in Latin lookup 10 subtable" uni2089
AlternateSubs2: "'aalt' Access All Alternates in Latin lookup 1 subtable" uni2079 uni2089 nine.numr nine.dnom nine.osf nine.tf
EndChar

StartChar: colon
Encoding: 58 58 29
Width: 560
GlyphClass: 1
Flags: W
HStem: 0 98<249.377 311.139> 320 98<249.377 311.139>
VStem: 237 86<12.3767 86.1385 332.377 406.139>
LayerCount: 2
Fore
SplineSet
280 320 m 0
 267.333007812 320 257 324 249 332 c 0
 241 340 237 350.333007812 237 363 c 2
 237 375 l 2
 237 388.333007812 241 398.833007812 249 406.5 c 0
 257 414.166992188 267.333007812 418 280 418 c 0
 293.333007812 418 303.833007812 414.166992188 311.5 406.5 c 0
 319.166992188 398.833007812 323 388.333007812 323 375 c 2
 323 363 l 2
 323 350.333007812 319.166992188 340 311.5 332 c 0
 303.833007812 324 293.333007812 320 280 320 c 0
280 0 m 0
 267.333007812 0 257 4 249 12 c 0
 241 20 237 30.3330078125 237 43 c 2
 237 55 l 2
 237 68.3330078125 241 78.8330078125 249 86.5 c 0
 257 94.1669921875 267.333007812 98 280 98 c 0
 293.333007812 98 303.833007812 94.1669921875 311.5 86.5 c 0
 319.166992188 78.8330078125 323 68.3330078125 323 55 c 2
 323 43 l 2
 323 30.3330078125 319.166992188 20 311.5 12 c 0
 303.833007812 4 293.333007812 0 280 0 c 0
EndSplineSet
Validated: 524289
Substitution2: "Single Substitution lookup 55 subtable" colon.case
Substitution2: "Single Substitution lookup 54 subtable" colon.case
Substitution2: "'case' Case-Sensitive Forms in Latin lookup 47 subtable" colon.case
Substitution2: "'aalt' Access All Alternates in Latin lookup 0 subtable" colon.case
EndChar

StartChar: semicolon
Encoding: 59 59 30
Width: 560
GlyphClass: 1
Flags: W
HStem: -108 70<173.314 245> 320 98<249.377 311.139>
VStem: 237 86<332.377 406.139> 245 70<-38 87.6863>
LayerCount: 2
Fore
SplineSet
280 320 m 0xe0
 267.333007812 320 257 324 249 332 c 0
 241 340 237 350.333007812 237 363 c 2
 237 375 l 2
 237 388.333007812 241 398.833007812 249 406.5 c 0
 257 414.166992188 267.333007812 418 280 418 c 0
 293.333007812 418 303.833007812 414.166992188 311.5 406.5 c 0
 319.166992188 398.833007812 323 388.333007812 323 375 c 2
 323 363 l 2
 323 350.333007812 319.166992188 340 311.5 332 c 0
 303.833007812 324 293.333007812 320 280 320 c 0xe0
198 -108 m 2
 188 -108 179.666992188 -104.666992188 173 -98 c 0
 166.333007812 -91.3330078125 163 -83 163 -73 c 0
 163 -63 166.333007812 -54.6669921875 173 -48 c 0
 179.666992188 -41.3330078125 188 -38 198 -38 c 2
 245 -38 l 1
 245 63 l 2
 245 73 248.333007812 81.3330078125 255 88 c 0
 261.666992188 94.6669921875 270 98 280 98 c 0
 290 98 298.333007812 94.6669921875 305 88 c 0
 311.666992188 81.3330078125 315 73 315 63 c 2
 315 -73 l 2xd0
 315 -83 311.666992188 -91.3330078125 305 -98 c 0
 298.333007812 -104.666992188 290 -108 280 -108 c 2
 198 -108 l 2
EndSplineSet
Validated: 524289
EndChar

StartChar: less
Encoding: 60 60 31
Width: 560
GlyphClass: 1
Flags: W
VStem: 125 270.001
LayerCount: 2
Fore
SplineSet
362 83 m 0
 372.666992188 83.6669921875 380.833984375 87.4990234375 386.500976562 94.4990234375 c 0
 392.16796875 101.499023438 395.000976562 109.999023438 395.000976562 119.999023438 c 0
 395.000976562 131.33203125 389.333984375 140.665039062 378.000976562 147.998046875 c 2
 227.000976562 249.998046875 l 1
 378.000976562 351.998046875 l 2
 389.333984375 359.331054688 395.000976562 368.998046875 395.000976562 380.998046875 c 0
 395.000976562 390.331054688 392.16796875 398.498046875 386.500976562 405.498046875 c 0
 380.833984375 412.498046875 372.666992188 416.331054688 362 416.998046875 c 0
 358 416.998046875 354.166992188 416.331054688 350.5 414.998046875 c 0
 346.833007812 413.665039062 343 411.998046875 339 409.998046875 c 2
 142 277.998046875 l 2
 130.666992188 270.665039062 125 261.33203125 125 249.999023438 c 0
 125 238.666015625 130.666992188 229.333007812 142 222 c 2
 339 90 l 2
 343 88 346.833007812 86.3330078125 350.5 85 c 0
 354.166992188 83.6669921875 358 83 362 83 c 0
EndSplineSet
Validated: 524297
EndChar

StartChar: equal
Encoding: 61 61 32
Width: 560
GlyphClass: 1
Flags: W
HStem: 135 70<140.829 419.171> 295 70<140.829 419.171>
VStem: 130 300<145.314 194.686 305.314 354.686>
LayerCount: 2
Fore
SplineSet
166 295 m 2
 156 295 147.5 298.333007812 140.5 305 c 0
 133.5 311.666992188 130 320 130 330 c 0
 130 340 133.5 348.333007812 140.5 355 c 0
 147.5 361.666992188 156 365 166 365 c 2
 394 365 l 2
 404 365 412.5 361.666992188 419.5 355 c 0
 426.5 348.333007812 430 340 430 330 c 0
 430 320 426.5 311.666992188 419.5 305 c 0
 412.5 298.333007812 404 295 394 295 c 2
 166 295 l 2
166 135 m 2
 156 135 147.5 138.333007812 140.5 145 c 0
 133.5 151.666992188 130 160 130 170 c 0
 130 180 133.5 188.333007812 140.5 195 c 0
 147.5 201.666992188 156 205 166 205 c 2
 394 205 l 2
 404 205 412.5 201.666992188 419.5 195 c 0
 426.5 188.333007812 430 180 430 170 c 0
 430 160 426.5 151.666992188 419.5 145 c 0
 412.5 138.333007812 404 135 394 135 c 2
 166 135 l 2
EndSplineSet
Validated: 524289
EndChar

StartChar: greater
Encoding: 62 62 33
Width: 560
GlyphClass: 1
Flags: W
VStem: 164.999 270.001
LayerCount: 2
Fore
SplineSet
198 83 m 0
 187.333007812 83.6669921875 179.166015625 87.4990234375 173.499023438 94.4990234375 c 0
 167.83203125 101.499023438 164.999023438 109.999023438 164.999023438 119.999023438 c 0
 164.999023438 131.33203125 170.666015625 140.665039062 181.999023438 147.998046875 c 2
 332.999023438 249.998046875 l 1
 181.999023438 351.998046875 l 2
 170.666015625 359.331054688 164.999023438 368.998046875 164.999023438 380.998046875 c 0
 164.999023438 390.331054688 167.83203125 398.498046875 173.499023438 405.498046875 c 0
 179.166015625 412.498046875 187.333007812 416.331054688 198 416.998046875 c 0
 202 416.998046875 205.833007812 416.331054688 209.5 414.998046875 c 0
 213.166992188 413.665039062 217 411.998046875 221 409.998046875 c 2
 418 277.998046875 l 2
 429.333007812 270.665039062 435 261.33203125 435 249.999023438 c 0
 435 238.666015625 429.333007812 229.333007812 418 222 c 2
 221 90 l 2
 217 88 213.166992188 86.3330078125 209.5 85 c 0
 205.833007812 83.6669921875 202 83 198 83 c 0
EndSplineSet
Validated: 524289
EndChar

StartChar: question
Encoding: 63 63 34
Width: 560
GlyphClass: 1
Flags: W
HStem: 0.00195312 98<219.377 281.139> 638.002 69.999<194.087 347.663>
VStem: 75.001 70<501.316 590.589> 207 86<12.3787 86.1405> 215 70<203.316 314.195> 395.001 69.999<449.384 593.064>
LayerCount: 2
Fore
SplineSet
250 193 m 0xec
 240 193 231.666992188 196.334960938 225 203.001953125 c 0
 218.333007812 209.668945312 215 218.001953125 215 228.001953125 c 2
 215 264.001953125 l 2xec
 215 292.668945312 220.833007812 316.501953125 232.5 335.501953125 c 0
 244.166992188 354.501953125 262.333984375 370.668945312 287.000976562 384.001953125 c 2
 316.000976562 400.001953125 l 2
 345.333984375 416.001953125 365.833984375 434.834960938 377.500976562 456.501953125 c 0
 389.16796875 478.168945312 395.000976562 502.001953125 395.000976562 528.001953125 c 0
 395.000976562 559.334960938 383.500976562 585.501953125 360.500976562 606.501953125 c 0
 337.500976562 627.501953125 307.333984375 638.001953125 270.000976562 638.001953125 c 0
 233.333984375 638.001953125 203.333984375 627.168945312 180.000976562 605.501953125 c 0
 156.66796875 583.834960938 145.000976562 557.334960938 145.000976562 526.001953125 c 0
 145.000976562 516.001953125 141.66796875 507.668945312 135.000976562 501.001953125 c 0
 128.333984375 494.334960938 120.000976562 491.001953125 110.000976562 491.001953125 c 0
 100.000976562 491.001953125 91.66796875 494.334960938 85.0009765625 501.001953125 c 0
 78.333984375 507.668945312 75.0009765625 516.001953125 75.0009765625 526.001953125 c 0
 75.0009765625 562.001953125 83.66796875 593.668945312 101.000976562 621.001953125 c 0
 118.333984375 648.334960938 141.833984375 669.66796875 171.500976562 685.000976562 c 0
 201.16796875 700.333984375 234.000976562 708.000976562 270.000976562 708.000976562 c 0
 305.333984375 708.000976562 337.666992188 700.500976562 367 685.500976562 c 0
 396.333007812 670.500976562 420 649.500976562 438 622.500976562 c 0
 456 595.500976562 465 564.000976562 465 528.000976562 c 0
 465 489.333984375 456 453.666992188 438 421 c 0
 420 388.333007812 390.666992188 360.666015625 350 337.999023438 c 2
 317 320.999023438 l 2
 306.333007812 314.999023438 298.333007812 307.83203125 293 299.499023438 c 0xf4
 287.666992188 291.166015625 285 279.333007812 285 264 c 2
 285 228 l 2
 285 218 281.666992188 209.666992188 275 203 c 0
 268.333007812 196.333007812 260 193 250 193 c 0xec
250 0.001953125 m 0
 237.333007812 0.001953125 227 4.001953125 219 12.001953125 c 0
 211 20.001953125 207 30.3349609375 207 43.001953125 c 2
 207 55.001953125 l 2
 207 68.3349609375 211 78.8349609375 219 86.501953125 c 0
 227 94.1689453125 237.333007812 98.001953125 250 98.001953125 c 0
 263.333007812 98.001953125 273.833007812 94.1689453125 281.5 86.501953125 c 0
 289.166992188 78.8349609375 293 68.3349609375 293 55.001953125 c 2
 293 43.001953125 l 2xf4
 293 30.3349609375 289.166992188 20.001953125 281.5 12.001953125 c 0
 273.833007812 4.001953125 263.333007812 0.001953125 250 0.001953125 c 0
EndSplineSet
Validated: 524289
EndChar

StartChar: at
Encoding: 64 64 35
Width: 560
GlyphClass: 1
Flags: W
HStem: -59 70<108 512.686> 56 70<246.568 314.425> 374.001 69.999<246.568 314.425> 489 70<108 453>
VStem: 37.002 70.998<11 489> 153.001 70.001<150.945 349.061> 338.002 70<66.3137 117 148.861 351.458 383 433.686> 453 70<66.3137 489>
LayerCount: 2
Fore
SplineSet
106 -59 m 2
 86.6669921875 -59 70.3349609375 -52.8330078125 57.001953125 -40.5 c 0
 43.6689453125 -28.1669921875 37.001953125 -11.6669921875 37.001953125 9 c 2
 37.001953125 491 l 2
 37.001953125 512.333007812 43.6689453125 529 57.001953125 541 c 0
 70.3349609375 553 86.66796875 559 106.000976562 559 c 2
 454.000976562 559 l 2
 473.333984375 559 489.666992188 553 503 541 c 0
 516.333007812 529 523 512.333007812 523 491 c 2
 523 91 l 2
 523 81 519.666992188 72.6669921875 513 66 c 0
 506.333007812 59.3330078125 498 56 488 56 c 0
 477.333007812 56 468.833007812 59.3330078125 462.5 66 c 0
 456.166992188 72.6669921875 453 81 453 91 c 2
 453 489 l 1
 108 489 l 1
 108 11 l 1
 488 11 l 2
 498 11 506.333007812 7.6669921875 513 1 c 0
 519.666992188 -5.6669921875 523 -14 523 -24 c 0
 523 -34 519.666992188 -42.3330078125 513 -49 c 0
 506.333007812 -55.6669921875 498 -59 488 -59 c 2
 106 -59 l 2
267.000976562 56 m 0
 243.000976562 56 222.500976562 65.1669921875 205.500976562 83.5 c 0
 188.500976562 101.833007812 175.500976562 125.833007812 166.500976562 155.5 c 0
 157.500976562 185.166992188 153.000976562 216.666992188 153.000976562 250 c 0
 153.000976562 283.333007812 157.500976562 314.833007812 166.500976562 344.5 c 0
 175.500976562 374.166992188 188.500976562 398.166992188 205.500976562 416.5 c 0
 222.500976562 434.833007812 243.000976562 444 267.000976562 444 c 0
 297.66796875 444 321.334960938 423.666992188 338.001953125 383 c 1
 338.001953125 409 l 2
 338.001953125 419 341.168945312 427.333007812 347.501953125 434 c 0
 353.834960938 440.666992188 362.334960938 444 373.001953125 444 c 0
 383.001953125 444 391.334960938 440.666992188 398.001953125 434 c 0
 404.668945312 427.333007812 408.001953125 419 408.001953125 409 c 2
 408.001953125 91 l 2
 408.001953125 81 404.668945312 72.6669921875 398.001953125 66 c 0
 391.334960938 59.3330078125 383.001953125 56 373.001953125 56 c 0
 362.334960938 56 353.834960938 59.3330078125 347.501953125 66 c 0
 341.168945312 72.6669921875 338.001953125 81 338.001953125 91 c 2
 338.001953125 117 l 1
 321.334960938 76.3330078125 297.66796875 56 267.000976562 56 c 0
279.000976562 126 m 0
 298.333984375 126 313.000976562 138.000976562 323.000976562 162.000976562 c 0
 333.000976562 186.000976562 338.000976562 215.333984375 338.000976562 250.000976562 c 0
 338.000976562 285.333984375 333.000976562 314.833984375 323.000976562 338.500976562 c 0
 313.000976562 362.16796875 298.333984375 374.000976562 279.000976562 374.000976562 c 0
 267.000976562 374.000976562 256.833984375 367.833984375 248.500976562 355.500976562 c 0
 240.16796875 343.16796875 233.834960938 327.66796875 229.501953125 309.000976562 c 0
 225.168945312 290.333984375 223.001953125 270.666992188 223.001953125 250 c 0
 223.001953125 230 225.168945312 210.5 229.501953125 191.5 c 0
 233.834960938 172.5 240.16796875 156.833007812 248.500976562 144.5 c 0
 256.833984375 132.166992188 267.000976562 126 279.000976562 126 c 0
EndSplineSet
Validated: 524289
Substitution2: "'case' Case-Sensitive Forms in Latin lookup 47 subtable" at.case
Substitution2: "'aalt' Access All Alternates in Latin lookup 0 subtable" at.case
EndChar

StartChar: A
Encoding: 65 65 36
Width: 560
GlyphClass: 1
Flags: W
HStem: 0 21G<63.6665 76.3335 484.333 497.333> 170 70<173 387> 686.999 20G<271 289>
VStem: 33 69<2.69158 25>
LayerCount: 2
Fore
SplineSet
68 0 m 0
 59.3330078125 0 51.3330078125 3.1669921875 44 9.5 c 0
 36.6669921875 15.8330078125 33 23.666015625 33 32.9990234375 c 0
 33 38.33203125 34 43.33203125 36 47.9990234375 c 2
 246 681.999023438 l 2
 250.666992188 698.666015625 262 706.999023438 280 706.999023438 c 0
 298 706.999023438 309.333007812 698.666015625 314 681.999023438 c 2
 524 47.9990234375 l 2
 526 43.33203125 527 38.33203125 527 32.9990234375 c 0
 527 23.666015625 523.5 15.8330078125 516.5 9.5 c 0
 509.5 3.1669921875 501.666992188 0 493 0 c 0
 475.666992188 0 464 8.3330078125 458 25 c 2
 410 170 l 1
 150 170 l 1
 102 25 l 2
 96 8.3330078125 84.6669921875 0 68 0 c 0
173 240 m 1
 387 240 l 1
 280 564 l 1
 173 240 l 1
EndSplineSet
Validated: 524289
EndChar

StartChar: B
Encoding: 66 66 37
Width: 560
GlyphClass: 1
Flags: W
HStem: 0 70.001<162 373.882> 325.001 69.999<162 324.813> 630 70<162 322.647>
VStem: 92 70<70.001 325.001 395 630> 370 70<441.854 582.364> 422 70<118.11 276.398>
LayerCount: 2
Fore
SplineSet
127 0 m 2xf4
 117 0 108.666992188 3.3330078125 102 10 c 0
 95.3330078125 16.6669921875 92 25 92 35 c 2
 92 665 l 2
 92 675 95.3330078125 683.333007812 102 690 c 0
 108.666992188 696.666992188 117 700 127 700 c 2
 244 700 l 2
 284.666992188 700 319.5 691.666992188 348.5 675 c 0
 377.5 658.333007812 400 636.5 416 609.5 c 0
 432 582.5 440 553 440 521 c 0xf8
 440 485 432.333007812 453.333007812 417 426 c 0
 401.666992188 398.666992188 379 378.666992188 349 366 c 1
 396.333007812 358.666992188 432 339.166992188 456 307.5 c 0
 480 275.833007812 492 238.333007812 492 195 c 0
 492 159 484.166992188 126.166992188 468.5 96.5 c 0
 452.833007812 66.8330078125 429.833007812 43.3330078125 399.5 26 c 0
 369.166992188 8.6669921875 332 0 288 0 c 2
 127 0 l 2xf4
162 395 m 1
 249 395.000976562 l 2
 289.666992188 395.000976562 320 406.833984375 340 430.500976562 c 0
 360 454.16796875 370 481.66796875 370 513.000976562 c 0
 370 544.333984375 359.5 571.666992188 338.5 595 c 0
 317.5 618.333007812 286 630 244 630 c 2
 162 630 l 1
 162 395 l 1
162 70.0009765625 m 1
 288 70.0009765625 l 2
 335.333007812 70.0009765625 369.5 81.833984375 390.5 105.500976562 c 0
 411.5 129.16796875 422 160.000976562 422 198.000976562 c 0xf4
 422 235.333984375 411.5 265.833984375 390.5 289.500976562 c 0
 369.5 313.16796875 335.333007812 325.000976562 288 325.000976562 c 2
 162 325.000976562 l 1
 162 70.0009765625 l 1
EndSplineSet
Validated: 524289
EndChar

StartChar: C
Encoding: 67 67 38
Width: 560
GlyphClass: 1
Flags: W
HStem: -8 70.001<230.499 362.102> 508 21G<445.662 453.995> 638 70<230.498 362.881>
VStem: 76.9941 70.0029<185.669 514.606> 414.999 68<123.969 181.687 518.314 577.532>
LayerCount: 2
Fore
SplineSet
296 -8 m 0
 258 -8 225.163085938 1.666015625 197.49609375 20.9990234375 c 0
 169.829101562 40.33203125 147.162109375 66.83203125 129.495117188 100.499023438 c 0
 111.828125 134.166015625 98.6611328125 172.499023438 89.994140625 215.499023438 c 0
 81.3271484375 258.499023438 76.994140625 303.33203125 76.994140625 349.999023438 c 0
 76.994140625 397.33203125 81.3271484375 442.33203125 89.994140625 484.999023438 c 0
 98.6611328125 527.666015625 111.828125 565.833007812 129.495117188 599.5 c 0
 147.162109375 633.166992188 169.829101562 659.666992188 197.49609375 679 c 0
 225.163085938 698.333007812 257.99609375 708 295.99609375 708 c 0
 339.329101562 708 375.662109375 695.833007812 404.995117188 671.5 c 0
 434.328125 647.166992188 458.995117188 610.666992188 478.995117188 562 c 0
 481.662109375 556 482.995117188 549.666992188 482.995117188 543 c 0
 482.995117188 533 479.828125 524.666992188 473.495117188 518 c 0
 467.162109375 511.333007812 458.995117188 508 448.995117188 508 c 0
 442.328125 508 435.828125 509.833007812 429.495117188 513.5 c 0
 423.162109375 517.166992188 418.329101562 523 414.99609375 531 c 0
 403.663085938 561.666992188 389.330078125 587.166992188 371.997070312 607.5 c 0
 354.6640625 627.833007812 329.331054688 638 295.998046875 638 c 0
 269.331054688 638 246.498046875 630.166992188 227.498046875 614.5 c 0
 208.498046875 598.833007812 193.165039062 577.333007812 181.498046875 550 c 0
 169.831054688 522.666992188 161.1640625 491.833984375 155.497070312 457.500976562 c 0
 149.830078125 423.16796875 146.997070312 387.334960938 146.997070312 350.001953125 c 0
 146.997070312 313.334960938 149.830078125 277.66796875 155.497070312 243.000976562 c 0
 161.1640625 208.333984375 169.831054688 177.500976562 181.498046875 150.500976562 c 0
 193.165039062 123.500976562 208.498046875 102.000976562 227.498046875 86.0009765625 c 0
 246.498046875 70.0009765625 269.331054688 62.0009765625 295.998046875 62.0009765625 c 0
 328.665039062 62.0009765625 353.83203125 72.333984375 371.499023438 93.0009765625 c 0
 389.166015625 113.66796875 403.666015625 139.000976562 414.999023438 169.000976562 c 0
 418.33203125 177.000976562 422.999023438 182.833984375 428.999023438 186.500976562 c 0
 434.999023438 190.16796875 441.33203125 192.000976562 447.999023438 192.000976562 c 0
 458.666015625 192.000976562 467.166015625 188.66796875 473.499023438 182.000976562 c 0
 479.83203125 175.333984375 482.999023438 167.000976562 482.999023438 157.000976562 c 0
 482.999023438 150.333984375 481.666015625 144.333984375 478.999023438 139.000976562 c 0
 458.999023438 90.333984375 434.33203125 53.6669921875 404.999023438 29 c 0
 375.666015625 4.3330078125 339.333007812 -8 296 -8 c 0
EndSplineSet
Validated: 524289
Substitution2: "'ss03' Style Set 3 in Latin lookup 51 subtable" C.ss03
Substitution2: "'aalt' Access All Alternates in Latin lookup 0 subtable" C.ss03
EndChar

StartChar: D
Encoding: 68 68 39
Width: 560
GlyphClass: 1
Flags: W
HStem: 0 70.001<142 316.359> 630.001 70<142 316.359>
VStem: 72 70<70.001 630.001> 428 70<205.432 495.146>
LayerCount: 2
Fore
SplineSet
107 0 m 2
 97 0 88.6669921875 3.333984375 82 10.0009765625 c 0
 75.3330078125 16.66796875 72 25.0009765625 72 35.0009765625 c 2
 72 665.000976562 l 2
 72 675.000976562 75.3330078125 683.333984375 82 690.000976562 c 0
 88.6669921875 696.66796875 97 700.000976562 107 700.000976562 c 2
 221 700.000976562 l 2
 281.666992188 700.000976562 332.5 685.16796875 373.5 655.500976562 c 0
 414.5 625.833984375 445.5 584.833984375 466.5 532.500976562 c 0
 487.5 480.16796875 498 419.334960938 498 350.001953125 c 0
 498 281.334960938 487.5 220.66796875 466.5 168.000976562 c 0
 445.5 115.333984375 414.5 74.1669921875 373.5 44.5 c 0
 332.5 14.8330078125 281.666992188 0 221 0 c 2
 107 0 l 2
142 70.0009765625 m 1
 221 70.0009765625 l 2
 269 70.0009765625 308.166992188 81.833984375 338.5 105.500976562 c 0
 368.833007812 129.16796875 391.333007812 162.16796875 406 204.500976562 c 0
 420.666992188 246.833984375 428 295.333984375 428 350.000976562 c 0
 428 405.333984375 420.666992188 454.000976562 406 496.000976562 c 0
 391.333007812 538.000976562 368.833007812 570.833984375 338.5 594.500976562 c 0
 308.166992188 618.16796875 269 630.000976562 221 630.000976562 c 2
 142 630.000976562 l 1
 142 70.0009765625 l 1
EndSplineSet
Validated: 524289
Substitution2: "'ss03' Style Set 3 in Latin lookup 51 subtable" D.ss03
Substitution2: "'aalt' Access All Alternates in Latin lookup 0 subtable" D.ss03
EndChar

StartChar: E
Encoding: 69 69 40
Width: 560
GlyphClass: 1
Flags: W
HStem: 0 70<167 453.202> 345 70<167 413.202> 630 70<167 453.202>
VStem: 97 70<70 345 415 630>
LayerCount: 2
Fore
SplineSet
132 0 m 2
 122 0 113.666992188 3.3330078125 107 10 c 0
 100.333007812 16.6669921875 97 25 97 35 c 2
 97 665 l 2
 97 675 100.333007812 683.333007812 107 690 c 0
 113.666992188 696.666992188 122 700 132 700 c 2
 428 700 l 2
 438.666992188 700 447.166992188 696.666992188 453.5 690 c 0
 459.833007812 683.333007812 463 675 463 665 c 0
 463 655 459.833007812 646.666992188 453.5 640 c 0
 447.166992188 633.333007812 438.666992188 630 428 630 c 2
 167 630 l 1
 167 415 l 1
 388 415 l 2
 398.666992188 415 407.166992188 411.666992188 413.5 405 c 0
 419.833007812 398.333007812 423 390 423 380 c 0
 423 370 419.833007812 361.666992188 413.5 355 c 0
 407.166992188 348.333007812 398.666992188 345 388 345 c 2
 167 345 l 1
 167 70 l 1
 428 70 l 2
 438.666992188 70 447.166992188 66.6669921875 453.5 60 c 0
 459.833007812 53.3330078125 463 45 463 35 c 0
 463 25 459.833007812 16.6669921875 453.5 10 c 0
 447.166992188 3.3330078125 438.666992188 0 428 0 c 2
 132 0 l 2
EndSplineSet
Validated: 524289
Substitution2: "'ss03' Style Set 3 in Latin lookup 51 subtable" E.ss03
Substitution2: "'aalt' Access All Alternates in Latin lookup 0 subtable" E.ss03
EndChar

StartChar: F
Encoding: 70 70 41
Width: 560
GlyphClass: 1
Flags: W
HStem: 0 21G<127 137> 345 70<167 428.202> 630 70<167 468.202>
VStem: 97 70<10.3137 345 415 630>
LayerCount: 2
Fore
SplineSet
132 0 m 0
 122 0 113.666992188 3.3330078125 107 10 c 0
 100.333007812 16.6669921875 97 25 97 35 c 2
 97 665 l 2
 97 675 100.333007812 683.333007812 107 690 c 0
 113.666992188 696.666992188 122 700 132 700 c 2
 443 700 l 2
 453.666992188 700 462.166992188 696.666992188 468.5 690 c 0
 474.833007812 683.333007812 478 675 478 665 c 0
 478 655 474.833007812 646.666992188 468.5 640 c 0
 462.166992188 633.333007812 453.666992188 630 443 630 c 2
 167 630 l 1
 167 415 l 1
 403 415 l 2
 413.666992188 415 422.166992188 411.666992188 428.5 405 c 0
 434.833007812 398.333007812 438 390 438 380 c 0
 438 370 434.833007812 361.666992188 428.5 355 c 0
 422.166992188 348.333007812 413.666992188 345 403 345 c 2
 167 345 l 1
 167 35 l 2
 167 25 163.666992188 16.6669921875 157 10 c 0
 150.333007812 3.3330078125 142 0 132 0 c 0
EndSplineSet
Validated: 524289
EndChar

StartChar: G
Encoding: 71 71 42
Width: 560
GlyphClass: 1
Flags: W
HStem: -8 70<232.059 388.575> 301 70<286.798 403> 507.998 21G<440.664 448.997> 637.998 70<225.5 357.883>
VStem: 71.9961 70.0029<186.345 514.604> 403 70<79.3751 301 518.312 588.023>
LayerCount: 2
Fore
SplineSet
309 -8 m 0
 265.666992188 -8 228.829101562 1.6650390625 198.49609375 20.998046875 c 0
 168.163085938 40.3310546875 143.663085938 66.6640625 124.99609375 99.9970703125 c 0
 106.329101562 133.330078125 92.8291015625 171.497070312 84.49609375 214.497070312 c 0
 76.1630859375 257.497070312 71.99609375 302.6640625 71.99609375 349.997070312 c 0
 71.99609375 397.330078125 76.3291015625 442.330078125 84.99609375 484.997070312 c 0
 93.6630859375 527.6640625 106.830078125 565.831054688 124.497070312 599.498046875 c 0
 142.1640625 633.165039062 164.831054688 659.665039062 192.498046875 678.998046875 c 0
 220.165039062 698.331054688 252.998046875 707.998046875 290.998046875 707.998046875 c 0
 334.331054688 707.998046875 370.6640625 695.831054688 399.997070312 671.498046875 c 0
 429.330078125 647.165039062 453.997070312 610.665039062 473.997070312 561.998046875 c 0
 476.6640625 555.998046875 477.997070312 549.665039062 477.997070312 542.998046875 c 0
 477.997070312 532.998046875 474.830078125 524.665039062 468.497070312 517.998046875 c 0
 462.1640625 511.331054688 453.997070312 507.998046875 443.997070312 507.998046875 c 0
 437.330078125 507.998046875 430.830078125 509.831054688 424.497070312 513.498046875 c 0
 418.1640625 517.165039062 413.331054688 522.998046875 409.998046875 530.998046875 c 0
 398.665039062 561.665039062 384.33203125 587.165039062 366.999023438 607.498046875 c 0
 349.666015625 627.831054688 324.333007812 637.998046875 291 637.998046875 c 0
 264.333007812 637.998046875 241.5 630.165039062 222.5 614.498046875 c 0
 203.5 598.831054688 188.166992188 577.331054688 176.5 549.998046875 c 0
 164.833007812 522.665039062 156.166015625 491.83203125 150.499023438 457.499023438 c 0
 144.83203125 423.166015625 141.999023438 387.333007812 141.999023438 350 c 0
 141.999023438 312.666992188 144.83203125 276.666992188 150.499023438 242 c 0
 156.166015625 207.333007812 165.333007812 176.5 178 149.5 c 0
 190.666992188 122.5 207.666992188 101.166992188 229 85.5 c 0
 250.333007812 69.8330078125 277 62 309 62 c 0
 327 62 343.666992188 64.5 359 69.5 c 0
 374.333007812 74.5 389 82.6669921875 403 94 c 1
 403 301 l 1
 312 301 l 2
 301.333007812 301 292.833007812 304.333007812 286.5 311 c 0
 280.166992188 317.666992188 277 326 277 336 c 0
 277 346 280.166992188 354.333007812 286.5 361 c 0
 292.833007812 367.666992188 301.333007812 371 312 371 c 2
 438 371 l 2
 448 371 456.333007812 367.666992188 463 361 c 0
 469.666992188 354.333007812 473 346 473 336 c 2
 473 78 l 2
 473 71.3330078125 471.666992188 65.5 469 60.5 c 0
 466.333007812 55.5 463 51.3330078125 459 48 c 0
 442.333007812 34 421.5 21.1669921875 396.5 9.5 c 0
 371.5 -2.1669921875 342.333007812 -8 309 -8 c 0
EndSplineSet
Validated: 524289
Substitution2: "'ss03' Style Set 3 in Latin lookup 51 subtable" G.ss03
Substitution2: "'aalt' Access All Alternates in Latin lookup 0 subtable" G.ss03
EndChar

StartChar: H
Encoding: 72 72 43
Width: 560
GlyphClass: 1
Flags: W
HStem: 0 21G<112 122 438 448.333> 325 70<152 408> 680 20G<112 122 438 448.333>
VStem: 82 70<10.3137 325 395 689.686> 408 70<10.3137 325 395 689.686>
LayerCount: 2
Fore
SplineSet
117 0 m 0
 107 0 98.6669921875 3.3330078125 92 10 c 0
 85.3330078125 16.6669921875 82 25 82 35 c 2
 82 665 l 2
 82 675 85.3330078125 683.333007812 92 690 c 0
 98.6669921875 696.666992188 107 700 117 700 c 0
 127 700 135.333007812 696.666992188 142 690 c 0
 148.666992188 683.333007812 152 675 152 665 c 2
 152 395 l 1
 408 395 l 1
 408 665 l 2
 408 675 411.333007812 683.333007812 418 690 c 0
 424.666992188 696.666992188 433 700 443 700 c 0
 453.666992188 700 462.166992188 696.666992188 468.5 690 c 0
 474.833007812 683.333007812 478 675 478 665 c 2
 478 35 l 2
 478 25 474.833007812 16.6669921875 468.5 10 c 0
 462.166992188 3.3330078125 453.666992188 0 443 0 c 0
 433 0 424.666992188 3.3330078125 418 10 c 0
 411.333007812 16.6669921875 408 25 408 35 c 2
 408 325 l 1
 152 325 l 1
 152 35 l 2
 152 25 148.666992188 16.6669921875 142 10 c 0
 135.333007812 3.3330078125 127 0 117 0 c 0
EndSplineSet
Validated: 524289
EndChar

StartChar: I
Encoding: 73 73 44
Width: 560
GlyphClass: 1
Flags: W
HStem: 0 70<85.3137 245 315 474.686> 630 70<85.3137 245 315 474.686>
VStem: 245 70<70 630>
LayerCount: 2
Fore
SplineSet
110 0 m 2
 100 0 91.6669921875 3.3330078125 85 10 c 0
 78.3330078125 16.6669921875 75 25 75 35 c 0
 75 45 78.3330078125 53.3330078125 85 60 c 0
 91.6669921875 66.6669921875 100 70 110 70 c 2
 245 70 l 1
 245 630 l 1
 110 630 l 2
 100 630 91.6669921875 633.333007812 85 640 c 0
 78.3330078125 646.666992188 75 655 75 665 c 0
 75 675 78.3330078125 683.333007812 85 690 c 0
 91.6669921875 696.666992188 100 700 110 700 c 2
 450 700 l 2
 460 700 468.333007812 696.666992188 475 690 c 0
 481.666992188 683.333007812 485 675 485 665 c 0
 485 655 481.666992188 646.666992188 475 640 c 0
 468.333007812 633.333007812 460 630 450 630 c 2
 315 630 l 1
 315 70 l 1
 450 70 l 2
 460 70 468.333007812 66.6669921875 475 60 c 0
 481.666992188 53.3330078125 485 45 485 35 c 0
 485 25 481.666992188 16.6669921875 475 10 c 0
 468.333007812 3.3330078125 460 0 450 0 c 2
 110 0 l 2
EndSplineSet
Validated: 524289
EndChar

StartChar: J
Encoding: 74 74 45
Width: 560
GlyphClass: 1
Flags: W
HStem: -8 70<186.359 337.334> 680 20G<408 418.333>
VStem: 72.001 70<106.991 203.687> 378 70<103.987 689.686>
LayerCount: 2
Fore
SplineSet
261 -8 m 0
 224.333007812 -8 191.66796875 0.0009765625 163.000976562 16.0009765625 c 0
 134.333984375 32.0009765625 112.000976562 54.0009765625 96.0009765625 82.0009765625 c 0
 80.0009765625 110.000976562 72.0009765625 142.333984375 72.0009765625 179.000976562 c 0
 72.0009765625 189.000976562 75.333984375 197.333984375 82.0009765625 204.000976562 c 0
 88.66796875 210.66796875 97.0009765625 214.000976562 107.000976562 214.000976562 c 0
 117.000976562 214.000976562 125.333984375 210.66796875 132.000976562 204.000976562 c 0
 138.66796875 197.333984375 142.000976562 189.000976562 142.000976562 179.000976562 c 0
 142.000976562 146.333984375 152.16796875 118.666992188 172.500976562 96 c 0
 192.833984375 73.3330078125 222.333984375 62 261.000976562 62 c 0
 300.333984375 62 329.666992188 72.8330078125 349 94.5 c 0
 368.333007812 116.166992188 378 143.666992188 378 177 c 2
 378 665 l 2
 378 675 381.333007812 683.333007812 388 690 c 0
 394.666992188 696.666992188 403 700 413 700 c 0
 423.666992188 700 432.166992188 696.666992188 438.5 690 c 0
 444.833007812 683.333007812 448 675 448 665 c 2
 448 177 l 2
 448 140.333007812 440 108 424 80 c 0
 408 52 386 30.3330078125 358 15 c 0
 330 -0.3330078125 297.666992188 -8 261 -8 c 0
EndSplineSet
Validated: 524289
EndChar

StartChar: K
Encoding: 75 75 46
Width: 560
GlyphClass: 1
Flags: W
HStem: 0 21G<110 120 470 481.333> 679.997 20G<110.001 120.001 427.001 437.001>
VStem: 80.001 69.999<10.3137 323 421.997 689.683>
LayerCount: 2
Fore
SplineSet
115 0 m 0
 105 0 96.66796875 3.330078125 90.0009765625 9.9970703125 c 0
 83.333984375 16.6640625 80.0009765625 24.9970703125 80.0009765625 34.9970703125 c 2
 80.0009765625 664.997070312 l 2
 80.0009765625 674.997070312 83.333984375 683.330078125 90.0009765625 689.997070312 c 0
 96.66796875 696.6640625 105.000976562 699.997070312 115.000976562 699.997070312 c 0
 125.000976562 699.997070312 133.333984375 696.6640625 140.000976562 689.997070312 c 0
 146.66796875 683.330078125 150.000976562 674.997070312 150.000976562 664.997070312 c 2
 150.000976562 421.997070312 l 1
 406.000976562 687.997070312 l 2
 413.333984375 695.997070312 422.000976562 699.997070312 432.000976562 699.997070312 c 0
 442.000976562 699.997070312 450.333984375 696.830078125 457.000976562 690.497070312 c 0
 463.66796875 684.1640625 467.000976562 675.331054688 467.000976562 663.998046875 c 0
 467.000976562 654.665039062 463.333984375 646.33203125 456.000976562 638.999023438 c 2
 257.000976562 433.999023438 l 1
 505.000976562 55.9990234375 l 2
 507.000976562 53.33203125 508.66796875 50.33203125 510.000976562 46.9990234375 c 0
 511.333984375 43.666015625 512.000976562 39.3330078125 512.000976562 34 c 0
 512.000976562 25.3330078125 508.66796875 17.5 502.000976562 10.5 c 0
 495.333984375 3.5 486.666992188 0 476 0 c 0
 464 0 454.333007812 5.6669921875 447 17 c 2
 208 383 l 1
 150 323 l 1
 150 35 l 2
 150 25 146.666992188 16.6669921875 140 10 c 0
 133.333007812 3.3330078125 125 0 115 0 c 0
EndSplineSet
Validated: 524289
EndChar

StartChar: L
Encoding: 76 76 47
Width: 560
GlyphClass: 1
Flags: W
HStem: 0 70<172 468.202> 680 20G<132 142>
VStem: 102 70<70 689.686>
LayerCount: 2
Fore
SplineSet
137 0 m 2
 127 0 118.666992188 3.3330078125 112 10 c 0
 105.333007812 16.6669921875 102 25 102 35 c 2
 102 665 l 2
 102 675 105.333007812 683.333007812 112 690 c 0
 118.666992188 696.666992188 127 700 137 700 c 0
 147 700 155.333007812 696.666992188 162 690 c 0
 168.666992188 683.333007812 172 675 172 665 c 2
 172 70 l 1
 443 70 l 2
 453.666992188 70 462.166992188 66.6669921875 468.5 60 c 0
 474.833007812 53.3330078125 478 45 478 35 c 0
 478 25 474.833007812 16.6669921875 468.5 10 c 0
 462.166992188 3.3330078125 453.666992188 0 443 0 c 2
 137 0 l 2
EndSplineSet
Validated: 524289
EndChar

StartChar: M
Encoding: 77 77 48
Width: 560
GlyphClass: 1
Flags: W
HStem: 0 21G<82 92 468 478.333> 687 20G<82.3335 94.6665 465.333 478>
VStem: 52 70<10.3137 516 687 704.417> 438 70<10.3137 516 687 704.637>
LayerCount: 2
Fore
SplineSet
87 0 m 0
 77 0 68.6669921875 3.3330078125 62 10 c 0
 55.3330078125 16.6669921875 52 25 52 35 c 2
 52 675 l 2
 52 683 55.5 690.333007812 62.5 697 c 0
 69.5 703.666992188 77.6669921875 707 87 707 c 0
 102.333007812 707 113.333007812 700.333007812 120 687 c 2
 280 358 l 1
 441 687 l 2
 447 700.333007812 457.666992188 707 473 707 c 0
 483 707 491.333007812 703.666992188 498 697 c 0
 504.666992188 690.333007812 508 683 508 675 c 2
 508 35 l 2
 508 25 504.833007812 16.6669921875 498.5 10 c 0
 492.166992188 3.3330078125 483.666992188 0 473 0 c 0
 463 0 454.666992188 3.3330078125 448 10 c 0
 441.333007812 16.6669921875 438 25 438 35 c 2
 438 516 l 1
 312 260 l 2
 306 246.666992188 295.333007812 240 280 240 c 0
 264.666992188 240 254 246.666992188 248 260 c 2
 122 516 l 1
 122 35 l 2
 122 25 118.666992188 16.6669921875 112 10 c 0
 105.333007812 3.3330078125 97 0 87 0 c 0
EndSplineSet
Validated: 524289
Substitution2: "'ss03' Style Set 3 in Latin lookup 51 subtable" M.ss03
Substitution2: "'aalt' Access All Alternates in Latin lookup 0 subtable" M.ss03
EndChar

StartChar: N
Encoding: 78 78 49
Width: 560
GlyphClass: 1
Flags: W
HStem: 0 21G<102 112 445 458> 681.001 20G<102.333 110.667 448 458.333>
VStem: 72 70<10.3157 535> 418 70<166.001 689.687>
LayerCount: 2
Fore
SplineSet
107 0 m 0
 97 0 88.6669921875 3.3349609375 82 10.001953125 c 0
 75.3330078125 16.6689453125 72 25.001953125 72 35.001953125 c 2
 72 665.001953125 l 2
 72 676.334960938 75.5 685.16796875 82.5 691.500976562 c 0
 89.5 697.833984375 97.6669921875 701.000976562 107 701.000976562 c 0
 114.333007812 701.000976562 121.333007812 699.500976562 128 696.500976562 c 0
 134.666992188 693.500976562 139.666992188 688.66796875 143 682.000976562 c 2
 418 166.000976562 l 1
 418 665.000976562 l 2
 418 675.000976562 421.333007812 683.333984375 428 690.000976562 c 0
 434.666992188 696.66796875 443 700.000976562 453 700.000976562 c 0
 463.666992188 700.000976562 472.166992188 696.66796875 478.5 690.000976562 c 0
 484.833007812 683.333984375 488 675.000976562 488 665.000976562 c 2
 488 36.0009765625 l 2
 488 25.333984375 484.666992188 16.6669921875 478 10 c 0
 471.333007812 3.3330078125 463 0 453 0 c 0
 437 0 425 6.3330078125 417 19 c 2
 142 535 l 1
 142 35 l 2
 142 25 138.666992188 16.6669921875 132 10 c 0
 125.333007812 3.3330078125 117 0 107 0 c 0
EndSplineSet
Validated: 524289
Substitution2: "'ss03' Style Set 3 in Latin lookup 51 subtable" N.ss03
Substitution2: "'aalt' Access All Alternates in Latin lookup 0 subtable" N.ss03
EndChar

StartChar: O
Encoding: 79 79 50
Width: 560
GlyphClass: 1
Flags: W
HStem: -8 70<214.501 345.499> 637.999 70.002<214.501 345.499>
VStem: 61.999 70.001<182.357 517.91> 428 70.001<182.357 517.91>
LayerCount: 2
Fore
SplineSet
280 -8 m 0
 242 -8 209.166992188 1.6669921875 181.5 21 c 0
 153.833007812 40.3330078125 131.166015625 66.8330078125 113.499023438 100.5 c 0
 95.83203125 134.166992188 82.83203125 172.5 74.4990234375 215.5 c 0
 66.166015625 258.5 61.9990234375 303.333007812 61.9990234375 350 c 0
 61.9990234375 397.333007812 66.166015625 442.333007812 74.4990234375 485 c 0
 82.83203125 527.666992188 95.83203125 565.833984375 113.499023438 599.500976562 c 0
 131.166015625 633.16796875 153.833007812 659.66796875 181.5 679.000976562 c 0
 209.166992188 698.333984375 242 708.000976562 280 708.000976562 c 0
 318 708.000976562 350.833007812 698.333984375 378.5 679.000976562 c 0
 406.166992188 659.66796875 428.833984375 633.16796875 446.500976562 599.500976562 c 0
 464.16796875 565.833984375 477.16796875 527.666992188 485.500976562 485 c 0
 493.833984375 442.333007812 498.000976562 397.333007812 498.000976562 350 c 0
 498.000976562 303.333007812 493.833984375 258.5 485.500976562 215.5 c 0
 477.16796875 172.5 464.16796875 134.166992188 446.500976562 100.5 c 0
 428.833984375 66.8330078125 406.166992188 40.3330078125 378.5 21 c 0
 350.833007812 1.6669921875 318 -8 280 -8 c 0
280 62 m 0
 306.666992188 62 329.5 70 348.5 86 c 0
 367.5 102 382.833007812 123.5 394.5 150.5 c 0
 406.166992188 177.5 414.666992188 208.333007812 420 243 c 0
 425.333007812 277.666992188 428 313.333984375 428 350.000976562 c 0
 428 387.333984375 425.333007812 423.166992188 420 457.5 c 0
 414.666992188 491.833007812 406.166992188 522.666015625 394.5 549.999023438 c 0
 382.833007812 577.33203125 367.5 598.83203125 348.5 614.499023438 c 0
 329.5 630.166015625 306.666992188 637.999023438 280 637.999023438 c 0
 253.333007812 637.999023438 230.5 630.166015625 211.5 614.499023438 c 0
 192.5 598.83203125 177.166992188 577.33203125 165.5 549.999023438 c 0
 153.833007812 522.666015625 145.333007812 491.833007812 140 457.5 c 0
 134.666992188 423.166992188 132 387.333984375 132 350.000976562 c 0
 132 313.333984375 134.666992188 277.666992188 140 243 c 0
 145.333007812 208.333007812 153.833007812 177.5 165.5 150.5 c 0
 177.166992188 123.5 192.5 102 211.5 86 c 0
 230.5 70 253.333007812 62 280 62 c 0
EndSplineSet
Validated: 524289
Substitution2: "'ss03' Style Set 3 in Latin lookup 51 subtable" O.ss03
Substitution2: "'aalt' Access All Alternates in Latin lookup 0 subtable" O.ss03
EndChar

StartChar: P
Encoding: 80 80 51
Width: 560
GlyphClass: 1
Flags: W
HStem: 0 21G<122 132> 289 69.999<162 374.315> 629.999 70<162 375.126>
VStem: 92 70<10.3137 289 358.999 629.999> 428.001 69.999<414.401 575.305>
LayerCount: 2
Fore
SplineSet
127 0 m 0
 117 0 108.666992188 3.33203125 102 9.9990234375 c 0
 95.3330078125 16.666015625 92 24.9990234375 92 34.9990234375 c 2
 92 664.999023438 l 2
 92 674.999023438 95.3330078125 683.33203125 102 689.999023438 c 0
 108.666992188 696.666015625 117 699.999023438 127 699.999023438 c 2
 296 699.999023438 l 2
 339.333007812 699.999023438 376 691.166015625 406 673.499023438 c 0
 436 655.83203125 458.833007812 631.499023438 474.5 600.499023438 c 0
 490.166992188 569.499023438 498 534.33203125 498 494.999023438 c 0
 498 455.666015625 490.166992188 420.333007812 474.5 389 c 0
 458.833007812 357.666992188 436 333.166992188 406 315.5 c 0
 376 297.833007812 339.333007812 289 296 289 c 2
 162 289 l 1
 162 35 l 2
 162 25 158.666992188 16.6669921875 152 10 c 0
 145.333007812 3.3330078125 137 0 127 0 c 0
162 358.999023438 m 1
 296 359 l 2
 338.666992188 359 371.333984375 371.833007812 394.000976562 397.5 c 0
 416.66796875 423.166992188 428.000976562 455.666992188 428.000976562 495 c 0
 428.000976562 534.333007812 416.66796875 566.666015625 394.000976562 591.999023438 c 0
 371.333984375 617.33203125 338.666992188 629.999023438 296 629.999023438 c 2
 162 629.999023438 l 1
 162 358.999023438 l 1
EndSplineSet
Validated: 524289
EndChar

StartChar: Q
Encoding: 81 81 52
Width: 560
GlyphClass: 1
Flags: W
HStem: 637.998 70.001<214.5 345.498>
VStem: 61.998 70<184.797 517.909> 244.998 70.002<-167.686 0.291894 68 227.686> 427.998 70.002<183.967 517.909>
LayerCount: 2
Fore
SplineSet
280 -178 m 0
 270 -178 261.665039062 -174.666992188 254.998046875 -168 c 0
 248.331054688 -161.333007812 244.998046875 -153 244.998046875 -143 c 2
 244.998046875 -5 l 1
 202.331054688 3 167.498046875 24.1669921875 140.498046875 58.5 c 0
 113.498046875 92.8330078125 93.6650390625 135.666015625 80.998046875 186.999023438 c 0
 68.3310546875 238.33203125 61.998046875 292.665039062 61.998046875 349.998046875 c 0
 61.998046875 397.331054688 66.1650390625 442.331054688 74.498046875 484.998046875 c 0
 82.8310546875 527.665039062 95.8310546875 565.83203125 113.498046875 599.499023438 c 0
 131.165039062 633.166015625 153.83203125 659.666015625 181.499023438 678.999023438 c 0
 209.166015625 698.33203125 241.999023438 707.999023438 279.999023438 707.999023438 c 0
 317.999023438 707.999023438 350.83203125 698.33203125 378.499023438 678.999023438 c 0
 406.166015625 659.666015625 428.833007812 633.166015625 446.5 599.499023438 c 0
 464.166992188 565.83203125 477.166992188 527.665039062 485.5 484.998046875 c 0
 493.833007812 442.331054688 498 397.331054688 498 349.998046875 c 0
 498 292.665039062 491.666992188 238.33203125 479 186.999023438 c 0
 466.333007812 135.666015625 446.5 92.8330078125 419.5 58.5 c 0
 392.5 24.1669921875 357.666992188 3 315 -5 c 1
 315 -143 l 2
 315 -153 311.666992188 -161.333007812 305 -168 c 0
 298.333007812 -174.666992188 290 -178 280 -178 c 0
131.998046875 350 m 0
 131.998046875 306.666992188 135.830078125 265.166992188 143.497070312 225.5 c 0
 151.1640625 185.833007812 163.331054688 152 179.998046875 124 c 0
 196.665039062 96 218.33203125 77.3330078125 244.999023438 68 c 1
 244.999023438 203 l 2
 244.999023438 213 248.33203125 221.333007812 254.999023438 228 c 0
 261.666015625 234.666992188 269.999023438 238 279.999023438 238 c 0
 289.999023438 238 298.33203125 234.666992188 304.999023438 228 c 0
 311.666015625 221.333007812 314.999023438 213 314.999023438 203 c 2
 314.999023438 68 l 1
 342.33203125 77.3330078125 364.165039062 96 380.498046875 124 c 0
 396.831054688 152 408.831054688 185.833007812 416.498046875 225.5 c 0
 424.165039062 265.166992188 427.998046875 306.666992188 427.998046875 350 c 0
 427.998046875 387.333007812 425.331054688 423.166015625 419.998046875 457.499023438 c 0
 414.665039062 491.83203125 406.165039062 522.665039062 394.498046875 549.998046875 c 0
 382.831054688 577.331054688 367.498046875 598.831054688 348.498046875 614.498046875 c 0
 329.498046875 630.165039062 306.665039062 637.998046875 279.998046875 637.998046875 c 0
 253.331054688 637.998046875 230.498046875 630.165039062 211.498046875 614.498046875 c 0
 192.498046875 598.831054688 177.165039062 577.331054688 165.498046875 549.998046875 c 0
 153.831054688 522.665039062 145.331054688 491.83203125 139.998046875 457.499023438 c 0
 134.665039062 423.166015625 131.998046875 387.333007812 131.998046875 350 c 0
EndSplineSet
Validated: 524289
Substitution2: "'ss03' Style Set 3 in Latin lookup 51 subtable" Q.ss03
Substitution2: "'aalt' Access All Alternates in Latin lookup 0 subtable" Q.ss03
EndChar

StartChar: R
Encoding: 82 82 53
Width: 560
GlyphClass: 1
Flags: W
HStem: 0 21G<110 120 466 477.333> 320 70.001<150.001 245> 630.001 70<150.001 333.413>
VStem: 80.001 69.999<10.3147 320 390.001 630.001> 380.001 70<437.775 581.68>
LayerCount: 2
Fore
SplineSet
115 0 m 0
 105 0 96.66796875 3.333984375 90.0009765625 10.0009765625 c 0
 83.333984375 16.66796875 80.0009765625 25.0009765625 80.0009765625 35.0009765625 c 2
 80.0009765625 665.000976562 l 2
 80.0009765625 675.000976562 83.333984375 683.333984375 90.0009765625 690.000976562 c 0
 96.66796875 696.66796875 105.000976562 700.000976562 115.000976562 700.000976562 c 2
 256.000976562 700.000976562 l 2
 299.333984375 700.000976562 335.333984375 691.333984375 364.000976562 674.000976562 c 0
 392.66796875 656.66796875 414.16796875 633.66796875 428.500976562 605.000976562 c 0
 442.833984375 576.333984375 450.000976562 544.666992188 450.000976562 510 c 0
 450.000976562 467.333007812 439.500976562 429.5 418.500976562 396.5 c 0
 397.500976562 363.5 365.333984375 341 322.000976562 329 c 1
 500.000976562 56 l 2
 505.333984375 49.3330078125 508.000976562 42 508.000976562 34 c 0
 508.000976562 25.3330078125 504.66796875 17.5 498.000976562 10.5 c 0
 491.333984375 3.5 482.666992188 0 472 0 c 0
 460 0 450.333007812 5.6669921875 443 17 c 2
 245 320 l 1
 150 320 l 1
 150 35 l 2
 150 25 146.666992188 16.6669921875 140 10 c 0
 133.333007812 3.3330078125 125 0 115 0 c 0
150.000976562 390.000976562 m 1
 256.000976562 390.002929688 l 2
 298.66796875 390.002929688 330.000976562 402.169921875 350.000976562 426.502929688 c 0
 370.000976562 450.8359375 380.000976562 478.668945312 380.000976562 510.001953125 c 0
 380.000976562 541.334960938 370.000976562 569.16796875 350.000976562 593.500976562 c 0
 330.000976562 617.833984375 298.66796875 630.000976562 256.000976562 630.000976562 c 2
 150.000976562 630.000976562 l 1
 150.000976562 390.000976562 l 1
EndSplineSet
Validated: 524289
EndChar

StartChar: S
Encoding: 83 83 54
Width: 560
GlyphClass: 1
Flags: W
HStem: -7 70.0039<190.157 362.136> 638.003 70<199.577 353.854>
VStem: 91.001 69.999<456.476 598.546> 415.001 69.999<113.515 253.314>
LayerCount: 2
Fore
SplineSet
280 -7 m 0
 242.666992188 -7 206.833984375 0.8369140625 172.500976562 16.50390625 c 0
 138.16796875 32.1708984375 109.334960938 54.6708984375 86.001953125 84.00390625 c 0
 78.6689453125 94.6708984375 75.001953125 104.00390625 75.001953125 112.00390625 c 0
 75.001953125 121.336914062 78.501953125 129.336914062 85.501953125 136.00390625 c 0
 92.501953125 142.670898438 100.334960938 146.00390625 109.001953125 146.00390625 c 0
 121.001953125 146.00390625 132.001953125 140.00390625 142.001953125 128.00390625 c 0
 174.001953125 84.6708984375 220.001953125 63.00390625 280.001953125 63.00390625 c 0
 319.334960938 63.00390625 351.66796875 73.8369140625 377.000976562 95.50390625 c 0
 402.333984375 117.170898438 415.000976562 147.670898438 415.000976562 187.00390625 c 0
 415.000976562 214.336914062 407.16796875 237.50390625 391.500976562 256.50390625 c 0
 375.833984375 275.50390625 350.333984375 292.00390625 315.000976562 306.00390625 c 2
 218.000976562 347.00390625 l 2
 170.66796875 366.336914062 137.66796875 392.669921875 119.000976562 426.002929688 c 0
 100.333984375 459.3359375 91.0009765625 495.3359375 91.0009765625 534.002929688 c 0
 91.0009765625 566.002929688 98.333984375 595.169921875 113.000976562 621.502929688 c 0
 127.66796875 647.8359375 148.834960938 668.8359375 176.501953125 684.502929688 c 0
 204.168945312 700.169921875 237.001953125 708.002929688 275.001953125 708.002929688 c 0
 310.334960938 708.002929688 343.334960938 700.169921875 374.001953125 684.502929688 c 0
 404.668945312 668.8359375 431.668945312 646.668945312 455.001953125 618.001953125 c 0
 458.334960938 613.334960938 461.16796875 608.834960938 463.500976562 604.501953125 c 0
 465.833984375 600.168945312 467.000976562 595.3359375 467.000976562 590.002929688 c 0
 467.000976562 580.669921875 463.333984375 572.669921875 456.000976562 566.002929688 c 0
 448.66796875 559.3359375 440.66796875 556.002929688 432.000976562 556.002929688 c 0
 420.000976562 556.002929688 409.000976562 562.002929688 399.000976562 574.002929688 c 0
 382.333984375 595.3359375 364.000976562 611.3359375 344.000976562 622.002929688 c 0
 324.000976562 632.669921875 301.000976562 638.002929688 275.000976562 638.002929688 c 0
 236.333984375 638.002929688 207.666992188 627.502929688 189 606.502929688 c 0
 170.333007812 585.502929688 161 561.3359375 161 534.002929688 c 0
 161 509.3359375 166.666992188 486.168945312 178 464.501953125 c 0
 189.333007812 442.834960938 212.333007812 425.001953125 247 411.001953125 c 2
 344 370.001953125 l 2
 438 332.668945312 485 271.668945312 485 187.001953125 c 0
 485 144.334960938 475.5 108.66796875 456.5 80.0009765625 c 0
 437.5 51.333984375 412.5 29.6669921875 381.5 15 c 0
 350.5 0.3330078125 316.666992188 -7 280 -7 c 0
EndSplineSet
Validated: 524289
EndChar

StartChar: T
Encoding: 84 84 55
Width: 560
GlyphClass: 1
Flags: W
HStem: 0 21G<275 285> 630 70<72.3137 245 315 488.202>
VStem: 245 70<10.3137 630>
LayerCount: 2
Fore
SplineSet
280 0 m 0
 270 0 261.666992188 3.3330078125 255 10 c 0
 248.333007812 16.6669921875 245 25 245 35 c 2
 245 630 l 1
 97 630 l 2
 87 630 78.6669921875 633.333007812 72 640 c 0
 65.3330078125 646.666992188 62 655 62 665 c 0
 62 675 65.3330078125 683.333007812 72 690 c 0
 78.6669921875 696.666992188 87 700 97 700 c 2
 463 700 l 2
 473.666992188 700 482.166992188 696.666992188 488.5 690 c 0
 494.833007812 683.333007812 498 675 498 665 c 0
 498 655 494.833007812 646.666992188 488.5 640 c 0
 482.166992188 633.333007812 473.666992188 630 463 630 c 2
 315 630 l 1
 315 35 l 2
 315 25 311.666992188 16.6669921875 305 10 c 0
 298.333007812 3.3330078125 290 0 280 0 c 0
EndSplineSet
Validated: 524289
EndChar

StartChar: U
Encoding: 85 85 56
Width: 560
GlyphClass: 1
Flags: W
HStem: -8 70.002<198.734 361.517> 680 20G<102.001 112.001 448.001 458.334>
VStem: 72.001 70<123.259 689.686> 418.001 70<123.259 689.686>
LayerCount: 2
Fore
SplineSet
280 -8 m 0
 233.333007812 -8 194.66796875 2.1669921875 164.000976562 22.5 c 0
 133.333984375 42.8330078125 110.333984375 70.3330078125 95.0009765625 105 c 0
 79.66796875 139.666992188 72.0009765625 178.666992188 72.0009765625 222 c 2
 72.0009765625 665 l 2
 72.0009765625 675 75.333984375 683.333007812 82.0009765625 690 c 0
 88.66796875 696.666992188 97.0009765625 700 107.000976562 700 c 0
 117.000976562 700 125.333984375 696.666992188 132.000976562 690 c 0
 138.66796875 683.333007812 142.000976562 675 142.000976562 665 c 2
 142.000976562 222 l 2
 142.000976562 192.666992188 146.500976562 165.833984375 155.500976562 141.500976562 c 0
 164.500976562 117.16796875 179.000976562 97.8349609375 199.000976562 83.501953125 c 0
 219.000976562 69.1689453125 246.000976562 62.001953125 280.000976562 62.001953125 c 0
 314.000976562 62.001953125 341.16796875 69.1689453125 361.500976562 83.501953125 c 0
 381.833984375 97.8349609375 396.333984375 117.16796875 405.000976562 141.500976562 c 0
 413.66796875 165.833984375 418.000976562 192.666992188 418.000976562 222 c 2
 418.000976562 665 l 2
 418.000976562 675 421.333984375 683.333007812 428.000976562 690 c 0
 434.66796875 696.666992188 443.000976562 700 453.000976562 700 c 0
 463.66796875 700 472.16796875 696.666992188 478.500976562 690 c 0
 484.833984375 683.333007812 488.000976562 675 488.000976562 665 c 2
 488.000976562 222 l 2
 488.000976562 178.666992188 480.333984375 139.666992188 465.000976562 105 c 0
 449.66796875 70.3330078125 426.66796875 42.8330078125 396.000976562 22.5 c 0
 365.333984375 2.1669921875 326.666992188 -8 280 -8 c 0
EndSplineSet
Validated: 524289
Substitution2: "'ss03' Style Set 3 in Latin lookup 51 subtable" U.ss03
Substitution2: "'aalt' Access All Alternates in Latin lookup 0 subtable" U.ss03
EndChar

StartChar: V
Encoding: 86 86 57
Width: 560
GlyphClass: 1
Flags: W
HStem: -2 21G<271.333 284> 679.999 20G<61.6675 69.6675 485.667 498.667>
VStem: 32.001 67.999<676.999 697.742>
LayerCount: 2
Fore
SplineSet
280 -2 m 0
 262.666992188 -2 251.000976562 6.3330078125 245.000976562 23 c 2
 34.0009765625 652 l 2
 33.333984375 655.333007812 32.833984375 658 32.5009765625 660 c 0
 32.16796875 662 32.0009765625 664.333007812 32.0009765625 667 c 0
 32.0009765625 676.333007812 35.5009765625 684.166015625 42.5009765625 690.499023438 c 0
 49.5009765625 696.83203125 57.333984375 699.999023438 66.0009765625 699.999023438 c 0
 73.333984375 699.999023438 80.1669921875 698.166015625 86.5 694.499023438 c 0
 92.8330078125 690.83203125 97.3330078125 684.999023438 100 676.999023438 c 2
 280 133.999023438 l 1
 460 676.999023438 l 2
 466 692.33203125 477.333007812 699.999023438 494 699.999023438 c 0
 503.333007812 699.999023438 511.333007812 696.83203125 518 690.499023438 c 0
 524.666992188 684.166015625 528 676.333007812 528 667 c 2
 528 660 l 2
 528 658 527.333007812 655.333007812 526 652 c 2
 315 23 l 2
 312.333007812 14.3330078125 307.833007812 8 301.5 4 c 0
 295.166992188 0 288 -2 280 -2 c 0
EndSplineSet
Validated: 524289
EndChar

StartChar: W
Encoding: 87 87 58
Width: 560
GlyphClass: 1
Flags: W
HStem: 0 21G<175.333 194.333 365.668 384.668> 680.001 20G<63.3354 77.3354 483.335 497.668>
VStem: 151.003 68.998<2.1167 67.1356>
LayerCount: 2
Fore
SplineSet
185 0 m 0
 165.666992188 0 154.3359375 10 151.002929688 30 c 2
 33.0029296875 656 l 2
 32.3359375 660.666992188 32.0029296875 664.333984375 32.0029296875 667.000976562 c 0
 32.0029296875 677.000976562 35.669921875 685.000976562 43.0029296875 691.000976562 c 0
 50.3359375 697.000976562 58.6689453125 700.000976562 68.001953125 700.000976562 c 0
 86.6689453125 700.000976562 98.001953125 690.000976562 102.001953125 670.000976562 c 2
 184.001953125 229.000976562 l 1
 247.001953125 546.000976562 l 2
 248.334960938 554.66796875 252.334960938 561.000976562 259.001953125 565.000976562 c 0
 265.668945312 569.000976562 272.668945312 571.000976562 280.001953125 571.000976562 c 0
 287.334960938 571.000976562 294.334960938 569.000976562 301.001953125 565.000976562 c 0
 307.668945312 561.000976562 311.668945312 554.66796875 313.001953125 546.000976562 c 2
 376.001953125 229.000976562 l 1
 458.001953125 670.000976562 l 2
 462.001953125 690.000976562 473.668945312 700.000976562 493.001953125 700.000976562 c 0
 502.334960938 700.000976562 510.501953125 697.000976562 517.501953125 691.000976562 c 0
 524.501953125 685.000976562 528.001953125 677.000976562 528.001953125 667.000976562 c 0
 528.001953125 664.333984375 527.668945312 660.666992188 527.001953125 656 c 2
 410.001953125 30 l 2
 406.001953125 10 394.334960938 0 375.001953125 0 c 0
 356.334960938 0 344.66796875 10 340.000976562 30 c 2
 280.000976562 370 l 1
 220.000976562 30 l 2
 215.333984375 10 203.666992188 0 185 0 c 0
EndSplineSet
Validated: 524289
Substitution2: "'ss03' Style Set 3 in Latin lookup 51 subtable" W.ss03
Substitution2: "'aalt' Access All Alternates in Latin lookup 0 subtable" W.ss03
EndChar

StartChar: X
Encoding: 88 88 59
Width: 560
GlyphClass: 1
Flags: W
HStem: 0 21G<69.6665 81 479 490.333> 679.998 20G<69.6665 81 479 490.333>
LayerCount: 2
Fore
SplineSet
75 0 m 0
 64.3330078125 0 55.666015625 3.5 48.9990234375 10.5 c 0
 42.33203125 17.5 38.9990234375 25.3330078125 38.9990234375 34 c 0
 38.9990234375 39.3330078125 39.666015625 43.666015625 40.9990234375 46.9990234375 c 0
 42.33203125 50.33203125 43.9990234375 53.33203125 45.9990234375 55.9990234375 c 2
 237.999023438 349.999023438 l 1
 45.9990234375 643.999023438 l 2
 41.33203125 651.33203125 38.9990234375 658.665039062 38.9990234375 665.998046875 c 0
 38.9990234375 674.665039062 42.33203125 682.498046875 48.9990234375 689.498046875 c 0
 55.666015625 696.498046875 64.3330078125 699.998046875 75 699.998046875 c 0
 87 699.998046875 96.6669921875 694.331054688 104 682.998046875 c 2
 280 413.998046875 l 1
 456 682.998046875 l 2
 463.333007812 694.331054688 473 699.998046875 485 699.998046875 c 0
 495.666992188 699.998046875 504.333984375 696.498046875 511.000976562 689.498046875 c 0
 517.66796875 682.498046875 521.000976562 674.665039062 521.000976562 665.998046875 c 0
 521.000976562 658.665039062 518.66796875 651.33203125 514.000976562 643.999023438 c 2
 323.000976562 349.999023438 l 1
 514.000976562 55.9990234375 l 2
 516.000976562 53.33203125 517.66796875 50.33203125 519.000976562 46.9990234375 c 0
 520.333984375 43.666015625 521.000976562 39.3330078125 521.000976562 34 c 0
 521.000976562 25.3330078125 517.66796875 17.5 511.000976562 10.5 c 0
 504.333984375 3.5 495.666992188 0 485 0 c 0
 473 0 463.333007812 5.6669921875 456 17 c 2
 280 286 l 1
 104 17 l 2
 96.6669921875 5.6669921875 87 0 75 0 c 0
EndSplineSet
Validated: 524289
EndChar

StartChar: Y
Encoding: 89 89 60
Width: 560
GlyphClass: 1
Flags: W
HStem: 0 21G<275 285> 679.999 20G<62.6685 74.002 489.333 498.333>
VStem: 245.001 69.999<10.3137 324>
LayerCount: 2
Fore
SplineSet
280 0 m 0
 270 0 261.66796875 3.3330078125 255.000976562 10 c 0
 248.333984375 16.6669921875 245.000976562 25 245.000976562 35 c 2
 245.000976562 324 l 1
 42.0009765625 638 l 2
 37.333984375 645.333007812 34.5009765625 651.166015625 33.5009765625 655.499023438 c 0
 32.5009765625 659.83203125 32.0009765625 663.33203125 32.0009765625 665.999023438 c 0
 32.0009765625 675.33203125 35.333984375 683.33203125 42.0009765625 689.999023438 c 0
 48.66796875 696.666015625 57.3349609375 699.999023438 68.001953125 699.999023438 c 0
 80.001953125 699.999023438 89.3349609375 694.666015625 96.001953125 683.999023438 c 2
 280.001953125 397.999023438 l 1
 464.001953125 683.999023438 l 2
 467.334960938 689.33203125 471.16796875 693.33203125 475.500976562 695.999023438 c 0
 479.833984375 698.666015625 485.666992188 699.999023438 493 699.999023438 c 0
 503.666992188 699.999023438 512.166992188 696.666015625 518.5 689.999023438 c 0
 524.833007812 683.33203125 528 675.33203125 528 665.999023438 c 0
 528 663.33203125 527.5 659.83203125 526.5 655.499023438 c 0
 525.5 651.166015625 522.666992188 645.333007812 518 638 c 2
 315 324 l 1
 315 35 l 2
 315 25 311.666992188 16.6669921875 305 10 c 0
 298.333007812 3.3330078125 290 0 280 0 c 0
EndSplineSet
Validated: 524289
EndChar

StartChar: Z
Encoding: 90 90 61
Width: 560
GlyphClass: 1
Flags: W
HStem: 0 70<149 497.686> 630 70<62.312 410.999>
LayerCount: 2
Fore
SplineSet
88 0 m 2
 77.3330078125 0 68.666015625 3.3310546875 61.9990234375 9.998046875 c 0
 55.33203125 16.6650390625 51.9990234375 24.33203125 51.9990234375 32.9990234375 c 0
 51.9990234375 37.666015625 52.4990234375 41.8330078125 53.4990234375 45.5 c 0
 54.4990234375 49.1669921875 56.33203125 53 58.9990234375 57 c 2
 410.999023438 630 l 1
 87.9990234375 630 l 2
 77.33203125 630 68.6650390625 633.333007812 61.998046875 640 c 0
 55.3310546875 646.666992188 51.998046875 655 51.998046875 665 c 0
 51.998046875 675 55.3310546875 683.333007812 61.998046875 690 c 0
 68.6650390625 696.666992188 77.33203125 700 87.9990234375 700 c 2
 471.999023438 700 l 2
 482.666015625 700 491.333007812 696.833007812 498 690.5 c 0
 504.666992188 684.166992188 508 676.333984375 508 667.000976562 c 0
 508 662.333984375 507.666992188 658.166992188 507 654.5 c 0
 506.333007812 650.833007812 504.333007812 647 501 643 c 2
 149 70 l 1
 473 70 l 2
 483 70 491.333007812 66.6669921875 498 60 c 0
 504.666992188 53.3330078125 508 45 508 35 c 0
 508 25 504.666992188 16.6669921875 498 10 c 0
 491.333007812 3.3330078125 483 0 473 0 c 2
 88 0 l 2
EndSplineSet
Validated: 524289
EndChar

StartChar: bracketleft
Encoding: 91 91 62
Width: 560
GlyphClass: 1
Flags: W
HStem: -140 70<232 424.686> 630 70<232 424.686>
VStem: 162 70<-70 630>
LayerCount: 2
Fore
SplineSet
197 -140 m 2
 187 -140 178.666992188 -136.666992188 172 -130 c 0
 165.333007812 -123.333007812 162 -115 162 -105 c 2
 162 665 l 2
 162 675 165.333007812 683.333007812 172 690 c 0
 178.666992188 696.666992188 187 700 197 700 c 2
 400 700 l 2
 410 700 418.333007812 696.666992188 425 690 c 0
 431.666992188 683.333007812 435 675 435 665 c 0
 435 655 431.666992188 646.666992188 425 640 c 0
 418.333007812 633.333007812 410 630 400 630 c 2
 232 630 l 1
 232 -70 l 1
 400 -70 l 2
 410 -70 418.333007812 -73.3330078125 425 -80 c 0
 431.666992188 -86.6669921875 435 -95 435 -105 c 0
 435 -115 431.666992188 -123.333007812 425 -130 c 0
 418.333007812 -136.666992188 410 -140 400 -140 c 2
 197 -140 l 2
EndSplineSet
Validated: 524289
Substitution2: "'case' Case-Sensitive Forms in Latin lookup 47 subtable" bracketleft.case
Substitution2: "'aalt' Access All Alternates in Latin lookup 0 subtable" bracketleft.case
EndChar

StartChar: backslash
Encoding: 92 92 63
Width: 560
GlyphClass: 1
Flags: W
VStem: 120 320
LayerCount: 2
Fore
SplineSet
404 -108 m 0
 414.666992188 -108 423.333007812 -104.500976562 430 -97.5009765625 c 0
 436.666992188 -90.5009765625 440 -82.333984375 440 -73.0009765625 c 0
 440 -68.333984375 439 -63.0009765625 437 -57.0009765625 c 2
 188 674.999023438 l 2
 182 691.666015625 171 699.999023438 155 699.999023438 c 0
 143.666992188 699.999023438 135 696.499023438 129 689.499023438 c 0
 123 682.499023438 120 674.33203125 120 664.999023438 c 0
 120 659.666015625 121 654.333007812 123 649 c 2
 372 -83 l 2
 377.333007812 -99.6669921875 388 -108 404 -108 c 0
EndSplineSet
Validated: 524297
EndChar

StartChar: bracketright
Encoding: 93 93 64
Width: 560
GlyphClass: 1
Flags: W
HStem: -140 70<135.314 160> 630 70<135.314 160>
VStem: 125 273<-129.686 -80.3137 640.314 689.686>
LayerCount: 2
Fore
SplineSet
363 -140 m 2
 373 -140 381.333007812 -136.666992188 388 -130 c 0
 394.666992188 -123.333007812 398 -115 398 -105 c 2
 398 665 l 2
 398 675 394.666992188 683.333007812 388 690 c 0
 381.333007812 696.666992188 373 700 363 700 c 2
 160 700 l 2
 150 700 141.666992188 696.666992188 135 690 c 0
 128.333007812 683.333007812 125 675 125 665 c 0
 125 655 128.333007812 646.666992188 135 640 c 0
 141.666992188 633.333007812 150 630 160 630 c 2
 328 630 l 1
 328 -70 l 1
 160 -70 l 2
 150 -70 141.666992188 -73.3330078125 135 -80 c 0
 128.333007812 -86.6669921875 125 -95 125 -105 c 0
 125 -115 128.333007812 -123.333007812 135 -130 c 0
 141.666992188 -136.666992188 150 -140 160 -140 c 2
 363 -140 l 2
EndSplineSet
Validated: 524297
Substitution2: "'case' Case-Sensitive Forms in Latin lookup 47 subtable" bracketright.case
Substitution2: "'aalt' Access All Alternates in Latin lookup 0 subtable" bracketright.case
EndChar

StartChar: asciicircum
Encoding: 94 94 65
Width: 560
GlyphClass: 1
Flags: W
HStem: 490 216.999
VStem: 163 234<514 529.333>
LayerCount: 2
Fore
SplineSet
198 490 m 0
 189.333007812 490 181.333007812 493.166992188 174 499.5 c 0
 166.666992188 505.833007812 163 514 163 524 c 0
 163 529.333007812 164.333007812 534.666015625 167 539.999023438 c 2
 227 671.999023438 l 2
 232.333007812 682.666015625 239.5 691.166015625 248.5 697.499023438 c 0
 257.5 703.83203125 268 706.999023438 280 706.999023438 c 0
 292 706.999023438 302.666992188 703.83203125 312 697.499023438 c 0
 321.333007812 691.166015625 328.333007812 682.666015625 333 671.999023438 c 2
 393 539.999023438 l 2
 395.666992188 534.666015625 397 529.333007812 397 524 c 0
 397 514 393.5 505.833007812 386.5 499.5 c 0
 379.5 493.166992188 371.333007812 490 362 490 c 0
 347.333007812 490 336.333007812 497.333007812 329 512 c 2
 280 620 l 1
 231 512 l 2
 225 497.333007812 214 490 198 490 c 0
EndSplineSet
Validated: 524289
EndChar

StartChar: underscore
Encoding: 95 95 66
Width: 560
GlyphClass: 1
Flags: W
HStem: -155 70<125.829 434.171>
VStem: 115 330<-144.686 -95.3137>
LayerCount: 2
Fore
SplineSet
151 -155 m 2
 141 -155 132.5 -151.666992188 125.5 -145 c 0
 118.5 -138.333007812 115 -130 115 -120 c 0
 115 -110 118.5 -101.666992188 125.5 -95 c 0
 132.5 -88.3330078125 141 -85 151 -85 c 2
 409 -85 l 2
 419 -85 427.5 -88.3330078125 434.5 -95 c 0
 441.5 -101.666992188 445 -110 445 -120 c 0
 445 -130 441.5 -138.333007812 434.5 -145 c 0
 427.5 -151.666992188 419 -155 409 -155 c 2
 151 -155 l 2
EndSplineSet
Validated: 524289
EndChar

StartChar: grave
Encoding: 96 96 67
Width: 560
GlyphClass: 1
Flags: W
HStem: 540 167
VStem: 200 155
LayerCount: 2
Fore
SplineSet
319 540 m 0
 309 540 300 544.66796875 292 554.000976562 c 2
 210 648.000976562 l 2
 203.333007812 655.333984375 200 664.000976562 200 674.000976562 c 0
 201.333007812 683.333984375 205.333007812 691.166992188 212 697.5 c 0
 218.666992188 703.833007812 226.666992188 707 236 707 c 0
 246 707 255.333007812 702.666992188 264 694 c 2
 346 600 l 2
 352 593.333007812 355 585 355 575 c 0
 355 565.666992188 351.5 557.5 344.5 550.5 c 0
 337.5 543.5 329 540 319 540 c 0
EndSplineSet
Validated: 524289
EndChar

StartChar: a
Encoding: 97 97 68
Width: 560
GlyphClass: 1
Flags: W
HStem: -8 65<202.877 316.343> 0 21G<390.001 400.001> 438 69.999<210.915 347.636>
VStem: 111.002 70<78.3985 200.745> 360.002 69.999<10.3137 60 102.378 277 334.896 423.507>
LayerCount: 2
Fore
SplineSet
243 -8 m 0xb8
 220.333007812 -8 199.001953125 -2.498046875 179.001953125 8.501953125 c 0
 159.001953125 19.501953125 142.668945312 36.1689453125 130.001953125 58.501953125 c 0
 117.334960938 80.8349609375 111.001953125 108.66796875 111.001953125 142.000976562 c 0
 111.001953125 182.66796875 121.168945312 216.000976562 141.501953125 242.000976562 c 0
 161.834960938 268.000976562 190.334960938 285.66796875 227.001953125 295.000976562 c 2
 290.001953125 312.000976562 l 2
 313.334960938 318.66796875 330.834960938 326.16796875 342.501953125 334.500976562 c 0
 354.168945312 342.833984375 360.001953125 356.666992188 360.001953125 376 c 0
 360.001953125 417.333007812 335.001953125 438 285.001953125 438 c 0
 260.334960938 438 239.66796875 433.333007812 223.000976562 424 c 0
 206.333984375 414.666992188 191.333984375 402 178.000976562 386 c 0
 173.333984375 380.666992188 168.833984375 377 164.500976562 375 c 0
 160.16796875 373 155.334960938 372 150.001953125 372 c 0
 141.334960938 372 133.334960938 375.166992188 126.001953125 381.5 c 0
 118.668945312 387.833007812 115.001953125 396.333007812 115.001953125 407 c 0
 115.001953125 410.333007812 115.668945312 414.166015625 117.001953125 418.499023438 c 0
 118.334960938 422.83203125 121.001953125 427.33203125 125.001953125 431.999023438 c 0
 146.334960938 457.33203125 169.66796875 476.33203125 195.000976562 488.999023438 c 0
 220.333984375 501.666015625 250.333984375 507.999023438 285.000976562 507.999023438 c 0
 329.000976562 507.999023438 364.16796875 496.33203125 390.500976562 472.999023438 c 0
 416.833984375 449.666015625 430.000976562 417.333007812 430.000976562 376 c 2
 430.000976562 35 l 2
 430.000976562 25 426.66796875 16.6669921875 420.000976562 10 c 0
 413.333984375 3.3330078125 405.000976562 0 395.000976562 0 c 0x78
 385.000976562 0 376.66796875 3.3330078125 370.000976562 10 c 0
 363.333984375 16.6669921875 360.000976562 25 360.000976562 35 c 2
 360.000976562 60 l 1
 349.333984375 39.3330078125 334.166992188 22.8330078125 314.5 10.5 c 0
 294.833007812 -1.8330078125 271 -8 243 -8 c 0xb8
181.001953125 142.001953125 m 0
 181.001953125 112.668945312 188.333984375 91.1669921875 203.000976562 77.5 c 0
 217.66796875 63.8330078125 235.334960938 57 256.001953125 57 c 0xb8
 283.334960938 57 307.501953125 68 328.501953125 90 c 0
 349.501953125 112 360.001953125 145.666992188 360.001953125 191 c 2
 360.001953125 277 l 1
 354.001953125 268.333007812 346.168945312 261.333007812 336.501953125 256 c 0
 326.834960938 250.666992188 315.334960938 246.333984375 302.001953125 243.000976562 c 2
 255.001953125 230.000976562 l 2
 227.668945312 223.333984375 208.501953125 212.833984375 197.501953125 198.500976562 c 0
 186.501953125 184.16796875 181.001953125 165.334960938 181.001953125 142.001953125 c 0
EndSplineSet
Validated: 524289
Substitution2: "'ss01' Style Set 1 in Latin lookup 49 subtable" a.ss01
Substitution2: "Single Substitution lookup 43 subtable" ordfeminine
Substitution2: "Single Substitution lookup 42 subtable" ordfeminine
Substitution2: "Single Substitution lookup 41 subtable" ordfeminine
Substitution2: "'aalt' Access All Alternates in Latin lookup 0 subtable" a.ss01
EndChar

StartChar: b
Encoding: 98 98 69
Width: 560
GlyphClass: 1
Flags: W
HStem: -7.99902 70.001<241.106 345.92> 0 21G<150 160> 438.002 69.999<240.638 345.92> 680.002 20G<150 160>
VStem: 120 70<10.3157 55 128.705 371.9 445.002 689.688> 395.001 69.998<127.503 372.598>
LayerCount: 2
Fore
SplineSet
155 0 m 0x7c
 145 0 136.666992188 3.3349609375 130 10.001953125 c 0
 123.333007812 16.6689453125 120 25.001953125 120 35.001953125 c 2
 120 665.001953125 l 2
 120 675.001953125 123.333007812 683.334960938 130 690.001953125 c 0
 136.666992188 696.668945312 145 700.001953125 155 700.001953125 c 0
 165 700.001953125 173.333007812 696.668945312 180 690.001953125 c 0
 186.666992188 683.334960938 190 675.001953125 190 665.001953125 c 2
 190 445.001953125 l 1
 200 464.334960938 214.666992188 479.66796875 234 491.000976562 c 0
 253.333007812 502.333984375 275.333007812 508.000976562 300 508.000976562 c 0
 335.333007812 508.000976562 365.166015625 496.333984375 389.499023438 473.000976562 c 0
 413.83203125 449.66796875 432.499023438 418.500976562 445.499023438 379.500976562 c 0
 458.499023438 340.500976562 464.999023438 297.333984375 464.999023438 250.000976562 c 0
 464.999023438 202.66796875 458.499023438 159.500976562 445.499023438 120.500976562 c 0
 432.499023438 81.5009765625 413.83203125 50.333984375 389.499023438 27.0009765625 c 0
 365.166015625 3.66796875 335.333007812 -7.9990234375 300 -7.9990234375 c 0xbc
 275.333007812 -7.9990234375 253.333007812 -2.33203125 234 9.0009765625 c 0
 214.666992188 20.333984375 200 35.6669921875 190 55 c 1
 190 35 l 2
 190 25 186.666992188 16.6669921875 180 10 c 0
 173.333007812 3.3330078125 165 0 155 0 c 0x7c
295 62.001953125 m 0
 317 62.001953125 335.333007812 70.669921875 350 88.0029296875 c 0
 364.666992188 105.3359375 375.833984375 128.3359375 383.500976562 157.002929688 c 0
 391.16796875 185.669921875 395.000976562 216.669921875 395.000976562 250.002929688 c 0
 395.000976562 284.002929688 391.16796875 315.169921875 383.500976562 343.502929688 c 0
 375.833984375 371.8359375 364.666992188 394.668945312 350 412.001953125 c 0
 335.333007812 429.334960938 317 438.001953125 295 438.001953125 c 0
 262.333007812 438.001953125 236.666015625 420.501953125 217.999023438 385.501953125 c 0
 199.33203125 350.501953125 189.999023438 305.334960938 189.999023438 250.001953125 c 0
 189.999023438 195.334960938 199.33203125 150.334960938 217.999023438 115.001953125 c 0
 236.666015625 79.6689453125 262.333007812 62.001953125 295 62.001953125 c 0
EndSplineSet
Validated: 524289
EndChar

StartChar: c
Encoding: 99 99 70
Width: 560
GlyphClass: 1
Flags: W
HStem: -8 69.999<228.78 347.682> 437.999 69.999<228.78 347.682>
VStem: 105 70.0039<130.077 369.92>
LayerCount: 2
Fore
SplineSet
287 -8 m 0
 247 -8 213.5 3.8310546875 186.5 27.498046875 c 0
 159.5 51.1650390625 139.166992188 82.498046875 125.5 121.498046875 c 0
 111.833007812 160.498046875 105 203.331054688 105 249.998046875 c 0
 105 296.665039062 111.833007812 339.498046875 125.5 378.498046875 c 0
 139.166992188 417.498046875 159.5 448.831054688 186.5 472.498046875 c 0
 213.5 496.165039062 247 507.998046875 287 507.998046875 c 0
 323.666992188 507.998046875 354.833984375 498.831054688 380.500976562 480.498046875 c 0
 406.16796875 462.165039062 426.334960938 435.665039062 441.001953125 400.998046875 c 0
 443.668945312 395.665039062 445.001953125 390.33203125 445.001953125 384.999023438 c 0
 445.001953125 374.999023438 441.334960938 366.83203125 434.001953125 360.499023438 c 0
 426.668945312 354.166015625 418.3359375 350.999023438 409.002929688 350.999023438 c 0
 395.002929688 350.999023438 384.669921875 357.999023438 378.002929688 371.999023438 c 0
 369.3359375 391.999023438 357.8359375 407.999023438 343.502929688 419.999023438 c 0
 329.169921875 431.999023438 310.336914062 437.999023438 287.00390625 437.999023438 c 0
 261.670898438 437.999023438 240.670898438 429.33203125 224.00390625 411.999023438 c 0
 207.336914062 394.666015625 195.00390625 371.666015625 187.00390625 342.999023438 c 0
 179.00390625 314.33203125 175.00390625 283.33203125 175.00390625 249.999023438 c 0
 175.00390625 216.666015625 179.00390625 185.666015625 187.00390625 156.999023438 c 0
 195.00390625 128.33203125 207.336914062 105.33203125 224.00390625 87.9990234375 c 0
 240.670898438 70.666015625 261.670898438 61.9990234375 287.00390625 61.9990234375 c 0
 310.336914062 61.9990234375 329.169921875 67.9990234375 343.502929688 79.9990234375 c 0
 357.8359375 91.9990234375 369.3359375 107.999023438 378.002929688 127.999023438 c 0
 384.002929688 142.666015625 394.3359375 149.999023438 409.002929688 149.999023438 c 0
 418.3359375 149.999023438 426.668945312 146.83203125 434.001953125 140.499023438 c 0
 441.334960938 134.166015625 445.001953125 125.666015625 445.001953125 114.999023438 c 0
 445.001953125 109.666015625 443.668945312 104.333007812 441.001953125 99 c 0
 426.334960938 65 406.16796875 38.6669921875 380.500976562 20 c 0
 354.833984375 1.3330078125 323.666992188 -8 287 -8 c 0
EndSplineSet
Validated: 524289
EndChar

StartChar: d
Encoding: 100 100 71
Width: 560
GlyphClass: 1
Flags: W
HStem: -8 69.998<214.678 319.759> -0.000976562 21G<400 410> 437.997 70.001<214.678 319.759> 679.999 20G<400 410>
VStem: 94.999 70.001<127.499 372.595> 370 70<10.3128 54.999 126.938 373.648 444.999 690.201>
LayerCount: 2
Fore
SplineSet
260 -8 m 0xbc
 225.333007812 -8 195.666015625 3.6650390625 170.999023438 26.998046875 c 0
 146.33203125 50.3310546875 127.499023438 81.498046875 114.499023438 120.498046875 c 0
 101.499023438 159.498046875 94.9990234375 202.665039062 94.9990234375 249.998046875 c 0
 94.9990234375 297.331054688 101.499023438 340.498046875 114.499023438 379.498046875 c 0
 127.499023438 418.498046875 146.33203125 449.665039062 170.999023438 472.998046875 c 0
 195.666015625 496.331054688 225.333007812 507.998046875 260 507.998046875 c 0
 284.666992188 507.998046875 306.666992188 502.331054688 326 490.998046875 c 0
 345.333007812 479.665039062 360 464.33203125 370 444.999023438 c 1
 370 664.999023438 l 2
 370 675.666015625 373.333007812 684.166015625 380 690.499023438 c 0
 386.666992188 696.83203125 395 699.999023438 405 699.999023438 c 0
 415 699.999023438 423.333007812 696.83203125 430 690.499023438 c 0
 436.666992188 684.166015625 440 675.666015625 440 664.999023438 c 2
 440 34.9990234375 l 2
 440 24.9990234375 436.666992188 16.666015625 430 9.9990234375 c 0
 423.333007812 3.33203125 415 -0.0009765625 405 -0.0009765625 c 0x7c
 395 -0.0009765625 386.666992188 3.33203125 380 9.9990234375 c 0
 373.333007812 16.666015625 370 24.9990234375 370 34.9990234375 c 2
 370 54.9990234375 l 1
 360 35.666015625 345.333007812 20.3330078125 326 9 c 0
 306.666992188 -2.3330078125 284.666992188 -8 260 -8 c 0xbc
266 61.998046875 m 0xbc
 298.666992188 61.998046875 324.166992188 79.6640625 342.5 114.997070312 c 0
 360.833007812 150.330078125 370 195.330078125 370 249.997070312 c 0
 370 305.330078125 360.833007812 350.497070312 342.5 385.497070312 c 0
 324.166992188 420.497070312 298.666992188 437.997070312 266 437.997070312 c 0
 244 437.997070312 225.5 429.330078125 210.5 411.997070312 c 0
 195.5 394.6640625 184.166992188 371.831054688 176.5 343.498046875 c 0
 168.833007812 315.165039062 165 283.998046875 165 249.998046875 c 0
 165 216.665039062 168.833007812 185.665039062 176.5 156.998046875 c 0
 184.166992188 128.331054688 195.5 105.331054688 210.5 87.998046875 c 0
 225.5 70.6650390625 244 61.998046875 266 61.998046875 c 0xbc
EndSplineSet
Validated: 524289
EndChar

StartChar: e
Encoding: 101 101 72
Width: 560
GlyphClass: 1
Flags: W
HStem: -8 70<234.743 342.129> 244 69<184.997 372.997> 438 70<230.245 335.295>
VStem: 109.997 70.001<134.434 244>
LayerCount: 2
Fore
SplineSet
288 -8 m 0
 250 -8 217.665039062 3.8330078125 190.998046875 27.5 c 0
 164.331054688 51.1669921875 144.1640625 82.5 130.497070312 121.5 c 0
 116.830078125 160.5 109.997070312 203.333007812 109.997070312 250 c 0
 109.997070312 296.666992188 116.6640625 339.5 129.997070312 378.5 c 0
 143.330078125 417.5 162.997070312 448.833007812 188.997070312 472.5 c 0
 214.997070312 496.166992188 246.330078125 508 282.997070312 508 c 0
 320.330078125 508 350.830078125 497.333007812 374.497070312 476 c 0
 398.1640625 454.666992188 415.831054688 426.666992188 427.498046875 392 c 0
 439.165039062 357.333007812 444.998046875 319.333007812 444.998046875 278 c 0
 444.998046875 268 441.498046875 259.833007812 434.498046875 253.5 c 0
 427.498046875 247.166992188 418.998046875 244 408.998046875 244 c 2
 179.998046875 244 l 1
 180.665039062 212 185.33203125 182.166992188 193.999023438 154.5 c 0
 202.666015625 126.833007812 214.833007812 104.5 230.5 87.5 c 0
 246.166992188 70.5 265.333984375 62 288.000976562 62 c 0
 307.333984375 62 324.166992188 68 338.5 80 c 0
 352.833007812 92 364.333007812 108 373 128 c 0
 379 142.666992188 389.333007812 150 404 150 c 0
 413.333007812 150 421.666015625 146.833007812 428.999023438 140.5 c 0
 436.33203125 134.166992188 439.999023438 126 439.999023438 116 c 0
 439.999023438 110 438.666015625 104.333007812 435.999023438 99 c 0
 421.33203125 65 401.33203125 38.6669921875 375.999023438 20 c 0
 350.666015625 1.3330078125 321.333007812 -8 288 -8 c 0
282.998046875 438 m 0
 256.331054688 438 234.830078125 426 218.497070312 402 c 0
 202.1640625 378 190.997070312 348.333007812 184.997070312 313 c 1
 372.997070312 313 l 1
 369.6640625 347 360.831054688 376.333007812 346.498046875 401 c 0
 332.165039062 425.666992188 310.998046875 438 282.998046875 438 c 0
EndSplineSet
Validated: 524289
EndChar

StartChar: f
Encoding: 102 102 73
Width: 560
GlyphClass: 1
Flags: W
HStem: 0 21G<232 242> 430.001 70<70.8282 201.999 272 449.171> 630.001 70<285.408 449.686>
VStem: 201.999 70.001<10.315 430.001 500.002 616.593>
LayerCount: 2
Fore
SplineSet
237 0 m 0
 227 0 218.666015625 3.333984375 211.999023438 10.0009765625 c 0
 205.33203125 16.66796875 201.999023438 25.3349609375 201.999023438 36.001953125 c 2
 201.999023438 430.001953125 l 1
 95.9990234375 430.001953125 l 2
 85.9990234375 430.001953125 77.4990234375 433.334960938 70.4990234375 440.001953125 c 0
 63.4990234375 446.668945312 59.9990234375 455.001953125 59.9990234375 465.001953125 c 0
 59.9990234375 475.001953125 63.4990234375 483.334960938 70.4990234375 490.001953125 c 0
 77.4990234375 496.668945312 85.9990234375 500.001953125 95.9990234375 500.001953125 c 2
 201.999023438 500.001953125 l 1
 201.999023438 583.001953125 l 2
 201.999023438 616.334960938 213.33203125 644.16796875 235.999023438 666.500976562 c 0
 258.666015625 688.833984375 286.333007812 700.000976562 319 700.000976562 c 2
 425 700.000976562 l 2
 435 700.000976562 443.333007812 696.66796875 450 690.000976562 c 0
 456.666992188 683.333984375 460 675.000976562 460 665.000976562 c 0
 460 655.000976562 456.666992188 646.66796875 450 640.000976562 c 0
 443.333007812 633.333984375 435 630.000976562 425 630.000976562 c 2
 319 630.000976562 l 2
 305 630.000976562 293.666992188 625.66796875 285 617.000976562 c 0
 276.333007812 608.333984375 272 597.000976562 272 583.000976562 c 2
 272 500.000976562 l 1
 424 500.000976562 l 2
 434 500.000976562 442.5 496.66796875 449.5 490.000976562 c 0
 456.5 483.333984375 460 475.000976562 460 465.000976562 c 0
 460 455.000976562 456.5 446.66796875 449.5 440.000976562 c 0
 442.5 433.333984375 434 430.000976562 424 430.000976562 c 2
 272 430.000976562 l 1
 272 36.0009765625 l 2
 272 25.333984375 268.666992188 16.6669921875 262 10 c 0
 255.333007812 3.3330078125 247 0 237 0 c 0
EndSplineSet
Validated: 524289
Substitution2: "'ss01' Style Set 1 in Latin lookup 49 subtable" f.ss01
Substitution2: "'aalt' Access All Alternates in Latin lookup 0 subtable" f.ss01
EndChar

StartChar: g
Encoding: 103 103 74
Width: 560
GlyphClass: 1
Flags: W
HStem: -218.001 70<197.542 334.871> -8 69.9961<214.677 319.758> 437.995 70.001<214.676 319.757> 479.997 20G<399.998 409.998>
VStem: 94.9971 70.001<127.497 372.593> 369.998 70<-113.33 54.999 126.936 373.646 444.997 490.199>
LayerCount: 2
Fore
SplineSet
260 -8 m 0xdc
 225.333007812 -8 195.6640625 3.6630859375 170.997070312 26.99609375 c 0
 146.330078125 50.3291015625 127.497070312 81.49609375 114.497070312 120.49609375 c 0
 101.497070312 159.49609375 94.9970703125 202.663085938 94.9970703125 249.99609375 c 0
 94.9970703125 297.329101562 101.497070312 340.49609375 114.497070312 379.49609375 c 0
 127.497070312 418.49609375 146.330078125 449.663085938 170.997070312 472.99609375 c 0
 195.6640625 496.329101562 225.331054688 507.99609375 259.998046875 507.99609375 c 0xec
 284.665039062 507.99609375 306.665039062 502.329101562 325.998046875 490.99609375 c 0
 345.331054688 479.663085938 359.998046875 464.330078125 369.998046875 444.997070312 c 1
 369.998046875 464.997070312 l 2
 369.998046875 475.6640625 373.331054688 484.1640625 379.998046875 490.497070312 c 0
 386.665039062 496.830078125 394.998046875 499.997070312 404.998046875 499.997070312 c 0
 414.998046875 499.997070312 423.331054688 496.830078125 429.998046875 490.497070312 c 0
 436.665039062 484.1640625 439.998046875 475.6640625 439.998046875 464.997070312 c 2
 439.998046875 -40.0029296875 l 2
 439.998046875 -79.3359375 432.165039062 -112.168945312 416.498046875 -138.501953125 c 0
 400.831054688 -164.834960938 379.831054688 -184.66796875 353.498046875 -198.000976562 c 0
 327.165039062 -211.333984375 297.998046875 -218.000976562 265.998046875 -218.000976562 c 0
 233.331054688 -218.000976562 205.831054688 -212.000976562 183.498046875 -200.000976562 c 0
 161.165039062 -188.000976562 143.498046875 -174.000976562 130.498046875 -158.000976562 c 0
 117.498046875 -142.000976562 108.665039062 -128.333984375 103.998046875 -117.000976562 c 0
 101.998046875 -111.000976562 100.998046875 -105.66796875 100.998046875 -101.000976562 c 0
 100.998046875 -90.333984375 104.498046875 -82.0009765625 111.498046875 -76.0009765625 c 0
 118.498046875 -70.0009765625 126.665039062 -67.0009765625 135.998046875 -67.0009765625 c 0
 151.998046875 -67.0009765625 162.998046875 -74.333984375 168.998046875 -89.0009765625 c 0
 177.665039062 -108.333984375 190.33203125 -123.000976562 206.999023438 -133.000976562 c 0
 223.666015625 -143.000976562 243.333007812 -148.000976562 266 -148.000976562 c 0
 295.333007812 -148.000976562 320 -139.500976562 340 -122.500976562 c 0
 360 -105.500976562 370 -78.0009765625 370 -40.0009765625 c 2
 370 54.9990234375 l 1
 360 35.666015625 345.333007812 20.3330078125 326 9 c 0
 306.666992188 -2.3330078125 284.666992188 -8 260 -8 c 0xdc
265.998046875 61.99609375 m 0
 298.665039062 61.99609375 324.165039062 79.662109375 342.498046875 114.995117188 c 0
 360.831054688 150.328125 369.998046875 195.328125 369.998046875 249.995117188 c 0
 369.998046875 305.328125 360.831054688 350.495117188 342.498046875 385.495117188 c 0
 324.165039062 420.495117188 298.665039062 437.995117188 265.998046875 437.995117188 c 0
 243.998046875 437.995117188 225.498046875 429.328125 210.498046875 411.995117188 c 0
 195.498046875 394.662109375 184.165039062 371.829101562 176.498046875 343.49609375 c 0
 168.831054688 315.163085938 164.998046875 283.99609375 164.998046875 249.99609375 c 0
 164.998046875 216.663085938 168.831054688 185.663085938 176.498046875 156.99609375 c 0
 184.165039062 128.329101562 195.498046875 105.329101562 210.498046875 87.99609375 c 0
 225.498046875 70.6630859375 243.998046875 61.99609375 265.998046875 61.99609375 c 0
EndSplineSet
Validated: 524289
Substitution2: "'ss02' Style Set 2 in Latin lookup 50 subtable" g.ss02
Substitution2: "'aalt' Access All Alternates in Latin lookup 0 subtable" g.ss02
EndChar

StartChar: h
Encoding: 104 104 75
Width: 560
GlyphClass: 1
Flags: W
HStem: 0 21G<140 150 415 425> 439 69<224.035 350.958> 680.001 20G<140 150>
VStem: 110 70<10.3147 390.944 445.001 690.203> 385 70<10.3137 401.656>
LayerCount: 2
Fore
SplineSet
145 0 m 0
 135 0 126.666992188 3.333984375 120 10.0009765625 c 0
 113.333007812 16.66796875 110 25.0009765625 110 35.0009765625 c 2
 110 665.000976562 l 2
 110 675.66796875 113.333007812 684.16796875 120 690.500976562 c 0
 126.666992188 696.833984375 135 700.000976562 145 700.000976562 c 0
 155 700.000976562 163.333007812 696.833984375 170 690.500976562 c 0
 176.666992188 684.16796875 180 675.66796875 180 665.000976562 c 2
 180 445.000976562 l 1
 191.333007812 464.333984375 207.333007812 479.666992188 228 491 c 0
 248.666992188 502.333007812 271 508 295 508 c 0
 343 508 381.666992188 491 411 457 c 0
 440.333007812 423 455 370.333007812 455 299 c 2
 455 35 l 2
 455 25 451.666992188 16.6669921875 445 10 c 0
 438.333007812 3.3330078125 430 0 420 0 c 0
 410 0 401.666992188 3.3330078125 395 10 c 0
 388.333007812 16.6669921875 385 25 385 35 c 2
 385 299 l 2
 385 345 377.5 379.833007812 362.5 403.5 c 0
 347.5 427.166992188 322 439 286 439 c 0
 255.333007812 439 230 427 210 403 c 0
 190 379 180 344 180 298 c 2
 180 35 l 2
 180 25 176.666992188 16.6669921875 170 10 c 0
 163.333007812 3.3330078125 155 0 145 0 c 0
EndSplineSet
Validated: 524289
EndChar

StartChar: i
Encoding: 105 105 76
Width: 560
GlyphClass: 1
Flags: W
HStem: 0 70<95.3137 245 315 464.686> 430 70<95.3137 245> 602 98<249.377 310.623>
VStem: 237 86<614.377 687.623> 245 70<70 430>
LayerCount: 2
Fore
SplineSet
280 602 m 0xf0
 267.333007812 602 257 606 249 614 c 0
 241 622 237 632.333007812 237 645 c 2
 237 657 l 2
 237 669.666992188 241 680 249 688 c 0
 257 696 267.333007812 700 280 700 c 0
 292.666992188 700 303 696 311 688 c 0
 319 680 323 669.666992188 323 657 c 2
 323 645 l 2
 323 632.333007812 319 622 311 614 c 0
 303 606 292.666992188 602 280 602 c 0xf0
120 0 m 2
 110 0 101.666992188 3.3330078125 95 10 c 0
 88.3330078125 16.6669921875 85 25 85 35 c 0
 85 45 88.3330078125 53.3330078125 95 60 c 0
 101.666992188 66.6669921875 110 70 120 70 c 2
 245 70 l 1
 245 430 l 1
 120 430 l 2
 110 430 101.666992188 433.333007812 95 440 c 0
 88.3330078125 446.666992188 85 455 85 465 c 0
 85 475 88.3330078125 483.333007812 95 490 c 0
 101.666992188 496.666992188 110 500 120 500 c 2
 280 500 l 2
 290 500 298.333007812 496.666992188 305 490 c 0
 311.666992188 483.333007812 315 475 315 465 c 2
 315 70 l 1xe8
 440 70 l 2
 450 70 458.333007812 66.6669921875 465 60 c 0
 471.666992188 53.3330078125 475 45 475 35 c 0
 475 25 471.666992188 16.6669921875 465 10 c 0
 458.333007812 3.3330078125 450 0 440 0 c 2
 120 0 l 2
EndSplineSet
Validated: 524289
Substitution2: "'locl' Localized Forms in Latin lookup 6 subtable" i.latn_TRK
Substitution2: "Single Substitution lookup 5 subtable" dotlessi
Substitution2: "Single Substitution lookup 4 subtable" dotlessi
Substitution2: "'aalt' Access All Alternates in Latin lookup 0 subtable" dotlessi
EndChar

StartChar: j
Encoding: 106 106 77
Width: 560
GlyphClass: 1
Flags: W
HStem: -210 70<135.314 315> 430 70<135.314 315> 602 98<319.377 380.623>
VStem: 307 86<614.377 687.623> 315 70<-140 430>
LayerCount: 2
Fore
SplineSet
350 602 m 0xf0
 337.333007812 602 327 606 319 614 c 0
 311 622 307 632.333007812 307 645 c 2
 307 657 l 2
 307 669.666992188 311 680 319 688 c 0
 327 696 337.333007812 700 350 700 c 0
 362.666992188 700 373 696 381 688 c 0
 389 680 393 669.666992188 393 657 c 2
 393 645 l 2
 393 632.333007812 389 622 381 614 c 0
 373 606 362.666992188 602 350 602 c 0xf0
160 -210 m 2
 150 -210 141.666992188 -206.666992188 135 -200 c 0
 128.333007812 -193.333007812 125 -185 125 -175 c 0
 125 -165 128.333007812 -156.666992188 135 -150 c 0
 141.666992188 -143.333007812 150 -140 160 -140 c 2
 315 -140 l 1
 315 430 l 1
 160 430 l 2
 150 430 141.666992188 433.333007812 135 440 c 0
 128.333007812 446.666992188 125 455 125 465 c 0
 125 475 128.333007812 483.333007812 135 490 c 0
 141.666992188 496.666992188 150 500 160 500 c 2
 350 500 l 2
 360 500 368.333007812 496.666992188 375 490 c 0
 381.666992188 483.333007812 385 475 385 465 c 2
 385 -175 l 2xe8
 385 -185 381.666992188 -193.333007812 375 -200 c 0
 368.333007812 -206.666992188 360 -210 350 -210 c 2
 160 -210 l 2
EndSplineSet
Validated: 524289
Substitution2: "Single Substitution lookup 5 subtable" uni0237
Substitution2: "Single Substitution lookup 4 subtable" uni0237
Substitution2: "'aalt' Access All Alternates in Latin lookup 0 subtable" uni0237
EndChar

StartChar: k
Encoding: 107 107 78
Width: 560
GlyphClass: 1
Flags: W
HStem: 0 21G<150 160 429 441.667> 480.999 20G<428.667 438> 679.999 20G<150 160>
VStem: 120 70<10.3137 172 271.999 689.685>
LayerCount: 2
Fore
SplineSet
155 0 m 0
 145 0 136.666992188 3.33203125 130 9.9990234375 c 0
 123.333007812 16.666015625 120 24.9990234375 120 34.9990234375 c 2
 120 664.999023438 l 2
 120 674.999023438 123.333007812 683.33203125 130 689.999023438 c 0
 136.666992188 696.666015625 145 699.999023438 155 699.999023438 c 0
 165 699.999023438 173.333007812 696.666015625 180 689.999023438 c 0
 186.666992188 683.33203125 190 674.999023438 190 664.999023438 c 2
 190 271.999023438 l 1
 408 488.999023438 l 2
 416 496.999023438 424.333007812 500.999023438 433 500.999023438 c 0
 443 500.999023438 451.333007812 497.83203125 458 491.499023438 c 0
 464.666992188 485.166015625 468 476.333007812 468 465 c 0
 468 460.333007812 467.166992188 455.666015625 465.5 450.999023438 c 0
 463.833007812 446.33203125 461 442.33203125 457 438.999023438 c 2
 348 329.999023438 l 1
 468 49.9990234375 l 2
 470.666992188 44.666015625 472 39.3330078125 472 34 c 0
 472 24 468.5 15.8330078125 461.5 9.5 c 0
 454.5 3.1669921875 446.333007812 0 437 0 c 0
 421 0 410 7.3330078125 404 22 c 2
 295 277 l 1
 190 172 l 1
 190 35 l 2
 190 25 186.666992188 16.6669921875 180 10 c 0
 173.333007812 3.3330078125 165 0 155 0 c 0
EndSplineSet
Validated: 524289
EndChar

StartChar: l
Encoding: 108 108 79
Width: 560
GlyphClass: 1
Flags: W
HStem: 0 70<95.3137 245 315 464.686> 630 70<95.3137 245>
VStem: 245 70<70 630>
LayerCount: 2
Fore
SplineSet
120 0 m 2
 110 0 101.666992188 3.3330078125 95 10 c 0
 88.3330078125 16.6669921875 85 25 85 35 c 0
 85 45 88.3330078125 53.3330078125 95 60 c 0
 101.666992188 66.6669921875 110 70 120 70 c 2
 245 70 l 1
 245 630 l 1
 120 630 l 2
 110 630 101.666992188 633.333007812 95 640 c 0
 88.3330078125 646.666992188 85 655 85 665 c 0
 85 675 88.3330078125 683.333007812 95 690 c 0
 101.666992188 696.666992188 110 700 120 700 c 2
 280 700 l 2
 290 700 298.333007812 696.666992188 305 690 c 0
 311.666992188 683.333007812 315 675 315 665 c 2
 315 70 l 1
 440 70 l 2
 450 70 458.333007812 66.6669921875 465 60 c 0
 471.666992188 53.3330078125 475 45 475 35 c 0
 475 25 471.666992188 16.6669921875 465 10 c 0
 458.333007812 3.3330078125 450 0 440 0 c 2
 120 0 l 2
EndSplineSet
Validated: 524289
EndChar

StartChar: m
Encoding: 109 109 80
Width: 560
GlyphClass: 1
Flags: W
HStem: 0 22G<85 95 280 290 475 485> 444 64<148.726 233.176 340.445 428.044> 480 20G<84.9971 94.9971>
VStem: 54.9971 70.0029<11.3137 415.635 455 489.686> 250 70<10.3137 415.635> 445 70<10.3137 421.822>
LayerCount: 2
Fore
SplineSet
90 1 m 0xdc
 80 1 71.6640625 4.3330078125 64.9970703125 11 c 0
 58.330078125 17.6669921875 54.9970703125 26 54.9970703125 36 c 2
 54.9970703125 465 l 2
 54.9970703125 475 58.330078125 483.333007812 64.9970703125 490 c 0
 71.6640625 496.666992188 79.9970703125 500 89.9970703125 500 c 0xbc
 99.9970703125 500 108.330078125 496.666992188 114.997070312 490 c 0
 121.6640625 483.333007812 124.997070312 475 124.997070312 465 c 2
 124.997070312 455 l 1
 143.6640625 490.333007812 171.331054688 508 207.998046875 508 c 0
 226.665039062 508 243.998046875 503 259.998046875 493 c 0
 275.998046875 483 289.331054688 468.333007812 299.998046875 449 c 1
 312.665039062 469.666992188 327.83203125 484.666992188 345.499023438 494 c 0
 363.166015625 503.333007812 381.333007812 508 400 508 c 0
 431.333007812 508 458.333007812 495.333007812 481 470 c 0
 503.666992188 444.666992188 515 406.666992188 515 356 c 2
 515 35 l 2
 515 25 511.666992188 16.6669921875 505 10 c 0
 498.333007812 3.3330078125 490 0 480 0 c 0
 470 0 461.666992188 3.3330078125 455 10 c 0
 448.333007812 16.6669921875 445 25 445 35 c 2
 445 356 l 2
 445 386 439.5 408.166992188 428.5 422.5 c 0
 417.5 436.833007812 403 444 385 444 c 0
 363.666992188 444 347.5 434.833007812 336.5 416.5 c 0
 325.5 398.166992188 320 372 320 338 c 2
 320 35 l 2
 320 25 316.666992188 16.6669921875 310 10 c 0
 303.333007812 3.3330078125 295 0 285 0 c 0
 275 0 266.666992188 3.3330078125 260 10 c 0
 253.333007812 16.6669921875 250 25 250 35 c 2
 250 356 l 2
 250 386 244.5 408.166992188 233.5 422.5 c 0
 222.5 436.833007812 208 444 190 444 c 0
 168.666992188 444 152.5 434.833007812 141.5 416.5 c 0
 130.5 398.166992188 125 372 125 338 c 2
 125 36 l 2
 125 26 121.666992188 17.6669921875 115 11 c 0
 108.333007812 4.3330078125 100 1 90 1 c 0xdc
EndSplineSet
Validated: 524289
EndChar

StartChar: n
Encoding: 110 110 81
Width: 560
GlyphClass: 1
Flags: W
HStem: 0 21G<140 150 416 426> 439 69<224.035 351.155> 480.001 20G<140 150>
VStem: 110 70<10.3147 390.944 445.001 489.687> 386 70<10.3137 401.249>
LayerCount: 2
Fore
SplineSet
145 0 m 0xd8
 135 0 126.666992188 3.333984375 120 10.0009765625 c 0
 113.333007812 16.66796875 110 25.0009765625 110 35.0009765625 c 2
 110 465.000976562 l 2
 110 475.000976562 113.333007812 483.333984375 120 490.000976562 c 0
 126.666992188 496.66796875 135 500.000976562 145 500.000976562 c 0xb8
 155 500.000976562 163.333007812 496.66796875 170 490.000976562 c 0
 176.666992188 483.333984375 180 475.000976562 180 465.000976562 c 2
 180 445.000976562 l 1
 191.333007812 464.333984375 207.333007812 479.666992188 228 491 c 0
 248.666992188 502.333007812 271 508 295 508 c 0
 343 508 381.833007812 491 411.5 457 c 0
 441.166992188 423 456 370.333007812 456 299 c 2
 456 35 l 2
 456 25 452.666992188 16.6669921875 446 10 c 0
 439.333007812 3.3330078125 431 0 421 0 c 0
 411 0 402.666992188 3.3330078125 396 10 c 0
 389.333007812 16.6669921875 386 25 386 35 c 2
 386 299 l 2
 386 345 378.333007812 379.833007812 363 403.5 c 0
 347.666992188 427.166992188 322 439 286 439 c 0
 255.333007812 439 230 427 210 403 c 0
 190 379 180 344 180 298 c 2
 180 35 l 2
 180 25 176.666992188 16.6669921875 170 10 c 0
 163.333007812 3.3330078125 155 0 145 0 c 0xd8
EndSplineSet
Validated: 524289
EndChar

StartChar: o
Encoding: 111 111 82
Width: 560
GlyphClass: 1
Flags: W
HStem: -8 70<228.058 332.545> 437.999 70.001<228.058 332.545>
VStem: 105.002 69.998<131.095 369.018> 384.999 70.001<131.095 369.018>
LayerCount: 2
Fore
SplineSet
280 -8 m 0
 242.666992188 -8 210.833984375 3.6669921875 184.500976562 27 c 0
 158.16796875 50.3330078125 138.334960938 81.5 125.001953125 120.5 c 0
 111.668945312 159.5 105.001953125 202.666992188 105.001953125 250 c 0
 105.001953125 297.333007812 111.668945312 340.5 125.001953125 379.5 c 0
 138.334960938 418.5 158.16796875 449.666992188 184.500976562 473 c 0
 210.833984375 496.333007812 242.666992188 508 280 508 c 0
 318 508 350 496.333007812 376 473 c 0
 402 449.666992188 421.666992188 418.5 435 379.5 c 0
 448.333007812 340.5 455 297.333007812 455 250 c 0
 455 202.666992188 448.333007812 159.5 435 120.5 c 0
 421.666992188 81.5 402 50.3330078125 376 27 c 0
 350 3.6669921875 318 -8 280 -8 c 0
280 62 m 0
 302.666992188 62 321.666992188 70.6669921875 337 88 c 0
 352.333007812 105.333007812 364.166015625 128.333007812 372.499023438 157 c 0
 380.83203125 185.666992188 384.999023438 216.666992188 384.999023438 250 c 0
 384.999023438 284 380.83203125 315.166992188 372.499023438 343.5 c 0
 364.166015625 371.833007812 352.333007812 394.666015625 337 411.999023438 c 0
 321.666992188 429.33203125 302.666992188 437.999023438 280 437.999023438 c 0
 258 437.999023438 239.166992188 429.33203125 223.5 411.999023438 c 0
 207.833007812 394.666015625 195.833007812 371.833007812 187.5 343.5 c 0
 179.166992188 315.166992188 175 284 175 250 c 0
 175 216.666992188 179.166992188 185.666992188 187.5 157 c 0
 195.833007812 128.333007812 207.833007812 105.333007812 223.5 88 c 0
 239.166992188 70.6669921875 258 62 280 62 c 0
EndSplineSet
Validated: 524289
Substitution2: "Single Substitution lookup 43 subtable" ordmasculine
Substitution2: "Single Substitution lookup 42 subtable" ordmasculine
Substitution2: "Single Substitution lookup 41 subtable" ordmasculine
EndChar

StartChar: p
Encoding: 112 112 83
Width: 560
GlyphClass: 1
Flags: W
HStem: -210 21G<150 160> -7.99902 70.001<241.106 345.92> 438.002 69.999<240.638 345.92>
VStem: 120 70<-199.684 55 128.705 371.9 445.002 497.688> 395.001 69.998<127.503 372.598>
LayerCount: 2
Fore
SplineSet
155 -210 m 0
 145 -210 136.666992188 -206.665039062 130 -199.998046875 c 0
 123.333007812 -193.331054688 120 -184.998046875 120 -174.998046875 c 2
 120 473.001953125 l 2
 120 483.001953125 123.333007812 491.334960938 130 498.001953125 c 0
 136.666992188 504.668945312 145 508.001953125 155 508.001953125 c 0
 165 508.001953125 173.333007812 504.668945312 180 498.001953125 c 0
 186.666992188 491.334960938 190 483.001953125 190 473.001953125 c 2
 190 445.001953125 l 1
 200 464.334960938 214.666992188 479.66796875 234 491.000976562 c 0
 253.333007812 502.333984375 275.333007812 508.000976562 300 508.000976562 c 0
 335.333007812 508.000976562 365.166015625 496.333984375 389.499023438 473.000976562 c 0
 413.83203125 449.66796875 432.499023438 418.500976562 445.499023438 379.500976562 c 0
 458.499023438 340.500976562 464.999023438 297.333984375 464.999023438 250.000976562 c 0
 464.999023438 202.66796875 458.499023438 159.500976562 445.499023438 120.500976562 c 0
 432.499023438 81.5009765625 413.83203125 50.333984375 389.499023438 27.0009765625 c 0
 365.166015625 3.66796875 335.333007812 -7.9990234375 300 -7.9990234375 c 0
 275.333007812 -7.9990234375 253.333007812 -2.33203125 234 9.0009765625 c 0
 214.666992188 20.333984375 200 35.6669921875 190 55 c 1
 190 -175 l 2
 190 -185 186.666992188 -193.333007812 180 -200 c 0
 173.333007812 -206.666992188 165 -210 155 -210 c 0
295 62.001953125 m 0
 317 62.001953125 335.333007812 70.669921875 350 88.0029296875 c 0
 364.666992188 105.3359375 375.833984375 128.3359375 383.500976562 157.002929688 c 0
 391.16796875 185.669921875 395.000976562 216.669921875 395.000976562 250.002929688 c 0
 395.000976562 284.002929688 391.16796875 315.169921875 383.500976562 343.502929688 c 0
 375.833984375 371.8359375 364.666992188 394.668945312 350 412.001953125 c 0
 335.333007812 429.334960938 317 438.001953125 295 438.001953125 c 0
 262.333007812 438.001953125 236.666015625 420.501953125 217.999023438 385.501953125 c 0
 199.33203125 350.501953125 189.999023438 305.334960938 189.999023438 250.001953125 c 0
 189.999023438 195.334960938 199.33203125 150.334960938 217.999023438 115.001953125 c 0
 236.666015625 79.6689453125 262.333007812 62.001953125 295 62.001953125 c 0
EndSplineSet
Validated: 524289
EndChar

StartChar: q
Encoding: 113 113 84
Width: 560
GlyphClass: 1
Flags: W
HStem: -210.001 21G<400 410> -8 69.998<214.678 319.759> 437.997 70.001<214.678 319.759>
VStem: 94.999 70.001<127.499 372.595> 370 70<-199.687 54.999 126.938 373.648 444.999 497.685>
LayerCount: 2
Fore
SplineSet
260 -8 m 0
 225.333007812 -8 195.666015625 3.6650390625 170.999023438 26.998046875 c 0
 146.33203125 50.3310546875 127.499023438 81.498046875 114.499023438 120.498046875 c 0
 101.499023438 159.498046875 94.9990234375 202.665039062 94.9990234375 249.998046875 c 0
 94.9990234375 297.331054688 101.499023438 340.498046875 114.499023438 379.498046875 c 0
 127.499023438 418.498046875 146.33203125 449.665039062 170.999023438 472.998046875 c 0
 195.666015625 496.331054688 225.333007812 507.998046875 260 507.998046875 c 0
 284.666992188 507.998046875 306.666992188 502.331054688 326 490.998046875 c 0
 345.333007812 479.665039062 360 464.33203125 370 444.999023438 c 1
 370 472.999023438 l 2
 370 482.999023438 373.333007812 491.33203125 380 497.999023438 c 0
 386.666992188 504.666015625 395 507.999023438 405 507.999023438 c 0
 415 507.999023438 423.333007812 504.666015625 430 497.999023438 c 0
 436.666992188 491.33203125 440 482.999023438 440 472.999023438 c 2
 440 -175.000976562 l 2
 440 -185.000976562 436.666992188 -193.333984375 430 -200.000976562 c 0
 423.333007812 -206.66796875 415 -210.000976562 405 -210.000976562 c 0
 395 -210.000976562 386.666992188 -206.66796875 380 -200.000976562 c 0
 373.333007812 -193.333984375 370 -185.000976562 370 -175.000976562 c 2
 370 54.9990234375 l 1
 360 35.666015625 345.333007812 20.3330078125 326 9 c 0
 306.666992188 -2.3330078125 284.666992188 -8 260 -8 c 0
266 61.998046875 m 0
 298.666992188 61.998046875 324.166992188 79.6640625 342.5 114.997070312 c 0
 360.833007812 150.330078125 370 195.330078125 370 249.997070312 c 0
 370 305.330078125 360.833007812 350.497070312 342.5 385.497070312 c 0
 324.166992188 420.497070312 298.666992188 437.997070312 266 437.997070312 c 0
 244 437.997070312 225.5 429.330078125 210.5 411.997070312 c 0
 195.5 394.6640625 184.166992188 371.831054688 176.5 343.498046875 c 0
 168.833007812 315.165039062 165 283.998046875 165 249.998046875 c 0
 165 216.665039062 168.833007812 185.665039062 176.5 156.998046875 c 0
 184.166992188 128.331054688 195.5 105.331054688 210.5 87.998046875 c 0
 225.5 70.6650390625 244 61.998046875 266 61.998046875 c 0
EndSplineSet
Validated: 524289
EndChar

StartChar: r
Encoding: 114 114 85
Width: 560
GlyphClass: 1
Flags: W
HStem: 0 70<90.3157 220.002 290 459.686> 429.999 70<90.3157 220.002> 448 60<338.059 429.271>
VStem: 220.002 69.998<70 389.691> 440 70<366.314 435.107>
LayerCount: 2
Fore
SplineSet
115 0 m 2xb8
 105 0 96.6689453125 3.33203125 90.001953125 9.9990234375 c 0
 83.3349609375 16.666015625 80.001953125 24.9990234375 80.001953125 34.9990234375 c 0
 80.001953125 44.9990234375 83.3349609375 53.33203125 90.001953125 59.9990234375 c 0
 96.6689453125 66.666015625 105.001953125 69.9990234375 115.001953125 69.9990234375 c 2
 220.001953125 69.9990234375 l 1
 220.001953125 429.999023438 l 1
 115.001953125 429.999023438 l 2
 105.001953125 429.999023438 96.6689453125 433.33203125 90.001953125 439.999023438 c 0
 83.3349609375 446.666015625 80.001953125 454.999023438 80.001953125 464.999023438 c 0
 80.001953125 474.999023438 83.3349609375 483.33203125 90.001953125 489.999023438 c 0
 96.6689453125 496.666015625 105.001953125 499.999023438 115.001953125 499.999023438 c 2
 255.001953125 499.999023438 l 2xd8
 265.001953125 499.999023438 273.334960938 496.666015625 280.001953125 489.999023438 c 0
 286.668945312 483.33203125 290.001953125 474.999023438 290.001953125 464.999023438 c 2
 290.001953125 438.999023438 l 1
 301.334960938 457.666015625 316.66796875 473.833007812 336.000976562 487.5 c 0
 355.333984375 501.166992188 377.666992188 508 403 508 c 0
 436.333007812 508 462.5 498.166992188 481.5 478.5 c 0
 500.5 458.833007812 510 433.333007812 510 402 c 2
 510 391 l 2
 510 381 506.666992188 372.666992188 500 366 c 0
 493.333007812 359.333007812 485 356 475 356 c 0
 465 356 456.666992188 359.333007812 450 366 c 0
 443.333007812 372.666992188 440 381 440 391 c 2
 440 402 l 2
 440 416 435.166992188 427.166992188 425.5 435.5 c 0
 415.833007812 443.833007812 403.666015625 448 388.999023438 448 c 0
 361.666015625 448 338.333007812 433 319 403 c 0
 299.666992188 373 290 332 290 280 c 2
 290 70 l 1
 435 70 l 2
 445 70 453.333007812 66.6669921875 460 60 c 0
 466.666992188 53.3330078125 470 45 470 35 c 0
 470 25 466.666992188 16.6669921875 460 10 c 0
 453.333007812 3.3330078125 445 0 435 0 c 2
 115 0 l 2xb8
EndSplineSet
Validated: 524289
Substitution2: "'ss01' Style Set 1 in Latin lookup 49 subtable" r.ss01
Substitution2: "'aalt' Access All Alternates in Latin lookup 0 subtable" r.ss01
EndChar

StartChar: s
Encoding: 115 115 86
Width: 560
GlyphClass: 1
Flags: W
HStem: -8 70.002<214.004 344.495> 438 70.002<222.149 344.925>
VStem: 132.999 70.001<318.214 421.798> 364.999 70.001<81.7736 183.958>
LayerCount: 2
Fore
SplineSet
286 -8 m 0
 254.666992188 -8 227 -2.166015625 203 9.5009765625 c 0
 179 21.16796875 157.333007812 35.66796875 138 53.0009765625 c 0
 129.333007812 61.66796875 125 70.66796875 125 80.0009765625 c 0
 125 90.66796875 128.333007812 99.3349609375 135 106.001953125 c 0
 141.666992188 112.668945312 149.333984375 116.001953125 158.000976562 116.001953125 c 0
 163.333984375 116.001953125 168.333984375 114.834960938 173.000976562 112.501953125 c 0
 177.66796875 110.168945312 182.66796875 106.668945312 188.000976562 102.001953125 c 0
 201.333984375 91.3349609375 215.666992188 82.001953125 231 74.001953125 c 0
 246.333007812 66.001953125 264.666015625 62.001953125 285.999023438 62.001953125 c 0
 310.666015625 62.001953125 329.999023438 68.501953125 343.999023438 81.501953125 c 0
 357.999023438 94.501953125 364.999023438 112.334960938 364.999023438 135.001953125 c 0
 364.999023438 169.001953125 343.666015625 193.001953125 300.999023438 207.001953125 c 2
 242.999023438 226.001953125 l 2
 208.999023438 238.001953125 182.166015625 257.001953125 162.499023438 283.001953125 c 0
 142.83203125 309.001953125 132.999023438 339.334960938 132.999023438 374.001953125 c 0
 132.999023438 414.001953125 146.499023438 446.334960938 173.499023438 471.001953125 c 0
 200.499023438 495.668945312 234.33203125 508.001953125 274.999023438 508.001953125 c 0
 304.33203125 508.001953125 330.499023438 502.668945312 353.499023438 492.001953125 c 0
 376.499023438 481.334960938 396.999023438 467.66796875 414.999023438 451.000976562 c 0
 422.999023438 443.000976562 426.999023438 434.000976562 426.999023438 424.000976562 c 0
 426.999023438 414.66796875 423.499023438 406.500976562 416.499023438 399.500976562 c 0
 409.499023438 392.500976562 401.33203125 389.000976562 391.999023438 389.000976562 c 0
 381.999023438 389.000976562 373.666015625 392.333984375 366.999023438 399.000976562 c 0
 352.33203125 412.333984375 337.83203125 422.166992188 323.499023438 428.5 c 0
 309.166015625 434.833007812 292.999023438 438 274.999023438 438 c 0
 255.666015625 438 238.833007812 432.666992188 224.5 422 c 0
 210.166992188 411.333007812 203 395.333007812 203 374 c 0
 203 334 225.333007812 306.333007812 270 291 c 2
 328 272 l 2
 359.333007812 261.333007812 385 244.5 405 221.5 c 0
 425 198.5 435 169.666992188 435 135 c 0
 435 91.6669921875 420.666992188 57 392 31 c 0
 363.333007812 5 328 -8 286 -8 c 0
EndSplineSet
Validated: 524289
EndChar

StartChar: t
Encoding: 116 116 87
Width: 560
GlyphClass: 1
Flags: W
HStem: 0 70<287.116 449.686> 430 70<70.8292 217 287 449.171>
VStem: 217 70<70.1157 430 500 647.171>
LayerCount: 2
Fore
SplineSet
290 0 m 2
 269.333007812 0 252 7 238 21 c 0
 224 35 217 52.3330078125 217 73 c 2
 217 430 l 1
 96 430 l 2
 86 430 77.5 433.333007812 70.5 440 c 0
 63.5 446.666992188 60 455 60 465 c 0
 60 475 63.5 483.333007812 70.5 490 c 0
 77.5 496.666992188 86 500 96 500 c 2
 217 500 l 1
 217 622 l 2
 217 632 220.333007812 640.5 227 647.5 c 0
 233.666992188 654.5 242 658 252 658 c 0
 262 658 270.333007812 654.5 277 647.5 c 0
 283.666992188 640.5 287 632 287 622 c 2
 287 500 l 1
 424 500 l 2
 434 500 442.5 496.666992188 449.5 490 c 0
 456.5 483.333007812 460 475 460 465 c 0
 460 455 456.5 446.666992188 449.5 440 c 0
 442.5 433.333007812 434 430 424 430 c 2
 287 430 l 1
 287 73 l 2
 287 71 288 70 290 70 c 2
 425 70 l 2
 435 70 443.333007812 66.6669921875 450 60 c 0
 456.666992188 53.3330078125 460 45 460 35 c 0
 460 25 456.666992188 16.6669921875 450 10 c 0
 443.333007812 3.3330078125 435 0 425 0 c 2
 290 0 l 2
EndSplineSet
Validated: 524289
Substitution2: "'ss01' Style Set 1 in Latin lookup 49 subtable" t.ss01
Substitution2: "'aalt' Access All Alternates in Latin lookup 0 subtable" t.ss01
EndChar

StartChar: u
Encoding: 117 117 88
Width: 560
GlyphClass: 1
Flags: W
HStem: -8 69.999<212.2 347.801> 479.999 20G<135.002 145.002 415 425>
VStem: 105.002 70<100.791 489.17> 385 70<100.791 489.17>
LayerCount: 2
Fore
SplineSet
280 -8 m 0
 224 -8 180.834960938 10.1669921875 150.501953125 46.5 c 0
 120.168945312 82.8330078125 105.001953125 130.666015625 105.001953125 189.999023438 c 2
 105.001953125 463.999023438 l 2
 105.001953125 473.999023438 108.334960938 482.499023438 115.001953125 489.499023438 c 0
 121.668945312 496.499023438 130.001953125 499.999023438 140.001953125 499.999023438 c 0
 150.001953125 499.999023438 158.334960938 496.499023438 165.001953125 489.499023438 c 0
 171.668945312 482.499023438 175.001953125 473.999023438 175.001953125 463.999023438 c 2
 175.001953125 189.999023438 l 2
 175.001953125 145.999023438 184.168945312 113.666015625 202.501953125 92.9990234375 c 0
 220.834960938 72.33203125 246.66796875 61.9990234375 280.000976562 61.9990234375 c 0
 313.333984375 61.9990234375 339.166992188 72.33203125 357.5 92.9990234375 c 0
 375.833007812 113.666015625 385 145.999023438 385 189.999023438 c 2
 385 463.999023438 l 2
 385 473.999023438 388.333007812 482.499023438 395 489.499023438 c 0
 401.666992188 496.499023438 410 499.999023438 420 499.999023438 c 0
 430 499.999023438 438.333007812 496.499023438 445 489.499023438 c 0
 451.666992188 482.499023438 455 473.999023438 455 463.999023438 c 2
 455 189.999023438 l 2
 455 130.666015625 439.833007812 82.8330078125 409.5 46.5 c 0
 379.166992188 10.1669921875 336 -8 280 -8 c 0
EndSplineSet
Validated: 524289
EndChar

StartChar: v
Encoding: 118 118 89
Width: 560
GlyphClass: 1
Flags: W
HStem: -2 21G<276.333 283.667> 480.002 20G<89.6655 101.999 457.999 470.666>
VStem: 59.999 67<478.002 497.633>
LayerCount: 2
Fore
SplineSet
280 -2 m 0
 272.666992188 -2 265.83203125 0 259.499023438 4 c 0
 253.166015625 8 247.999023438 14.6669921875 243.999023438 24 c 2
 63.9990234375 450 l 2
 63.33203125 452.666992188 62.4990234375 455.333984375 61.4990234375 458.000976562 c 0
 60.4990234375 460.66796875 59.9990234375 463.334960938 59.9990234375 466.001953125 c 0
 59.9990234375 475.334960938 63.4990234375 483.334960938 70.4990234375 490.001953125 c 0
 77.4990234375 496.668945312 85.33203125 500.001953125 93.9990234375 500.001953125 c 0
 109.999023438 500.001953125 120.999023438 492.668945312 126.999023438 478.001953125 c 2
 279.999023438 121.001953125 l 1
 432.999023438 478.001953125 l 2
 438.999023438 492.668945312 449.999023438 500.001953125 465.999023438 500.001953125 c 0
 475.33203125 500.001953125 483.33203125 496.668945312 489.999023438 490.001953125 c 0
 496.666015625 483.334960938 499.999023438 475.334960938 499.999023438 466.001953125 c 0
 499.999023438 463.334960938 499.666015625 460.66796875 498.999023438 458.000976562 c 0
 498.33203125 455.333984375 497.33203125 452.666992188 495.999023438 450 c 2
 315.999023438 24 l 2
 311.999023438 14.6669921875 306.83203125 8 300.499023438 4 c 0
 294.166015625 0 287.333007812 -2 280 -2 c 0
EndSplineSet
Validated: 524289
EndChar

StartChar: w
Encoding: 119 119 90
Width: 560
GlyphClass: 1
Flags: W
HStem: 0 21G<172 185 375 393.333> 480.001 20G<59.6665 68 492 500.667>
VStem: 30 69<446.275 489.687> 461 69<445.923 489.687>
LayerCount: 2
Fore
SplineSet
176 0 m 0
 168 0 160.833007812 2.33203125 154.5 6.9990234375 c 0
 148.166992188 11.666015625 144 18.3330078125 142 27 c 2
 32 451 l 1
 30.5 460 l 2
 30.1669921875 462 30 463.333007812 30 464 c 0
 30 474.666992188 33.5 483.333984375 40.5 490.000976562 c 0
 47.5 496.66796875 55.3330078125 500.000976562 64 500.000976562 c 0
 72 500.000976562 79.3330078125 497.833984375 86 493.500976562 c 0
 92.6669921875 489.16796875 97 482.334960938 99 473.001953125 c 2
 176 179.001953125 l 1
 246 465.001953125 l 2
 250 483.001953125 261.333007812 492.001953125 280 492.001953125 c 0
 298.666992188 492.001953125 310 483.001953125 314 465.001953125 c 2
 385 179.001953125 l 1
 461 473.001953125 l 2
 463 482.334960938 467.333007812 489.16796875 474 493.500976562 c 0
 480.666992188 497.833984375 488 500.000976562 496 500.000976562 c 0
 505.333007812 500.000976562 513.333007812 496.66796875 520 490.000976562 c 0
 526.666992188 483.333984375 530 474.666992188 530 464 c 2
 530 460 l 2
 530 458 529.333007812 455 528 451 c 2
 418 27 l 2
 414 9 402.666992188 0 384 0 c 0
 366 0 354.333007812 9 349 27 c 2
 280 308 l 1
 211 27 l 2
 205.666992188 9 194 0 176 0 c 0
EndSplineSet
Validated: 524289
EndChar

StartChar: x
Encoding: 120 120 91
Width: 560
GlyphClass: 1
Flags: W
HStem: 0 21G<132.667 144 416 427.333> 480 20G<132.667 144 416 427.333>
LayerCount: 2
Fore
SplineSet
138 0 m 0
 127.333007812 0 118.833007812 3.501953125 112.5 10.501953125 c 0
 106.166992188 17.501953125 103 25.3349609375 103 34.001953125 c 0
 103 39.3349609375 103.666992188 43.66796875 105 47.0009765625 c 0
 106.333007812 50.333984375 108 53.333984375 110 56.0009765625 c 2
 239 250.000976562 l 1
 110 444.000976562 l 2
 108 447.333984375 106.333007812 450.666992188 105 454 c 0
 103.666992188 457.333007812 103 461.333007812 103 466 c 0
 103 474.666992188 106.166992188 482.5 112.5 489.5 c 0
 118.833007812 496.5 127.333007812 500 138 500 c 0
 150 500 160 494.333007812 168 483 c 2
 280 314 l 1
 393 483 l 2
 400.333007812 494.333007812 410 500 422 500 c 0
 432.666992188 500 441.333984375 496.5 448.000976562 489.5 c 0
 454.66796875 482.5 458.000976562 474.666992188 458.000976562 466 c 0
 458.000976562 458 455.333984375 450.666992188 450.000976562 444 c 2
 321.000976562 250 l 1
 450.000976562 56 l 2
 455.333984375 49.3330078125 458.000976562 42 458.000976562 34 c 0
 458.000976562 25.3330078125 454.66796875 17.5 448.000976562 10.5 c 0
 441.333984375 3.5 432.666992188 0 422 0 c 0
 410 0 400.333007812 5.6669921875 393 17 c 2
 280 186 l 1
 168 17 l 2
 160 5.6669921875 150 0 138 0 c 0
EndSplineSet
Validated: 524289
EndChar

StartChar: y
Encoding: 121 121 92
Width: 560
GlyphClass: 1
Flags: W
HStem: -210 21G<186.667 199> 480.002 20G<89.6665 97.6665 462.333 470.667>
VStem: 60 68<477.002 497.639> 157 68<-207.654 -186>
LayerCount: 2
Fore
SplineSet
191 -210 m 0
 182.333007812 -210 174.5 -206.66796875 167.5 -200.000976562 c 0
 160.5 -193.333984375 157 -185.333984375 157 -176.000976562 c 0
 157 -169.333984375 158 -163.666992188 160 -159 c 2
 241 31 l 1
 64 450 l 2
 63.3330078125 452.666992188 62.5 455.333984375 61.5 458.000976562 c 0
 60.5 460.66796875 60 463.334960938 60 466.001953125 c 0
 60 475.334960938 63.5 483.334960938 70.5 490.001953125 c 0
 77.5 496.668945312 85.3330078125 500.001953125 94 500.001953125 c 0
 101.333007812 500.001953125 108 498.334960938 114 495.001953125 c 0
 120 491.668945312 124.666992188 485.668945312 128 477.001953125 c 2
 280 121.001953125 l 1
 432 477.001953125 l 2
 435.333007812 485.668945312 440 491.668945312 446 495.001953125 c 0
 452 498.334960938 458.666992188 500.001953125 466 500.001953125 c 0
 475.333007812 500.001953125 483.333007812 496.668945312 490 490.001953125 c 0
 496.666992188 483.334960938 500 475.334960938 500 466.001953125 c 0
 500 463.334960938 499.666992188 460.66796875 499 458.000976562 c 0
 498.333007812 455.333984375 497.333007812 452.666992188 496 450 c 2
 225 -186 l 2
 218.333007812 -202 207 -210 191 -210 c 0
EndSplineSet
Validated: 524289
EndChar

StartChar: z
Encoding: 122 122 93
Width: 560
GlyphClass: 1
Flags: W
HStem: 0 70<200 449.171> 429.999 70<110.829 360>
LayerCount: 2
Fore
SplineSet
136 0 m 2
 126 0 117.5 3.3330078125 110.5 10 c 0
 103.5 16.6669921875 100 25 100 35 c 0
 100 42.3330078125 102.333007812 49.666015625 107 56.9990234375 c 2
 360 429.999023438 l 1
 136 429.999023438 l 2
 126 429.999023438 117.5 433.33203125 110.5 439.999023438 c 0
 103.5 446.666015625 100 454.999023438 100 464.999023438 c 0
 100 474.999023438 103.5 483.33203125 110.5 489.999023438 c 0
 117.5 496.666015625 126 499.999023438 136 499.999023438 c 2
 424 499.999023438 l 2
 434 499.999023438 442.5 496.666015625 449.5 489.999023438 c 0
 456.5 483.33203125 460 474.999023438 460 464.999023438 c 0
 460 457.666015625 457.666992188 450.333007812 453 443 c 2
 200 70 l 1
 424 70 l 2
 434 70 442.5 66.6669921875 449.5 60 c 0
 456.5 53.3330078125 460 45 460 35 c 0
 460 25 456.5 16.6669921875 449.5 10 c 0
 442.5 3.3330078125 434 0 424 0 c 2
 136 0 l 2
EndSplineSet
Validated: 524289
EndChar

StartChar: braceleft
Encoding: 123 123 94
Width: 560
GlyphClass: 1
Flags: W
HStem: -139.999 70<315.73 456.685> 245 70.001<83.3137 220> 630.001 70<315.73 456.685>
VStem: 220 69.999<-44.2684 245 315.001 603.913>
LayerCount: 2
Fore
SplineSet
108 245 m 2
 98 245 89.6669921875 248.333984375 83 255.000976562 c 0
 76.3330078125 261.66796875 73 270.000976562 73 280.000976562 c 0
 73 290.000976562 76.3330078125 298.333984375 83 305.000976562 c 0
 89.6669921875 311.66796875 98 315.000976562 108 315.000976562 c 2
 220 315.000976562 l 1
 220 547.000976562 l 2
 220 577.000976562 226.5 603.500976562 239.5 626.500976562 c 0
 252.5 649.500976562 270.666992188 667.500976562 294 680.500976562 c 0
 317.333007812 693.500976562 343.666015625 700.000976562 372.999023438 700.000976562 c 2
 431.999023438 700.000976562 l 2
 441.999023438 700.000976562 450.33203125 696.66796875 456.999023438 690.000976562 c 0
 463.666015625 683.333984375 466.999023438 675.000976562 466.999023438 665.000976562 c 0
 466.999023438 655.000976562 463.666015625 646.66796875 456.999023438 640.000976562 c 0
 450.33203125 633.333984375 441.999023438 630.000976562 431.999023438 630.000976562 c 2
 372.999023438 630.000976562 l 2
 348.999023438 630.000976562 329.166015625 622.16796875 313.499023438 606.500976562 c 0
 297.83203125 590.833984375 289.999023438 571.000976562 289.999023438 547.000976562 c 2
 289.999023438 13.0009765625 l 2
 289.999023438 -10.9990234375 297.83203125 -30.83203125 313.499023438 -46.4990234375 c 0
 329.166015625 -62.166015625 348.999023438 -69.9990234375 372.999023438 -69.9990234375 c 2
 431.999023438 -69.9990234375 l 2
 441.999023438 -69.9990234375 450.33203125 -73.33203125 456.999023438 -79.9990234375 c 0
 463.666015625 -86.666015625 466.999023438 -94.9990234375 466.999023438 -104.999023438 c 0
 466.999023438 -114.999023438 463.666015625 -123.33203125 456.999023438 -129.999023438 c 0
 450.33203125 -136.666015625 441.999023438 -139.999023438 431.999023438 -139.999023438 c 2
 372.999023438 -139.999023438 l 2
 343.666015625 -139.999023438 317.333007812 -133.499023438 294 -120.499023438 c 0
 270.666992188 -107.499023438 252.5 -89.33203125 239.5 -65.9990234375 c 0
 226.5 -42.666015625 220 -16.3330078125 220 13 c 2
 220 245 l 1
 108 245 l 2
EndSplineSet
Validated: 524289
Substitution2: "'case' Case-Sensitive Forms in Latin lookup 47 subtable" braceleft.case
Substitution2: "'aalt' Access All Alternates in Latin lookup 0 subtable" braceleft.case
EndChar

StartChar: bar
Encoding: 124 124 95
Width: 560
GlyphClass: 1
Flags: W
VStem: 245 70<-196.686 746.686>
LayerCount: 2
Fore
SplineSet
280 -207 m 0
 270 -207 261.666992188 -203.666992188 255 -197 c 0
 248.333007812 -190.333007812 245 -182 245 -172 c 2
 245 722 l 2
 245 732 248.333007812 740.333007812 255 747 c 0
 261.666992188 753.666992188 270 757 280 757 c 0
 290 757 298.333007812 753.666992188 305 747 c 0
 311.666992188 740.333007812 315 732 315 722 c 2
 315 -172 l 2
 315 -182 311.666992188 -190.333007812 305 -197 c 0
 298.333007812 -203.666992188 290 -207 280 -207 c 0
EndSplineSet
Validated: 524289
Substitution2: "'case' Case-Sensitive Forms in Latin lookup 47 subtable" bar.case
Substitution2: "'aalt' Access All Alternates in Latin lookup 0 subtable" bar.case
EndChar

StartChar: braceright
Encoding: 125 125 96
Width: 560
GlyphClass: 1
Flags: W
HStem: -139.999 70<103.315 128.001 187.001 244.27> 245 70.001<452 476.686> 630.001 70<103.315 128.001 187.001 244.27>
VStem: 270.001 69.999<-44.2684 13.001 547.001 603.913>
LayerCount: 2
Fore
SplineSet
452 245 m 2
 462 245 470.333007812 248.333984375 477 255.000976562 c 0
 483.666992188 261.66796875 487 270.000976562 487 280.000976562 c 0
 487 290.000976562 483.666992188 298.333984375 477 305.000976562 c 0
 470.333007812 311.66796875 462 315.000976562 452 315.000976562 c 2
 340 315.000976562 l 1
 340 547.000976562 l 2
 340 577.000976562 333.5 603.500976562 320.5 626.500976562 c 0
 307.5 649.500976562 289.333007812 667.500976562 266 680.500976562 c 0
 242.666992188 693.500976562 216.333984375 700.000976562 187.000976562 700.000976562 c 2
 128.000976562 700.000976562 l 2
 118.000976562 700.000976562 109.66796875 696.66796875 103.000976562 690.000976562 c 0
 96.333984375 683.333984375 93.0009765625 675.000976562 93.0009765625 665.000976562 c 0
 93.0009765625 655.000976562 96.333984375 646.66796875 103.000976562 640.000976562 c 0
 109.66796875 633.333984375 118.000976562 630.000976562 128.000976562 630.000976562 c 2
 187.000976562 630.000976562 l 2
 211.000976562 630.000976562 230.833984375 622.16796875 246.500976562 606.500976562 c 0
 262.16796875 590.833984375 270.000976562 571.000976562 270.000976562 547.000976562 c 2
 270.000976562 13.0009765625 l 2
 270.000976562 -10.9990234375 262.16796875 -30.83203125 246.500976562 -46.4990234375 c 0
 230.833984375 -62.166015625 211.000976562 -69.9990234375 187.000976562 -69.9990234375 c 2
 128.000976562 -69.9990234375 l 2
 118.000976562 -69.9990234375 109.66796875 -73.33203125 103.000976562 -79.9990234375 c 0
 96.333984375 -86.666015625 93.0009765625 -94.9990234375 93.0009765625 -104.999023438 c 0
 93.0009765625 -114.999023438 96.333984375 -123.33203125 103.000976562 -129.999023438 c 0
 109.66796875 -136.666015625 118.000976562 -139.999023438 128.000976562 -139.999023438 c 2
 187.000976562 -139.999023438 l 2
 216.333984375 -139.999023438 242.666992188 -133.499023438 266 -120.499023438 c 0
 289.333007812 -107.499023438 307.5 -89.33203125 320.5 -65.9990234375 c 0
 333.5 -42.666015625 340 -16.3330078125 340 13 c 2
 340 245 l 1
 452 245 l 2
EndSplineSet
Validated: 524297
Substitution2: "'case' Case-Sensitive Forms in Latin lookup 47 subtable" braceright.case
Substitution2: "'aalt' Access All Alternates in Latin lookup 0 subtable" braceright.case
EndChar

StartChar: asciitilde
Encoding: 126 126 97
Width: 560
GlyphClass: 1
Flags: W
HStem: 175 70<313.052 397.638> 256 70<164.559 246.278>
LayerCount: 2
Fore
SplineSet
91 176 m 0
 81 176 72.498046875 179.333007812 65.498046875 186 c 0
 58.498046875 192.666992188 54.998046875 201.333984375 54.998046875 212.000976562 c 0
 54.998046875 221.333984375 58.6650390625 229.666992188 65.998046875 237 c 2
 121.998046875 292 l 2
 144.665039062 314.666992188 172.33203125 326 204.999023438 326 c 0
 237.666015625 326 264.999023438 315 286.999023438 293 c 2
 320.999023438 259 l 2
 330.33203125 249.666992188 341.665039062 245 354.998046875 245 c 0
 368.998046875 245 380.665039062 249.666992188 389.998046875 259 c 2
 443.998046875 313 l 2
 451.998046875 321 460.331054688 325 468.998046875 325 c 0
 478.998046875 325 487.498046875 321.5 494.498046875 314.5 c 0
 501.498046875 307.5 504.998046875 299 504.998046875 289 c 0
 504.998046875 279.666992188 501.331054688 271.333984375 493.998046875 264.000976562 c 2
 438.998046875 208.000976562 l 2
 428.331054688 197.333984375 415.498046875 189.166992188 400.498046875 183.5 c 0
 385.498046875 177.833007812 370.331054688 175 354.998046875 175 c 0
 322.998046875 175 295.665039062 185.666992188 272.998046875 207 c 2
 238.998046875 242 l 2
 228.331054688 251.333007812 216.998046875 256 204.998046875 256 c 0
 191.665039062 256 180.33203125 251 170.999023438 241 c 2
 115.999023438 187 l 2
 108.666015625 179.666992188 100.333007812 176 91 176 c 0
EndSplineSet
Validated: 524289
Substitution2: "'case' Case-Sensitive Forms in Latin lookup 47 subtable" asciitilde.case
Substitution2: "'aalt' Access All Alternates in Latin lookup 0 subtable" asciitilde.case
EndChar

StartChar: exclamdown
Encoding: 161 161 100
Width: 560
GlyphClass: 1
Flags: W
HStem: 402 98<248.861 310.623>
VStem: 237 86<413.861 487.623> 245 70<-189.686 296.686>
LayerCount: 2
Fore
SplineSet
280 307 m 0xa0
 290 307 298.333007812 303.666992188 305 297 c 0
 311.666992188 290.333007812 315 282 315 272 c 2
 315 -165 l 2
 315 -175 311.666992188 -183.333007812 305 -190 c 0
 298.333007812 -196.666992188 290 -200 280 -200 c 0
 270 -200 261.666992188 -196.666992188 255 -190 c 0
 248.333007812 -183.333007812 245 -175 245 -165 c 2
 245 272 l 2
 245 282 248.333007812 290.333007812 255 297 c 0
 261.666992188 303.666992188 270 307 280 307 c 0xa0
280 500 m 0
 292.666992188 500 303 496 311 488 c 0
 319 480 323 469.666992188 323 457 c 2
 323 445 l 2
 323 431.666992188 319 421.166992188 311 413.5 c 0
 303 405.833007812 292.666992188 402 280 402 c 0
 266.666992188 402 256.166992188 405.833007812 248.5 413.5 c 0
 240.833007812 421.166992188 237 431.666992188 237 445 c 2
 237 457 l 2xc0
 237 469.666992188 240.833007812 480 248.5 488 c 0
 256.166992188 496 266.666992188 500 280 500 c 0
EndSplineSet
Validated: 524289
Substitution2: "'case' Case-Sensitive Forms in Latin lookup 47 subtable" exclamdown.case
Substitution2: "'aalt' Access All Alternates in Latin lookup 0 subtable" exclamdown.case
EndChar

StartChar: cent
Encoding: 162 162 101
Width: 560
GlyphClass: 1
Flags: W
VStem: 104.999 70.0039<129.544 370.456> 252 70<-139.686 0.555107 499.445 639.686>
LayerCount: 2
Fore
SplineSet
287 -150 m 0
 277 -150 268.666992188 -146.666992188 262 -140 c 0
 255.333007812 -133.333007812 252 -125 252 -115 c 2
 252 -4 l 1
 219.333007812 2.6669921875 192.166015625 18.1669921875 170.499023438 42.5 c 0
 148.83203125 66.8330078125 132.499023438 97 121.499023438 133 c 0
 110.499023438 169 104.999023438 208 104.999023438 250 c 0
 104.999023438 292 110.499023438 331 121.499023438 367 c 0
 132.499023438 403 148.83203125 433.166992188 170.499023438 457.5 c 0
 192.166015625 481.833007812 219.333007812 497.333007812 252 504 c 1
 252 615 l 2
 252 625 255.333007812 633.333007812 262 640 c 0
 268.666992188 646.666992188 277 650 287 650 c 0
 297 650 305.333007812 646.666992188 312 640 c 0
 318.666992188 633.333007812 322 625 322 615 c 2
 322 505 l 1
 349.333007812 499.666992188 372.833007812 488.166992188 392.5 470.5 c 0
 412.166992188 452.833007812 428.333984375 429.666015625 441.000976562 400.999023438 c 0
 443.66796875 395.666015625 445.000976562 390.333007812 445.000976562 385 c 0
 445.000976562 375 441.333984375 366.833007812 434.000976562 360.5 c 0
 426.66796875 354.166992188 418.334960938 351 409.001953125 351 c 0
 395.001953125 351 384.668945312 358 378.001953125 372 c 0
 369.334960938 392 357.834960938 408 343.501953125 420 c 0
 329.168945312 432 310.3359375 438 287.002929688 438 c 0
 261.669921875 438 240.669921875 429.333007812 224.002929688 412 c 0
 207.3359375 394.666992188 195.002929688 371.666992188 187.002929688 343 c 0
 179.002929688 314.333007812 175.002929688 283.333007812 175.002929688 250 c 0
 175.002929688 216.666992188 179.002929688 185.666992188 187.002929688 157 c 0
 195.002929688 128.333007812 207.3359375 105.333007812 224.002929688 88 c 0
 240.669921875 70.6669921875 261.669921875 62 287.002929688 62 c 0
 310.3359375 62 329.168945312 68 343.501953125 80 c 0
 357.834960938 92 369.334960938 108 378.001953125 128 c 0
 384.001953125 142.666992188 394.334960938 150 409.001953125 150 c 0
 418.334960938 150 426.66796875 146.833007812 434.000976562 140.5 c 0
 441.333984375 134.166992188 445.000976562 125.666992188 445.000976562 115 c 0
 445.000976562 109.666992188 443.66796875 104.333984375 441.000976562 99.0009765625 c 0
 428.333984375 70.333984375 412.166992188 47.1669921875 392.5 29.5 c 0
 372.833007812 11.8330078125 349.333007812 0.3330078125 322 -5 c 1
 322 -115 l 2
 322 -125 318.666992188 -133.333007812 312 -140 c 0
 305.333007812 -146.666992188 297 -150 287 -150 c 0
EndSplineSet
Validated: 524289
EndChar

StartChar: sterling
Encoding: 163 163 102
Width: 560
GlyphClass: 1
Flags: W
HStem: 0 70<60.8273 144.998 215 491.171> 326 70<60.8273 144.998 215 388.171> 638 69.999<245.666 393.379>
VStem: 144.998 70.002<70 325.999 396 606.72>
LayerCount: 2
Fore
SplineSet
86 0 m 2
 76 0 67.498046875 3.33203125 60.498046875 9.9990234375 c 0
 53.498046875 16.666015625 49.998046875 24.9990234375 49.998046875 34.9990234375 c 0
 49.998046875 44.9990234375 53.498046875 53.33203125 60.498046875 59.9990234375 c 0
 67.498046875 66.666015625 75.998046875 69.9990234375 85.998046875 69.9990234375 c 2
 144.998046875 69.9990234375 l 1
 144.998046875 325.999023438 l 1
 85.998046875 325.999023438 l 2
 75.998046875 325.999023438 67.498046875 329.33203125 60.498046875 335.999023438 c 0
 53.498046875 342.666015625 49.998046875 350.999023438 49.998046875 360.999023438 c 0
 49.998046875 370.999023438 53.498046875 379.33203125 60.498046875 385.999023438 c 0
 67.498046875 392.666015625 75.998046875 395.999023438 85.998046875 395.999023438 c 2
 144.998046875 395.999023438 l 1
 144.998046875 542.999023438 l 2
 144.998046875 592.999023438 160.498046875 632.999023438 191.498046875 662.999023438 c 0
 222.498046875 692.999023438 264.331054688 707.999023438 316.998046875 707.999023438 c 0
 346.998046875 707.999023438 376.998046875 701.33203125 406.998046875 687.999023438 c 0
 436.998046875 674.666015625 464.331054688 654.333007812 488.998046875 627 c 0
 492.998046875 623 495.665039062 619 496.998046875 615 c 0
 498.331054688 611 498.998046875 607 498.998046875 603 c 0
 498.998046875 593 495.665039062 584.5 488.998046875 577.5 c 0
 482.331054688 570.5 473.998046875 567 463.998046875 567 c 0
 453.331054688 567 444.331054688 571.333007812 436.998046875 580 c 0
 416.998046875 602 396.331054688 617.166992188 374.998046875 625.5 c 0
 353.665039062 633.833007812 334.33203125 638 316.999023438 638 c 0
 283.666015625 638 258.333007812 629.5 241 612.5 c 0
 223.666992188 595.5 215 572.333007812 215 543 c 2
 215 396 l 1
 363 396 l 2
 373 396 381.5 392.666992188 388.5 386 c 0
 395.5 379.333007812 399 371 399 361 c 0
 399 351 395.5 342.666992188 388.5 336 c 0
 381.5 329.333007812 373 326 363 326 c 2
 215 326 l 1
 215 70 l 1
 466 70 l 2
 476 70 484.5 66.6669921875 491.5 60 c 0
 498.5 53.3330078125 502 45 502 35 c 0
 502 25 498.5 16.6669921875 491.5 10 c 0
 484.5 3.3330078125 476 0 466 0 c 2
 86 0 l 2
EndSplineSet
Validated: 524289
EndChar

StartChar: currency
Encoding: 164 164 103
Width: 560
GlyphClass: 1
Flags: W
HStem: 220 70.002<236.105 324.357> 410.002 69.9971<235.618 324.837>
VStem: 149.998 69.999<305.928 394.361> 339.997 70<305.621 394.84>
LayerCount: 2
Fore
SplineSet
125 160 m 0
 116.333007812 160 108.331054688 163.168945312 100.998046875 169.501953125 c 0
 93.6650390625 175.834960938 89.998046875 184.334960938 89.998046875 195.001953125 c 0
 89.998046875 204.334960938 93.6650390625 212.66796875 100.998046875 220.000976562 c 2
 165.998046875 286.000976562 l 1
 161.331054688 295.333984375 157.498046875 305.333984375 154.498046875 316.000976562 c 0
 151.498046875 326.66796875 149.998046875 338.000976562 149.998046875 350.000976562 c 0
 149.998046875 373.333984375 155.665039062 394.666992188 166.998046875 414 c 1
 100.998046875 480 l 2
 93.6650390625 487.333007812 89.998046875 495.666015625 89.998046875 504.999023438 c 0
 89.998046875 515.666015625 93.6650390625 524.166015625 100.998046875 530.499023438 c 0
 108.331054688 536.83203125 116.331054688 539.999023438 124.998046875 539.999023438 c 0
 134.998046875 539.999023438 143.331054688 536.666015625 149.998046875 529.999023438 c 2
 215.998046875 463.999023438 l 1
 235.998046875 474.666015625 257.331054688 479.999023438 279.998046875 479.999023438 c 0
 303.331054688 479.999023438 324.6640625 474.33203125 343.997070312 462.999023438 c 1
 409.997070312 529.999023438 l 2
 416.6640625 536.666015625 424.997070312 539.999023438 434.997070312 539.999023438 c 0
 444.330078125 539.999023438 452.497070312 536.83203125 459.497070312 530.499023438 c 0
 466.497070312 524.166015625 469.997070312 515.666015625 469.997070312 504.999023438 c 0
 469.997070312 501.666015625 469.1640625 497.499023438 467.497070312 492.499023438 c 0
 465.830078125 487.499023438 463.330078125 483.33203125 459.997070312 479.999023438 c 2
 392.997070312 413.999023438 l 1
 404.330078125 394.666015625 409.997070312 373.333007812 409.997070312 350 c 0
 409.997070312 327.333007812 404.6640625 306 393.997070312 286 c 1
 459.997070312 220 l 2
 463.330078125 216.666992188 465.830078125 212.5 467.497070312 207.5 c 0
 469.1640625 202.5 469.997070312 198.333007812 469.997070312 195 c 0
 469.997070312 184.333007812 466.497070312 175.833007812 459.497070312 169.5 c 0
 452.497070312 163.166992188 444.330078125 160 434.997070312 160 c 0
 425.6640625 160 417.331054688 163.666992188 409.998046875 171 c 2
 343.998046875 237 l 1
 324.665039062 225.666992188 303.33203125 220 279.999023438 220 c 0
 257.33203125 220 235.999023438 225.333007812 215.999023438 236 c 1
 149.999023438 171 l 2
 142.666015625 163.666992188 134.333007812 160 125 160 c 0
279.998046875 290.001953125 m 0
 297.331054688 290.001953125 311.6640625 295.834960938 322.997070312 307.501953125 c 0
 334.330078125 319.168945312 339.997070312 333.3359375 339.997070312 350.002929688 c 0
 339.997070312 367.3359375 334.330078125 381.668945312 322.997070312 393.001953125 c 0
 311.6640625 404.334960938 297.331054688 410.001953125 279.998046875 410.001953125 c 0
 263.331054688 410.001953125 249.1640625 404.334960938 237.497070312 393.001953125 c 0
 225.830078125 381.668945312 219.997070312 367.3359375 219.997070312 350.002929688 c 0
 219.997070312 333.3359375 225.830078125 319.168945312 237.497070312 307.501953125 c 0
 249.1640625 295.834960938 263.331054688 290.001953125 279.998046875 290.001953125 c 0
EndSplineSet
Validated: 524289
EndChar

StartChar: yen
Encoding: 165 165 104
Width: 560
GlyphClass: 1
Flags: W
HStem: 0 21G<275 285> 139 70<107.83 245 315 453.171> 289 70<107.83 222.001 338 453.171> 679.999 20G<62.6685 74.002 489.333 498.333>
VStem: 245 70<10.3137 139 209 289>
LayerCount: 2
Fore
SplineSet
132 139 m 2
 122.666992188 139 114.500976562 142.5 107.500976562 149.5 c 0
 100.500976562 156.5 97.0009765625 164.666992188 97.0009765625 174 c 0
 97.0009765625 184 100.500976562 192.333007812 107.500976562 199 c 0
 114.500976562 205.666992188 122.66796875 209 132.000976562 209 c 2
 245.000976562 209 l 1
 245.000976562 289 l 1
 132.000976562 289 l 2
 122.66796875 289 114.500976562 292.5 107.500976562 299.5 c 0
 100.500976562 306.5 97.0009765625 314.666992188 97.0009765625 324 c 0
 97.0009765625 334 100.500976562 342.333007812 107.500976562 349 c 0
 114.500976562 355.666992188 122.66796875 359 132.000976562 359 c 2
 222.000976562 359 l 1
 42.0009765625 638 l 2
 37.333984375 645.333007812 34.5009765625 651.166015625 33.5009765625 655.499023438 c 0
 32.5009765625 659.83203125 32.0009765625 663.33203125 32.0009765625 665.999023438 c 0
 32.0009765625 675.33203125 35.333984375 683.33203125 42.0009765625 689.999023438 c 0
 48.66796875 696.666015625 57.3349609375 699.999023438 68.001953125 699.999023438 c 0
 80.001953125 699.999023438 89.3349609375 694.666015625 96.001953125 683.999023438 c 2
 280.001953125 397.999023438 l 1
 464.001953125 683.999023438 l 2
 467.334960938 689.33203125 471.16796875 693.33203125 475.500976562 695.999023438 c 0
 479.833984375 698.666015625 485.666992188 699.999023438 493 699.999023438 c 0
 503.666992188 699.999023438 512.166992188 696.666015625 518.5 689.999023438 c 0
 524.833007812 683.33203125 528 675.33203125 528 665.999023438 c 0
 528 663.33203125 527.5 659.83203125 526.5 655.499023438 c 0
 525.5 651.166015625 522.666992188 645.333007812 518 638 c 2
 338 359 l 1
 429 359 l 2
 438.333007812 359 446.5 355.666992188 453.5 349 c 0
 460.5 342.333007812 464 334 464 324 c 0
 464 314.666992188 460.5 306.5 453.5 299.5 c 0
 446.5 292.5 438.333007812 289 429 289 c 2
 315 289 l 1
 315 209 l 1
 429 209 l 2
 438.333007812 209 446.5 205.666992188 453.5 199 c 0
 460.5 192.333007812 464 184 464 174 c 0
 464 164.666992188 460.5 156.5 453.5 149.5 c 0
 446.5 142.5 438.333007812 139 429 139 c 2
 315 139 l 1
 315 35 l 2
 315 25 311.666992188 16.6669921875 305 10 c 0
 298.333007812 3.3330078125 290 0 280 0 c 0
 270 0 261.666992188 3.3330078125 255 10 c 0
 248.333007812 16.6669921875 245 25 245 35 c 2
 245 139 l 1
 132 139 l 2
EndSplineSet
Validated: 524289
EndChar

StartChar: brokenbar
Encoding: 166 166 105
Width: 560
GlyphClass: 1
Flags: W
VStem: 245 70<-196.686 183.202 367.314 746.686>
LayerCount: 2
Fore
SplineSet
280 357 m 0
 270 357 261.666992188 360.333007812 255 367 c 0
 248.333007812 373.666992188 245 382 245 392 c 2
 245 722 l 2
 245 732 248.333007812 740.333007812 255 747 c 0
 261.666992188 753.666992188 270 757 280 757 c 0
 290 757 298.333007812 753.666992188 305 747 c 0
 311.666992188 740.333007812 315 732 315 722 c 2
 315 392 l 2
 315 382 311.666992188 373.666992188 305 367 c 0
 298.333007812 360.333007812 290 357 280 357 c 0
280 -207 m 0
 270 -207 261.666992188 -203.666992188 255 -197 c 0
 248.333007812 -190.333007812 245 -182 245 -172 c 2
 245 158 l 2
 245 168.666992188 248.333007812 177.166992188 255 183.5 c 0
 261.666992188 189.833007812 270 193 280 193 c 0
 290 193 298.333007812 189.833007812 305 183.5 c 0
 311.666992188 177.166992188 315 168.666992188 315 158 c 2
 315 -172 l 2
 315 -182 311.666992188 -190.333007812 305 -197 c 0
 298.333007812 -203.666992188 290 -207 280 -207 c 0
EndSplineSet
Validated: 524289
Substitution2: "'case' Case-Sensitive Forms in Latin lookup 47 subtable" brokenbar.case
Substitution2: "'aalt' Access All Alternates in Latin lookup 0 subtable" brokenbar.case
EndChar

